<?xml version="1.0" encoding="utf-8"?>
<!-- Generator: Adobe Illustrator 27.4.0, SVG Export Plug-In . SVG Version: 6.00 Build 0)  -->
<svg version="1.1" id="Calque_1" xmlns="http://www.w3.org/2000/svg" xmlns:xlink="http://www.w3.org/1999/xlink" x="0px" y="0px"
	 viewBox="0 0 514.3 264.9" style="enable-background:new 0 0 514.3 264.9;" xml:space="preserve">
<style type="text/css">
	.st0{fill:#F29178;}
	.st1{fill:#6DB3BF;}
	.st2{fill:#FFFFFF;}
	.st3{fill:#081533;}
	.st4{fill:#010116;}
</style>
<g>
	<g>
		<g>
			<path class="st0" d="M194.2,173.2c-1.1-2-2.9-3.5-4.2-5.3c-1.5-2-2.5-4.4-3.2-6.7c-0.7-2.4-1.2-5-1.2-7.5c0-1.6,0.1-3.2,0.1-4.8
				c0.1-1.2,0.1-2.7,0.7-3.8c0.8-1.5,1.7,0.9,1.9,1.6c0.4,1.4,0.6,2.8,0.8,4.2c0.4,2.7,0.5,5.5,0.6,8.2c0.3,5,0.9,10.3,4.1,14.4
				c0.2,0.3,0.7-0.1,0.5-0.4c-3.1-4.1-3.7-9.3-3.9-14.3c-0.2-2.8-0.3-5.7-0.7-8.5c-0.2-1.5-0.4-3-1-4.4c-0.3-0.8-1.1-2.4-2.2-1.9
				c-1,0.5-1.1,2.2-1.2,3.1c-0.1,1.2-0.1,2.4-0.2,3.5c-0.1,2.7,0,5.4,0.6,8.1c0.6,2.8,1.6,5.6,3.1,8.1c1.4,2.4,3.8,4.1,5.2,6.4
				C194.1,173.5,194.3,173.4,194.2,173.2L194.2,173.2z"/>
			<path class="st0" d="M194,173.4c2.3,2.8,2,6.5,2.5,9.9c0.5,3.4,0.9,7.3,3.1,10.1c0.2,0.2,0.5,0,0.4-0.2c-0.9-1.7-1.6-3.4-2-5.2
				c-0.4-1.8-0.7-3.6-1-5.5c-0.5-3.3-0.5-6.7-2.8-9.3C194.1,173.1,193.9,173.2,194,173.4L194,173.4z"/>
			<path class="st0" d="M194.5,164.8c-0.3,2.4,0,4.8,0.7,7.1c0.4,1.3,0.7,2.5,0.9,3.8c0.1,0.6,0.1,1.3,0.1,1.9
				c0,0.6-0.1,1.2,0.1,1.7c0,0.2,0.3,0.2,0.3,0c0.2-0.5,0.1-1.2,0.1-1.7c0-0.6-0.1-1.2-0.2-1.7c-0.2-1.2-0.5-2.4-0.9-3.6
				c-0.7-2.4-1.1-4.9-1-7.5C194.6,164.7,194.5,164.7,194.5,164.8L194.5,164.8z"/>
			<path class="st0" d="M194.5,166.9c0.3-9.1-2.9-18.7,1.6-27.3c0.6-1.2,1.3-2.4,2.2-3.5c0.4-0.5,1.4-1.7,2.2-1
				c0.8,0.7,0.5,1.9,0.2,2.8c-0.4,1.2-0.7,2.3-1,3.5c-0.7,2.7-1.3,5.3-2,8c-1.5,5.7-3.4,11.5-3.4,17.5c0,0.2,0.3,0.2,0.4,0
				c0.3-2.9,0.8-5.8,1.4-8.6c0.6-2.8,1.4-5.6,2.1-8.3c0.8-2.8,1.4-5.7,2.1-8.6c0.3-1.2,0.7-2.4,1-3.7c0.2-0.9,0.3-1.9-0.2-2.7
				c-1.6-2.3-4,1.7-4.7,2.8c-0.6,1.1-1.2,2.2-1.7,3.3c-0.8,1.9-1.2,4.1-1.4,6.1C192.6,153.8,194,160.4,194.5,166.9
				C194.4,167,194.5,167,194.5,166.9L194.5,166.9z"/>
			<path class="st0" d="M203.4,153.4c-1.7,3.8-3.2,7.7-4.1,11.8c-0.4,1.6-0.6,3.2-0.9,4.7c-0.4,1.9-0.9,3.9-1.3,5.8
				c-0.2,1.2-0.4,2.5-0.5,3.7c-0.1,1.1-0.3,2.4,0,3.6c0.1,0.2,0.4,0.2,0.4,0c0.1-1,0.1-2,0.1-3c0.1-1.2,0.2-2.4,0.4-3.5
				c0.3-2,0.8-3.9,1.2-5.9c0.6-3.2,1.2-6.4,2.2-9.6c0.8-2.6,1.8-5.1,2.7-7.6C203.6,153.4,203.4,153.3,203.4,153.4L203.4,153.4z"/>
			<path class="st0" d="M202.7,155.7c1.4-4.4,1.9-9,2.5-13.5c0.5-4.2,1.5-8.2,3.5-11.9c0.3-0.6,0.8-1.5,1.6-1.5
				c0.5,0,0.6,0.7,0.7,1.1c0.1,1.2-0.2,2.5-0.3,3.7c-0.4,2.3-0.8,4.7-1.3,7c-0.5,2.2-1,4.5-1.9,6.6c-1.4,3.4-3.7,6.4-5.6,9.5
				c-0.1,0.2,0.2,0.4,0.3,0.2c1.1-1.4,2-2.9,3-4.4c1-1.5,1.9-3.1,2.7-4.7c0.9-2.1,1.5-4.3,1.9-6.5c0.5-2.5,1-5,1.4-7.6
				c0.2-1.1,1.2-6.4-1.5-5.2c-1.3,0.6-1.9,2.5-2.5,3.8c-1,2.1-1.6,4.4-2,6.7c-0.5,2.8-0.7,5.6-1.1,8.4c-0.4,2.8-1.1,5.6-1.6,8.4
				C202.4,155.8,202.7,155.8,202.7,155.7L202.7,155.7z"/>
			<path class="st0" d="M140.9,147.6c2.2,1.5,4,3.6,6.2,5c2.1,1.4,4.6,2.2,7,2.8c2.5,0.6,5.1,1.2,7.6,2c2.5,0.9,5,1.9,7.4,3.2
				c2.7,1.4,5.1,3.1,7.5,4.9c0.3,0.2,0.7-0.3,0.4-0.5c-4-3.3-8.8-5.9-13.7-7.7c-2.5-0.9-5-1.5-7.5-2.1c-2.5-0.6-5.1-1.2-7.5-2.4
				c-2.7-1.4-4.7-3.7-7.3-5.3C140.9,147.3,140.8,147.5,140.9,147.6L140.9,147.6z"/>
			<path class="st0" d="M176.5,131.3c-2.9,8.5-3.1,17.8-1.6,26.6c0.4,2.4,1,5,1.9,7.3c0.2,0.5,0.9,0.3,0.8-0.2
				c-0.6-2.1-1.2-4.1-1.7-6.2c-0.5-2.2-0.8-4.4-1-6.7c-0.4-4.5-0.3-9,0.4-13.4c0.4-2.5,0.9-4.9,1.5-7.3
				C176.8,131.2,176.6,131.2,176.5,131.3L176.5,131.3z"/>
			<path class="st0" d="M147.7,92.8c1,8.5,2.9,16.8,5.4,24.9c2.5,8.1,5.8,16,9.5,23.6c3.8,7.7,8.2,15.2,13,22.3
				c4.7,7,9.9,13.7,15.4,20.2c2.7,3.2,5.6,6.4,8.6,9.4c3,2.9,6.1,5.7,9.7,7.9c0.8,0.5,1.6,0.9,2.5,1.3c0.4,0.2,0.8-0.4,0.4-0.6
				c-3.5-2.2-6.7-4.5-9.7-7.3c-3.1-2.9-6.1-6-8.9-9.2c-5.5-6.3-10.7-12.9-15.5-19.8c-4.8-7-9.3-14.2-13.2-21.7
				c-3.9-7.5-7.3-15.4-10.1-23.4c-2.8-8-4.9-16.2-6.3-24.5c-0.2-1-0.3-2.1-0.5-3.1C148,92.6,147.7,92.6,147.7,92.8L147.7,92.8z"/>
			<path class="st0" d="M144.7,150.1c-1.6-1.4-3.3-2.6-5-3.9c-1.6-1.3-3.2-2.6-4.7-4c-1.4-1.3-2.8-2.7-4.1-4.2
				c-1.2-1.3-2.4-2.7-3.1-4.4c-0.2-0.5-0.4-0.9-0.5-1.4c-0.1-0.2-0.2-0.6-0.1-0.9c0.1-0.3,0.4-0.3,0.7-0.2c1,0.3,1.8,0.9,2.6,1.5
				c2.5,1.7,4.4,4.1,6.4,6.4c3,3.4,5.5,7.3,7.2,11.4C144.3,150.8,144.9,150.5,144.7,150.1c-1.7-4-4-7.7-6.9-10.9
				c-2.2-2.5-4.3-5.1-7.1-6.9c-0.6-0.4-4-2.8-4-0.7c0,0.7,0.4,1.5,0.6,2.2c0.4,0.9,0.9,1.7,1.5,2.5c1.2,1.5,2.5,2.9,3.9,4.3
				c1.8,1.8,3.7,3.5,5.7,5.1c2,1.6,4,3.2,6.1,4.6C144.7,150.3,144.7,150.1,144.7,150.1L144.7,150.1z"/>
			<path class="st0" d="M148.6,154.3c-6,0.1-11.4-2-16.6-4.7c-2.6-1.3-5.1-2.7-7.7-3.9c-1.2-0.6-2.5-1.1-3.7-1.5
				c-1.2-0.4-2.5-0.9-3.8-1.1c-1.6-0.2-3.3,0.6-3.6,2.3c-0.4,2.1,1.5,3.6,2.9,4.7c4.6,3.5,10.3,4.5,15.9,5.3
				c2.7,0.4,5.5,0.3,8.2,0.1c1.5-0.1,2.9-0.2,4.4-0.4c1.3-0.1,2.7-0.2,4-0.4c0.3,0,0.2-0.4-0.1-0.5c-2.3-0.1-4.7,0.3-7,0.5
				c-2.4,0.2-4.8,0.3-7.2,0.2c-2.5-0.1-5.1-0.6-7.6-1.1c-2.7-0.5-5.4-1.3-7.8-2.7c-1.2-0.6-2.2-1.4-3.3-2.2
				c-0.8-0.7-1.6-1.4-1.9-2.4c-0.5-2,1.4-3.1,3.2-2.7c2.6,0.5,5.2,1.6,7.6,2.8c2.4,1.1,4.7,2.4,7.1,3.6c5.2,2.6,11,5.2,17,4.4
				C148.8,154.6,148.8,154.3,148.6,154.3L148.6,154.3z"/>
			<path class="st0" d="M145.5,154.9c1.3-0.2,2.5-0.4,3.8-0.3c1.3,0.1,2.6,0.4,4,0.7c1.3,0.3,2.5,0.5,3.8,0.9
				c0.6,0.2,1.2,0.3,1.9,0.5c0.6,0.2,1.2,0.4,1.8,0.4c0.3,0,0.4-0.4,0.1-0.5c-0.5-0.3-1.2-0.4-1.8-0.6c-0.7-0.2-1.3-0.4-2-0.5
				c-1.4-0.3-2.7-0.6-4.1-0.9c-2.5-0.4-5.1-0.9-7.6,0C145.1,154.6,145.2,154.9,145.5,154.9L145.5,154.9z"/>
			<path class="st0" d="M162.1,164.1c-3,0.6-6,1.2-9.1,1.2c-3,0.1-6.1-0.1-9.1-0.5c-3-0.4-6-1-9-1.6c-2.1-0.5-4.1-1.1-6.2-0.7
				c-1.4,0.3-2.9,1-2.9,2.6c0,2,1.7,3.3,3.3,4c1,0.4,2,0.6,3.1,0.9c1.3,0.3,2.6,0.7,3.9,0.8c3,0.4,6,0.3,8.9,0
				c5.7-0.6,11.8-2,16.2-6c0.2-0.2-0.1-0.6-0.3-0.4c-4,3.1-8.7,4.7-13.7,5.4c-2.7,0.4-5.5,0.6-8.3,0.5c-2.6-0.1-5-0.7-7.6-1.3
				c-1.9-0.5-4.1-1.1-4.8-3.2c-0.5-1.7,1.1-2.5,2.5-2.7c2.2-0.3,4.3,0.5,6.4,0.9c2.7,0.6,5.5,1.1,8.2,1.4c3.1,0.4,6.2,0.6,9.3,0.5
				c3.1-0.1,6.3-0.5,9.2-1.6C162.3,164.3,162.2,164.1,162.1,164.1L162.1,164.1z"/>
			<path class="st0" d="M160.5,164.9c0.8-0.1,1.5-0.4,2.3-0.6c0.8-0.2,1.7-0.3,2.6-0.4c1.7-0.1,3.4,0,5.1,0.3
				c1.7,0.3,3.3,0.8,4.8,1.5c0.7,0.4,1.5,0.8,2.2,1.2c0.7,0.4,1.3,1,2,1.4c0.2,0.1,0.5-0.1,0.4-0.4c-0.5-0.7-1.2-1.1-1.9-1.6
				c-0.7-0.5-1.5-0.9-2.3-1.3c-1.6-0.7-3.3-1.3-5-1.6c-1.7-0.3-3.5-0.4-5.3-0.2c-0.9,0.1-1.7,0.2-2.5,0.4c-0.8,0.2-1.7,0.4-2.4,0.9
				C160.3,164.7,160.3,164.9,160.5,164.9L160.5,164.9z"/>
			<path class="st0" d="M176.6,132.2c0.5-5.3,0.5-10.6,0.9-15.9c0.3-3.5,0.7-6.9,3-9.7c0.6-0.7,1.4-1.6,2.4-1.7
				c1.1,0,1.5,1.4,1.7,2.3c1,4.2-0.3,8.4-2,12.2c-1.9,4.3-4.6,8.3-6.2,12.7c-0.1,0.2,0.3,0.4,0.4,0.2c2-4.1,4.3-8,6.2-12.2
				c1.8-3.9,3.1-8.2,2.3-12.6c-0.2-1.1-0.6-2.6-1.7-3.1c-0.9-0.4-1.8,0.1-2.5,0.7c-2.3,1.9-3.4,5.1-3.8,7.9
				c-0.4,3.1-0.5,6.2-0.6,9.4c-0.1,3.3-0.3,6.5-0.3,9.8C176.4,132.4,176.6,132.4,176.6,132.2L176.6,132.2z"/>
			<path class="st0" d="M172.5,133.2c1.2,3.8,1.8,7.8,1.7,11.8c0,0.1,0.2,0.2,0.2,0c0.3-2,0.1-3.9-0.2-5.9c-0.3-2.1-0.8-4.1-1.5-6.1
				C172.8,133,172.5,133,172.5,133.2L172.5,133.2z"/>
			<path class="st0" d="M173.4,135.3c-0.6-2.4-2.1-4.4-3.4-6.5c-1.4-2.3-2.5-4.7-3.2-7.3c-0.7-2.7-1-5.4-1.2-8.1
				c-0.2-2.6-0.6-5.3,0.1-7.9c0.3-1,0.7-2.1,1.4-2.9c0.3-0.4,0.9-0.9,1.5-0.7c0.9,0.4,1.1,2.2,1.2,3c0.2,1.3,0.2,2.5,0.2,3.8
				c0,2,0.2,4,0.2,6c0.1,3.2,0.2,6.4,0.5,9.5c0.3,3.1,0.6,6.3,1.6,9.3c0.1,0.3,0.5,0.2,0.4-0.1c-0.6-3-1.2-6.1-1.5-9.2
				c-0.3-3.1-0.4-6.1-0.5-9.2c-0.1-2.1-0.2-4.3-0.3-6.4c0-1.3-0.1-2.7-0.3-4c-0.2-1-0.4-2.5-1.3-3.1c-1.2-0.8-2.4,0.7-2.9,1.6
				c-1.2,2.1-1.4,4.5-1.3,6.9c0.1,2.9,0.4,5.9,0.9,8.7c0.6,3.1,1.5,6.1,3.1,8.8c1.5,2.6,3.3,5,4.5,7.8
				C173.3,135.5,173.5,135.4,173.4,135.3L173.4,135.3z"/>
			<path class="st0" d="M178.4,137.4c-1.3,3.2-2.1,6.6-2.6,10c-0.5,3.3-0.9,6.8-0.7,10.1c0,0.3,0.4,0.3,0.4,0c0.1-1.7,0.1-3.3,0.2-5
				c0.1-1.8,0.4-3.5,0.6-5.2c0.5-3.3,1.4-6.6,2.3-9.8C178.7,137.3,178.5,137.2,178.4,137.4L178.4,137.4z"/>
			<path class="st0" d="M177.8,140c1.1-2.2,1.7-4.5,2.3-6.9c0.6-2.4,1.2-4.7,2.1-6.9c0.9-2.3,2-4.5,3.2-6.5c1.1-1.9,2.3-3.7,3.7-5.4
				c0.5-0.6,1.3-1.5,2.2-1.4c0.6,0.1,0.5,0.7,0.5,1.2c-0.1,1.2-0.5,2.3-0.9,3.4c-1.6,3.9-3.8,7.5-6.3,10.8
				c-2.8,3.7-5.4,7.4-7.1,11.7C177.5,140,177.7,140.1,177.8,140c2-4,4.4-7.7,7.1-11.3c2.6-3.5,4.9-7.2,6.6-11.2
				c0.5-1.1,0.9-2.3,1-3.6c0.1-1.2-0.6-2-1.8-1.6c-0.9,0.3-1.6,1.1-2.1,1.8c-0.6,0.8-1.2,1.6-1.7,2.4c-1.5,2.1-2.8,4.3-3.9,6.7
				c-1.2,2.5-2.1,5.2-2.9,7.9c-0.8,3-1.3,6-2.5,8.9C177.5,140,177.7,140.2,177.8,140L177.8,140z"/>
			<path class="st0" d="M151.4,134.1c2.8,1.5,5.7,3,8.2,5c1.1,0.9,2.1,1.8,3,2.8c0.5,0.6,0.9,1.2,1.4,1.8c0.4,0.6,0.6,1.2,1,1.7
				c0.2,0.2,0.4,0,0.4-0.2c-0.1-0.7-0.6-1.3-1-1.9c-0.4-0.6-0.8-1.1-1.2-1.6c-0.9-1.1-2-2.1-3.1-2.9c-2.6-2-5.6-3.4-8.6-4.9
				C151.4,133.8,151.3,134,151.4,134.1L151.4,134.1z"/>
			<path class="st0" d="M153.1,135c-4.1-3.3-8.3-6.5-11.7-10.6c-1.7-1.9-3.2-4-4.5-6.3c-0.6-1.1-1.2-2.3-1.7-3.5
				c-0.4-1-0.7-2-1.3-2.9c-0.4-0.6-1.1-1.2-1.9-1.4c-0.8-0.1-1.6,0.4-2,1.1c-1.1,1.6-0.9,3.9-0.5,5.7c0.6,2.3,1.9,4.3,3.5,6.1
				c1.6,1.8,3.5,3.5,5.5,4.9c2.3,1.7,4.8,3.1,7.3,4.4c2.6,1.4,5.3,2.5,8.2,3.1c0.4,0.1,0.6-0.5,0.2-0.6c-4.7-0.9-9.2-3.4-13.2-5.9
				c-2-1.3-3.9-2.7-5.6-4.3c-1.7-1.6-3.3-3.4-4.4-5.5c-1-1.9-1.5-4.2-1.1-6.3c0.2-1,0.9-2.3,2-2.2c1,0,1.8,1.2,2.2,2
				c0.4,1,0.8,2,1.2,3c0.5,1.1,1,2.1,1.6,3.1c1.2,2,2.5,3.8,4,5.5c3.5,4.1,7.7,7.7,12.1,10.7C153,135.2,153.2,135,153.1,135
				L153.1,135z"/>
			<path class="st0" d="M143.8,113.8c1,1.4,2,2.8,3.1,4.1c1.2,1.4,2.6,2.5,4.1,3.6c1.4,1.1,2.7,2.2,3.8,3.5c0.6,0.7,1.1,1.4,1.6,2.1
				c0.5,0.7,0.8,1.6,1.3,2.3c0.1,0.2,0.4,0.1,0.4-0.2c-0.2-0.8-0.7-1.5-1.1-2.2c-0.4-0.7-0.9-1.3-1.3-1.9c-1.1-1.4-2.4-2.6-3.8-3.7
				c-1.4-1.1-2.8-2.2-4.1-3.5c-1.3-1.4-2.5-2.9-3.6-4.4C144,113.5,143.7,113.7,143.8,113.8L143.8,113.8z"/>
			<path class="st0" d="M145.8,116.1c-2.2-3.1-4.5-6.1-6.4-9.4c-1-1.8-1.8-3.7-2.4-5.7c-0.5-1.8-0.8-3.8-1-5.7
				c-0.1-0.9-0.2-1.9,0-2.8c0.1-0.6,0.5-1.6,1.1-1.9c0.9-0.5,1.6,1.5,1.8,2.1c1.2,3.4,2.1,6.8,2.8,10.3c0.5,2.3,0.9,4.5,1.4,6.8
				c0.5,2.2,1.2,4.5,2.3,6.5c0.1,0.2,0.5,0.1,0.4-0.2c-0.8-2.1-1.6-4.2-2.1-6.4c-0.6-2.2-1-4.4-1.5-6.6c-0.8-3.7-1.7-7.4-3.2-10.9
				c-0.3-0.7-0.8-2-1.7-2c-1.3-0.1-1.9,1.9-2,2.8c-0.2,1.8,0.1,3.7,0.4,5.5c0.3,2.2,1,4.3,2,6.3c1.9,4.2,4.8,7.9,7.7,11.5
				C145.7,116.4,145.9,116.3,145.8,116.1L145.8,116.1z"/>
			<path class="st0" d="M160.2,121c0.1,1.7,0.3,3.4,0.7,5c0.4,1.7,0.9,3.4,1.3,5.2c0.3,1.8,0.4,3.5,0.5,5.3c0,0.9,0.1,1.8,0.1,2.7
				c0,0.8,0,1.8,0.3,2.6c0.1,0.2,0.3,0.1,0.4-0.1c0.2-0.8,0-1.7,0-2.5c-0.1-0.9-0.1-1.8-0.2-2.7c-0.1-1.7-0.2-3.4-0.5-5.1
				c-0.3-1.7-0.9-3.4-1.3-5.1c-0.5-1.8-0.8-3.6-1-5.4C160.4,120.9,160.2,120.9,160.2,121L160.2,121z"/>
			<path class="st0" d="M160.7,124.2c0.3-0.6,0.1-1.3-0.1-1.9c-0.3-0.9-0.7-1.8-1-2.7c-0.6-1.9-1.1-3.8-1.5-5.8
				c-0.4-2-0.6-3.9-0.8-5.9c-0.2-1.9-0.3-3.8-0.3-5.7c0-1,0.1-2,0.2-3c0.1-0.8,0.3-1.6,0.6-2.4c0.3-0.6,0.7-1.2,1.3-1.5
				c0.8-0.5,1.4,0.1,1.7,0.9c0.3,0.9,0.2,2,0.1,3c0,1-0.1,2-0.2,3c-0.2,2-0.5,4-0.6,6c-0.1,2.3-0.1,4.7-0.1,7c0,2.3-0.1,4.7,0.2,7.1
				c0,0.3,0.4,0.3,0.4,0c0-2.2-0.1-4.5-0.1-6.7c0-2.3,0-4.5,0.1-6.8c0.1-2.2,0.4-4.3,0.6-6.5c0.1-1.1,0.2-2.2,0.2-3.2
				c0-1,0.1-2-0.2-3c-0.3-1.1-1.2-1.8-2.3-1.1c-1.1,0.7-1.6,2-1.8,3.2c-0.9,4-0.4,8.3,0.1,12.3c0.3,2.3,0.7,4.6,1.3,6.8
				c0.3,1.2,0.7,2.3,1.1,3.4c0.2,0.5,0.4,1,0.6,1.4c0.3,0.6,0.6,1.3,0.4,2.1C160.5,124.2,160.6,124.2,160.7,124.2L160.7,124.2z"/>
			<path class="st0" d="M148.5,96.8c-0.8-3.1-1.8-6.2-2.8-9.3c-1-3-2.2-6-2.9-9.1c-0.7-3.1-0.9-6.4-0.8-9.6c0.1-1.6,0.2-3.3,0.5-4.9
				c0.2-1.4,0.4-2.9,0.9-4.2c0.2-0.6,0.7-1.5,1.5-1.3c0.7,0.2,1.2,0.9,1.6,1.4c1,1.5,1.6,3.3,1.6,5c0,4.7-0.4,9.3-0.6,14
				c-0.1,3.1-0.2,6.2-0.1,9.3c0.1,2.9,0.2,5.9,0.8,8.8C148.2,97.1,148.6,97.1,148.5,96.8c-0.5-5.7-0.7-11.4-0.5-17.1
				c0.2-5,0.6-10,0.5-14.9c0-1.8-0.6-3.6-1.6-5.1c-0.6-1-1.9-2.4-3.2-1.6c-0.7,0.5-1,1.5-1.2,2.3c-0.4,1.5-0.6,3.1-0.8,4.7
				c-0.4,3.3-0.5,6.7-0.1,10c0.4,3.7,1.6,7.3,2.9,10.8c1.3,3.7,2.5,7.4,3.7,11C148.2,97.1,148.6,97,148.5,96.8L148.5,96.8z"/>
			<path class="st0" d="M129.7,76.5c3.6,4.6,8.1,8.3,11.9,12.7c1.5,1.8,3,3.6,4,5.7c1,1.9,1.8,4,2.5,6c0.8,2,1.5,4,2.2,6
				c0.1,0.3,0.5,0.2,0.5-0.1c-0.4-1.8-1.1-3.6-1.7-5.3c-0.8-2.1-1.6-4.1-2.6-6.1c-2.2-4.6-6-8.3-9.7-11.8c-2.4-2.3-4.7-4.6-6.8-7.1
				C129.7,76.2,129.5,76.4,129.7,76.5L129.7,76.5z"/>
			<path class="st0" d="M133.7,80.6c-1.9-2-4.2-3.7-6.3-5.6c-2-1.8-4.1-3.7-5.8-5.8c-1.6-1.9-3.1-4.1-4-6.5
				c-0.5-1.4-0.8-2.8-1.1-4.3c-0.2-1.3-0.4-2.7-0.3-4c0.1-0.5,0.2-1.1,0.6-1.4c0.6-0.4,1.5,0.2,1.9,0.7c1.5,1.5,2.5,3.6,3.4,5.5
				c1,2.1,1.9,4.2,2.8,6.3c1,2.4,1.9,4.8,3,7.1c1,2.2,1.9,4.3,3.3,6.2c0.1,0.2,0.4,0,0.3-0.2c-2.4-4.1-4.2-8.5-6-12.9
				c-0.9-2.2-1.9-4.4-3-6.6c-1-1.9-2.1-3.9-3.5-5.5c-0.7-0.8-2.1-1.6-2.7-0.4c-0.6,1.1-0.5,2.6-0.4,3.7c0.1,1.1,0.2,2.2,0.5,3.3
				c0.5,2.6,1.7,5,3.2,7.1c1.8,2.6,4,4.8,6.4,6.9c1.3,1.1,2.6,2.3,3.9,3.4c1.2,1.1,2.5,2.2,3.8,3.1
				C133.7,80.9,133.9,80.7,133.7,80.6L133.7,80.6z"/>
			<path class="st0" d="M126.3,79.4c2.6,2.3,5.8,3.8,8.8,5.5c1.5,0.8,2.9,1.7,4.3,2.7c0.7,0.5,1.4,1.1,2,1.7c0.6,0.6,1,1.4,1.7,1.8
				c0.1,0.1,0.3-0.1,0.2-0.2c-0.2-0.7-0.9-1.4-1.4-1.9c-0.5-0.6-1.1-1.1-1.7-1.5c-1.4-1.1-2.9-1.9-4.4-2.7c-3.2-1.7-6.6-3.1-9.4-5.5
				C126.3,79.2,126.2,79.3,126.3,79.4L126.3,79.4z"/>
			<path class="st0" d="M127.6,80.2c-3.1-1.9-5.9-4-8.8-6.1c-1.5-1.1-3-2.1-4.3-3.3c-1-0.9-1.8-2-2.5-3.1c-0.5-0.9-1.2-2-1.1-3.1
				c0.1-0.6,0.5-0.9,1-1c0.9-0.2,1.8,0.8,2.4,1.3c2.4,2.1,4.3,4.9,6.2,7.5c1.1,1.5,2.1,3,3.3,4.4c1.1,1.4,2.2,2.7,3.6,3.8
				c0.2,0.2,0.5-0.2,0.3-0.4c-1.2-1.2-2.4-2.5-3.5-3.8c-1.2-1.5-2.3-3-3.4-4.5c-2-2.7-4-5.6-6.7-7.8c-0.6-0.5-1.2-1.1-2-1.1
				c-0.5,0-1.1,0.2-1.4,0.6c-0.7,0.8-0.3,2,0,2.8c1.2,2.8,3.4,5.1,5.9,6.8c1.6,1.1,3.3,2.2,4.9,3.4c1.9,1.4,3.9,2.7,5.9,3.8
				C127.6,80.5,127.7,80.3,127.6,80.2L127.6,80.2z"/>
			<path class="st0" d="M154.1,94.2c-1.1,3-2.1,6-2.7,9.2c-0.4,2.4-0.7,4.9-0.3,7.4c0,0.2,0.4,0.2,0.4-0.1c-0.2-5.6,1-11.1,2.8-16.4
				C154.5,94.1,154.2,94,154.1,94.2L154.1,94.2z"/>
			<path class="st0" d="M154.5,94c1.8-4.5,4.5-8.6,7.8-12.3c3.1-3.5,6.5-7,7.8-11.6c0.3-1.2,0.6-3.3-0.6-4.1
				c-1.3-0.9-2.8,0.4-3.6,1.3c-2.8,3-5,6.5-6.5,10.3c-1.1,2.6-1.9,5.2-2.8,7.8c-0.9,2.8-1.7,5.6-2.2,8.4
				C154.3,94.1,154.6,94.2,154.5,94c1.1-4.6,2.5-9.2,4.1-13.6c1.5-4.1,3.5-8,6.4-11.3c0.8-1,2-2.6,3.4-2.7c1.9-0.2,1.3,2.9,1,4
				c-1.4,4.4-4.6,7.9-7.6,11.3c-3.2,3.7-5.8,7.8-7.4,12.4C154.3,94,154.5,94.1,154.5,94L154.5,94z"/>
			<path class="st0" d="M155.8,88.4c0.5-2.7,0.2-5.6-0.2-8.3c-0.4-2.8-0.8-5.6-1-8.4c-0.2-2.8-0.1-5.6,0.7-8.2
				c0.3-0.9,0.6-1.8,1-2.7c0.3-0.8,0.8-1.7,1.4-2.3c0.3-0.3,1-0.8,1.3-0.2c0.2,0.4,0.2,1.1,0.2,1.6c0,1.4-0.2,2.9-0.4,4.3
				c-0.3,2.2-0.6,4.4-0.9,6.6c-0.4,2.5-0.7,5-1.1,7.5c-0.4,2.9-0.9,5.8-1.1,8.7c0,0.2,0.3,0.2,0.3,0c0.5-2.8,0.9-5.6,1.3-8.4
				c0.3-2.4,0.7-4.9,1-7.3c0.3-2.4,0.6-4.8,1-7.2c0.2-1.5,0.5-3,0.4-4.5c0-0.7-0.1-2.2-1.1-2.1c-1.6,0.1-2.5,2.3-2.9,3.5
				c-0.9,2.3-1.5,4.6-1.7,7.1c-0.2,3.3,0.3,6.6,0.8,9.9c0.3,1.8,0.5,3.5,0.7,5.3c0.1,1.7,0.1,3.4,0.2,5.2
				C155.6,88.4,155.8,88.5,155.8,88.4L155.8,88.4z"/>
		</g>
		<g>
			<path class="st0" d="M188.9,33.8c2.2,1.3,4.2,3.1,6,4.9c1.7,1.7,3.3,3.6,4.7,5.5c2.8,3.8,5.1,8.1,6.7,12.6
				c1.7,4.8,2.5,9.8,2.5,14.9c0,5.6-1,11.2-2.2,16.7c-0.7,3-1.5,6-2.4,8.9c-0.9,3-2.1,5.9-3,8.8c-0.1,0.3,0.3,0.5,0.5,0.2
				c1.2-2.5,2.1-5.2,2.9-7.8c0.9-2.7,1.7-5.4,2.3-8.2c1.3-5.5,2.4-11.2,2.6-16.9c0.2-5.2-0.4-10.4-2-15.4c-1.5-4.6-3.7-8.9-6.5-12.8
				c-1.6-2.2-3.3-4.2-5.2-6.2c-2-2.1-4.2-4-6.8-5.4C188.9,33.5,188.8,33.7,188.9,33.8L188.9,33.8z"/>
			<path class="st0" d="M238.2,58.9c-0.9,2.5-1.9,5-3,7.5c-0.9,2.3-1.8,4.8-3.7,6.5c-0.9,0.8-1.9,1.4-3,2.1c-1,0.6-2.1,1.3-3.2,1.9
				c-1.7,1-3.5,1.8-5.3,2.6c-1.8,0.8-3.5,1.7-5.1,3c0.2,0.1,0.3,0.2,0.5,0.4c1.6-2.3,2.3-5.1,3.7-7.5c1-1.7,2.4-3.1,4-4.3
				c3.3-2.5,7.2-4.2,10.6-6.8c1.9-1.4,3.6-3.1,4.7-5.1c0.2-0.3-0.3-0.5-0.5-0.3c-2.4,3.7-6,6-9.7,8.2c-3.3,2-7,4-9.2,7.3
				c-1.7,2.6-2.4,5.6-4.2,8.2c-0.2,0.3,0.2,0.6,0.5,0.4c3.1-2.4,6.8-3.5,10.2-5.4c1.1-0.6,2.2-1.3,3.2-2c0.9-0.6,1.9-1.2,2.8-1.9
				c1.8-1.5,2.7-3.6,3.5-5.7c1.2-2.9,2.2-5.8,3.2-8.8C238.4,58.8,238.2,58.8,238.2,58.9L238.2,58.9z"/>
			<path class="st0" d="M216.2,81.3c-1,1.3-2.4,2.3-3.6,3.4c-1.2,1.1-2.2,2.2-3.2,3.5c-1,1.2-1.9,2.4-2.7,3.7
				c-0.4,0.6-0.7,1.2-1,1.8c-0.3,0.6-0.6,1.2-0.8,1.8c-0.1,0.3,0.4,0.5,0.5,0.2c0.3-0.5,0.6-1.2,0.9-1.7c0.3-0.6,0.7-1.3,1.1-1.9
				c0.8-1.4,1.8-2.7,2.8-3.9c1-1.2,2-2.3,3.1-3.4c1.1-1.1,2.4-2,3.1-3.4C216.4,81.3,216.3,81.2,216.2,81.3L216.2,81.3z"/>
			<path class="st0" d="M201,86.5c0.7,2.6,1.1,5.2,1.4,7.9c0.2,1.5,0.2,3,0.3,4.5c0,0.6,0.1,1.3,0.1,1.9c0,0.7-0.1,1.3-0.2,2
				c0,0.3,0.4,0.5,0.5,0.2c0.6-1.1,0.4-2.6,0.3-3.7c-0.1-1.6-0.1-3.2-0.3-4.8c-0.3-2.8-0.8-5.5-1.8-8.1
				C201.1,86.4,201,86.4,201,86.5L201,86.5z"/>
			<path class="st0" d="M201.3,87c-0.4-2.2-0.1-4.3,0-6.5c0.1-2.1-0.3-4-0.9-6c-0.3-0.9-0.6-1.8-1.1-2.6c-0.5-0.9-1.2-1.6-1.8-2.4
				c-1.2-1.6-2.3-3.2-3.3-4.9c-1.2-2-2.2-4-3-6.2c-0.1-0.3-0.6-0.3-0.6,0.1c-0.1,1.7,0.4,3.4,0.7,5.1c0.3,1.9,0.7,3.8,1.1,5.6
				c0.9,4.1,1.7,8.3,4.2,11.8c1.4,2,3.5,3.6,4.5,6c0.1,0.2,0.4,0.1,0.4-0.1c-0.7-2-2.1-3.4-3.5-4.9c-1.4-1.6-2.5-3.6-3.2-5.6
				c-0.7-2-1.2-4.1-1.6-6.2c-0.4-1.8-0.8-3.6-1.1-5.4c-0.3-2-0.9-4.1-0.8-6.2c-0.2,0-0.4,0.1-0.6,0.1c1.3,3.7,3.3,7.1,5.7,10.2
				c1.2,1.6,2.7,3.1,3.3,5.1c0.7,2,1.2,4.1,1.2,6.2c0,2.3-0.5,4.6,0.3,6.8C201.2,87.1,201.3,87.1,201.3,87L201.3,87z"/>
			<path class="st0" d="M226.1,54.6c-3.5,0.4-6.6,2.3-9.2,4.7c-2.5,2.3-4.5,5.1-6,8.2c-0.8,1.8-1.5,3.6-2,5.5
				c-0.1,0.4,0.5,0.5,0.6,0.2c1.2-4.1,2.9-8,5.7-11.2c2.8-3.3,6.7-6.2,10.9-7.1C226.2,54.8,226.2,54.6,226.1,54.6L226.1,54.6z"/>
			<path class="st0" d="M226.3,54.4c-0.1-1,0.3-2,1.1-2.5c0.8-0.5,1.9-0.6,2.7,0c0.7,0.5,1.1,1.5,1,2.3c-0.1,0.9-0.8,1.6-1.6,1.8
				c-1.2,0.3-2.4-0.2-2.9-1.3c-0.1-0.3-0.6,0-0.5,0.3c0.5,1.2,1.8,1.8,3.1,1.6c1-0.2,2-0.9,2.3-2c0.3-1-0.1-2.1-0.9-2.8
				c-0.8-0.8-2-0.9-3-0.4c-1.1,0.5-1.9,1.8-1.4,3C226.2,54.5,226.3,54.5,226.3,54.4L226.3,54.4z"/>
			<path class="st0" d="M218.6,51c-0.5-0.8-0.5-1.8,0-2.6c0.5-0.8,1.5-1.4,2.5-1.2c0.9,0.2,1.8,1,2,1.9c0.2,0.8-0.1,1.7-0.8,2.2
				c-0.9,0.7-2.3,0.8-3.1-0.1c-0.2-0.2-0.6,0.1-0.4,0.4c0.9,0.9,2.3,1,3.4,0.3c0.9-0.5,1.5-1.5,1.4-2.6c-0.1-1.1-0.9-2-2-2.4
				c-1.1-0.4-2.3,0-3,0.9c-0.7,0.9-0.9,2.3,0,3.2C218.5,51.1,218.6,51,218.6,51L218.6,51z"/>
			<path class="st0" d="M185.1,36.3c-0.2,0.9-0.8,1.7-1.7,1.9c-0.9,0.2-1.9,0.1-2.5-0.6c-0.6-0.6-0.7-1.6-0.5-2.4
				c0.2-1,1.1-1.6,2.1-1.6c1.2,0,2.4,0.9,2.5,2.2c0,0.3,0.5,0.3,0.5,0c-0.1-1.3-1.1-2.4-2.4-2.6c-1.2-0.2-2.4,0.3-2.9,1.4
				c-0.4,0.9-0.3,2,0.2,2.9c0.6,0.9,1.7,1.3,2.7,1.1c1.2-0.2,2.2-1.1,2.2-2.3C185.2,36.3,185.1,36.3,185.1,36.3L185.1,36.3z"/>
			<path class="st0" d="M191,28.6c-0.9,0.3-1.9,0.1-2.6-0.6c-0.7-0.7-1-1.8-0.6-2.7c0.4-0.8,1.3-1.4,2.2-1.5c0.9,0,1.7,0.5,2,1.3
				c0.5,1,0.2,2.4-0.7,3c-0.3,0.2,0,0.6,0.3,0.5c1.1-0.7,1.5-2,1.1-3.2c-0.3-1-1.2-1.8-2.2-2c-1.1-0.1-2.2,0.5-2.8,1.4
				c-0.7,1-0.5,2.2,0.2,3.1c0.7,1,2.1,1.4,3.2,0.8C191.1,28.7,191.1,28.6,191,28.6L191,28.6z"/>
			<path class="st0" d="M214.4,15c-0.9,0.3-1.9,0.1-2.6-0.6c-0.7-0.7-1-1.8-0.6-2.7c0.4-0.8,1.3-1.4,2.2-1.5c0.9,0,1.7,0.5,2,1.3
				c0.5,1,0.2,2.4-0.7,3c-0.3,0.2,0,0.6,0.3,0.5c1.1-0.7,1.5-2,1.1-3.2c-0.3-1-1.2-1.8-2.2-2c-1.1-0.1-2.2,0.5-2.8,1.4
				c-0.7,1-0.5,2.2,0.2,3.1c0.7,1,2.1,1.4,3.2,0.8C214.6,15.1,214.5,15,214.4,15L214.4,15z"/>
			<path class="st0" d="M188.9,33.7c-0.7,0.4-1.4,0.4-2.1,0c-0.6-0.4-1.1-1.2-0.9-1.9c0.1-0.7,0.7-1.4,1.4-1.6
				c0.7-0.2,1.3,0.1,1.7,0.6c0.6,0.7,0.6,1.8,0,2.4c-0.2,0.2,0.1,0.6,0.4,0.4c0.7-0.8,0.8-1.9,0.3-2.8c-0.4-0.7-1.3-1.2-2.1-1.1
				c-0.9,0.1-1.6,0.8-1.9,1.6c-0.3,0.9,0,1.8,0.8,2.4c0.4,0.3,0.8,0.5,1.3,0.5c0.5,0,1-0.1,1.3-0.5C189.1,33.8,189,33.7,188.9,33.7
				L188.9,33.7z"/>
			<path class="st0" d="M219.5,21c-0.7-0.3-1.2-0.8-1.3-1.5c-0.1-0.7,0.1-1.5,0.7-1.9c0.5-0.4,1.3-0.4,1.9-0.2c0.7,0.3,1.1,1,1,1.8
				c-0.1,1-1,1.8-2,1.7c-0.3,0-0.3,0.5,0,0.5c1.1,0.1,2.1-0.7,2.3-1.7c0.3-0.9-0.1-2-0.9-2.5c-0.7-0.4-1.6-0.4-2.3-0.1
				c-0.8,0.4-1.2,1.3-1.1,2.1c0,0.5,0.2,0.9,0.5,1.3c0.3,0.4,0.7,0.6,1.2,0.7C219.6,21.2,219.6,21,219.5,21L219.5,21z"/>
			<path class="st0" d="M218.6,51c-1.9,2-3.4,4.3-4.5,6.8c-1.1,2.4-1.9,5.1-2,7.7c0,0.1,0.2,0.2,0.3,0c0.5-2.6,1.1-5.2,2.1-7.6
				c1.1-2.4,2.5-4.7,4.3-6.7C218.9,51,218.7,50.8,218.6,51L218.6,51z"/>
			<path class="st0" d="M199,59.1c2.6,2.9,5,6.1,6.7,9.6c1.5,3.2,2.5,6.5,2.9,10c0,0.3,0.4,0.3,0.4,0c0.1-1.7-0.3-3.4-0.8-5
				c-0.5-1.8-1.2-3.5-2-5.1c-1.7-3.6-4.3-6.7-7-9.6C199,58.9,198.9,59,199,59.1L199,59.1z"/>
			<path class="st0" d="M200.4,60.5c-1.5-1.2-2.1-2.9-2.7-4.6c-0.6-1.6-1.3-3.1-2.4-4.5c-1.2-1.4-2.6-2.7-3.9-4
				c-1.4-1.4-2.9-2.9-4.3-4.3c-0.2-0.2-0.7,0.1-0.5,0.4c1.2,1.6,1.9,3.4,2.7,5.2c0.7,1.7,1.5,3.3,2.7,4.7c1.2,1.4,2.6,2.7,4,3.9
				c1.4,1.2,2.9,2.4,4.3,3.6c0.2,0.2,0.5-0.1,0.3-0.3c-1.2-1.4-2.8-2.5-4.2-3.7c-1.4-1.1-2.7-2.3-3.9-3.7c-1.2-1.5-2.1-3.2-2.8-5
				c-0.7-1.7-1.4-3.5-2.5-5c-0.2,0.1-0.3,0.2-0.5,0.4c1.4,1.4,2.9,2.9,4.3,4.3c1.3,1.3,2.7,2.6,4,4.1c1.3,1.6,1.9,3.4,2.7,5.2
				C198.2,58.4,199,59.8,200.4,60.5C200.4,60.6,200.5,60.5,200.4,60.5L200.4,60.5z"/>
			<path class="st0" d="M205.9,17.8c0.8,4.2,3.2,8,3.2,12.4c0,2.4-0.4,4.8-0.8,7.1c-0.4,2.3-0.9,4.5-1.6,6.7c0.2,0,0.4,0,0.6,0
				c-0.2-1-0.1-2-0.1-3.1c0-0.9-0.2-1.8-0.4-2.7c-0.4-1.8-1.1-3.5-1.5-5.3c-0.5-3.2,0.2-6.5,0.6-9.6c0.2-1.8,0.4-3.7,0.2-5.5
				c0-0.2-0.4-0.2-0.4,0c0,3.3-0.6,6.7-1,10c-0.2,1.5-0.3,3.1-0.1,4.7c0.2,1.7,0.9,3.4,1.3,5.1c0.3,1.1,0.6,2.2,0.6,3.3
				c0,1.1-0.1,2.2,0.1,3.3c0.1,0.3,0.5,0.3,0.6,0c0.6-2.3,1.2-4.6,1.6-7c0.4-2.3,0.8-4.7,0.7-7c-0.2-4.4-2.7-8.2-3.6-12.4
				C206,17.7,205.9,17.8,205.9,17.8L205.9,17.8z"/>
			<path class="st0" d="M207,43.4c-0.5,2.5-0.9,5-0.9,7.6c-0.1,2.5,0,5.3,1.2,7.6c0.1,0.1,0.2,0,0.2-0.1c-0.5-2.5-0.9-5-0.9-7.6
				c0-2.5,0.3-5,0.6-7.4C207.2,43.3,207,43.2,207,43.4L207,43.4z"/>
			<path class="st0" d="M185.4,36.2c2.4,0.3,4.8,1,7,2c2.1,1,4,2.3,5.8,3.7c0.1,0.1,0.3-0.1,0.2-0.2c-3.4-3.3-8.4-5.1-13-5.7
				C185.3,36,185.3,36.2,185.4,36.2L185.4,36.2z"/>
			<path class="st0" d="M191.1,28.7c1.5,1.9,2.8,3.9,3.9,6.1c1.1,2.1,1.9,4.3,2.9,6.4c0,0.1,0.2,0,0.2-0.1c-0.6-2.3-1.7-4.5-2.9-6.6
				C194,32.5,192.7,30.5,191.1,28.7C191.1,28.6,191.1,28.7,191.1,28.7L191.1,28.7z"/>
			<path class="st0" d="M219.7,20.8c-0.9,7.5-3.9,14.5-6.6,21.4c-1.7,4.3-3.4,8.5-4.1,13c-0.5,3.4-0.8,7-0.4,10.5
				c0,0.3,0.5,0.3,0.5,0c0.2-3.2,0.1-6.4,0.5-9.5c0.3-2.3,0.8-4.6,1.6-6.9c1.8-5.6,4.2-10.9,6.1-16.4c1.3-3.9,2.3-7.9,2.6-12
				C219.9,20.7,219.8,20.7,219.7,20.8L219.7,20.8z"/>
			<path class="st0" d="M220.8,37.3c-1.9,1.5-3.9,3-5.6,4.8c-0.8,0.8-1.6,1.7-2.3,2.6c-0.4,0.5-0.7,1-1.1,1.5
				c-0.3,0.4-0.7,0.9-0.7,1.4c0,0.1,0.1,0.2,0.2,0.1c0.4-0.3,0.6-0.8,0.9-1.2c0.3-0.5,0.7-1,1-1.5c0.7-1,1.6-1.9,2.4-2.8
				c1.7-1.7,3.5-3.3,5.4-4.8C221.1,37.3,220.9,37.2,220.8,37.3L220.8,37.3z"/>
			<path class="st0" d="M220.1,38.1c1.5-1.2,2.6-2.9,3.7-4.5c1.1-1.7,2.1-3.4,3.2-5.1c2-3.1,4.6-5.8,6.9-8.6c1.2-1.5,2.4-3,3.4-4.7
				c-0.2-0.1-0.4-0.1-0.6-0.2c-0.2,7.4-4.9,14.5-10.8,18.7c-0.8,0.6-1.6,1.1-2.5,1.6c-0.9,0.5-1.8,0.9-2.7,1.4
				c-0.2,0.1-0.1,0.4,0.2,0.4c1.7-0.4,3.4-1.5,4.8-2.5c1.6-1.1,3-2.4,4.3-3.8c2.6-2.8,4.8-6.1,6-9.7c0.7-1.9,1.1-4,1.2-6
				c0-0.3-0.4-0.4-0.6-0.2c-1.9,3.1-4.4,5.8-6.7,8.5c-1.1,1.3-2.2,2.6-3.1,4c-1.1,1.6-2,3.3-3.1,4.9c-1.2,2-2.6,3.8-4,5.6
				C219.9,38.1,220.1,38.2,220.1,38.1L220.1,38.1z"/>
			<path class="st0" d="M214.3,15.4c0.7,3.2,1.5,6.4,1.9,9.7c0.2,1.6,0.3,3.1,0.3,4.7c0,1.6-0.3,3.2-0.4,4.8c0,0.1,0.2,0.1,0.2,0
				c0.5-1.5,0.5-3.2,0.6-4.7c0-1.7-0.1-3.3-0.3-5c-0.4-3.3-1.2-6.5-2-9.7C214.5,15.2,214.3,15.3,214.3,15.4L214.3,15.4z"/>
		</g>
		<g>
			<path class="st1" d="M450.6,111.4c-7.6-1.4-15.5-0.1-22.7,2.6c-2.8,1.1-5.5,2.2-8.2,3.6c-3.9,2-7.5,4.5-10.8,7.4
				c-2.5,2.2-4.8,4.7-6.8,7.4c-1.9,2.6-3.7,5.3-5.4,8.1c-3.7,6-7.1,12.3-11.1,18.1c-3.9,5.7-8.4,11.1-14.1,15
				c-0.7,0.5-1.4,0.9-2.1,1.3c-0.3,0.2,0,0.6,0.3,0.5c6-3.1,10.6-8.1,14.6-13.5c4.2-5.7,7.7-11.8,11.3-17.9
				c3.2-5.4,6.5-10.9,10.8-15.5c3-3.1,6.4-5.9,10.1-8.2c3.1-2,6.5-3.5,9.9-4.9c6.5-2.7,13.4-4.4,20.4-3.9c1.2,0.1,2.5,0.2,3.7,0.5
				C450.8,111.8,450.9,111.4,450.6,111.4L450.6,111.4z"/>
			<path class="st1" d="M378.4,168.1c0.1-2.6,1.4-5,1.9-7.6c0.5-2.4,0.5-4.9-0.1-7.3c-0.5-2.1-1.5-4.1-2.8-5.8
				c-1.4-1.8-3.1-3.1-5.1-4.2c-2.6-1.5-5.2-2.9-7.7-4.5c-0.4-0.2-0.7,0.2-0.5,0.5c1.1,2.3,0.3,5,0.2,7.4c-0.2,2.4-0.1,4.8,0.5,7.1
				c0.5,2,1.4,3.9,2.6,5.6c1.2,1.7,2.8,3,4.6,4.2c2.2,1.3,4.5,2.5,6,4.7c0.2,0.3,0.8,0,0.6-0.3c-1-1.9-3-3.1-4.8-4.2
				c-1.9-1.1-3.8-2.2-5.2-3.9c-3.1-3.7-4-8.5-3.6-13.1c0.2-2.6,0.9-5.3-0.2-7.8c-0.2,0.2-0.4,0.4-0.5,0.5c2.1,1.4,4.3,2.7,6.6,3.9
				c2,1.1,4,2.2,5.5,3.9c3.2,3.5,4.3,8.5,3.5,13.1c-0.4,2.6-1.5,5.1-1.6,7.8C378.2,168.2,378.4,168.2,378.4,168.1L378.4,168.1z"/>
			<path class="st1" d="M364.1,139.2c2.7,2.7,4.3,6.2,5.8,9.6c0.7,1.5,1.6,2.9,2.4,4.4c1.2,2.2,2.2,4.5,3.1,6.8c0.5,1.3,1,2.7,1.4,4
				c0.4,1.4,0.7,2.8,1.1,4.1c0.1,0.3,0.5,0.3,0.5-0.1c0-1.2-0.4-2.5-0.8-3.7c-0.4-1.3-0.8-2.5-1.3-3.7c-0.9-2.3-1.8-4.5-2.9-6.7
				c-0.9-1.7-2-3.2-2.8-4.9c-0.8-1.6-1.5-3.3-2.4-4.9c-1.1-1.9-2.3-3.8-4-5.2C364.2,138.9,364,139.1,364.1,139.2L364.1,139.2z"/>
			<path class="st1" d="M407.5,170.8c-3-0.9-6.3-1.1-9.5-1.4c-1.6-0.1-3.2-0.2-4.7-0.3c-2.2-0.1-4.5,0.1-6.7,0
				c-2.8-0.1-5.5-0.6-8.1-1.5c-0.4-0.2-0.6,0.6-0.2,0.7c2.2,0.8,4.5,1.2,6.9,1.3c2.5,0.2,4.9,0,7.3,0c3.3,0,6.5,0.2,9.8,0.6
				c1.7,0.2,3.5,0.4,5.1,0.8C407.6,171.1,407.7,170.8,407.5,170.8L407.5,170.8z"/>
			<path class="st1" d="M378.7,168.2c1,0.1,1.7-0.5,2.5-1c0.9-0.6,1.9-1.1,2.9-1.5c1.9-0.8,4-1.3,6.1-1.5c2.1-0.2,4.4-0.1,6.5,0.4
				c2,0.5,3.6,1.6,5.2,2.8c1.7,1.3,3.4,2.8,5.4,3.7c0-0.2,0-0.4,0.1-0.6c-1.9,0.4-3.6,1.4-5.3,2.3c-1.9,1-4,1.7-6.1,2
				c-2.1,0.3-4.4,0.3-6.5-0.1c-2-0.4-3.7-1.3-5.3-2.5c-1.8-1.3-3.4-2.9-5-4.4c-0.3-0.3-0.8,0.2-0.5,0.5c2.6,2.8,5.8,5.7,9.6,6.8
				c4.1,1.2,8.7,0.6,12.5-1c2.3-1,4.3-2.5,6.7-2.9c0.2,0,0.3-0.4,0.1-0.6c-3.6-1.7-6.1-5-9.9-6.3c-3.9-1.4-8.6-1-12.5,0.4
				c-1.1,0.4-2.2,0.8-3.2,1.4c-0.5,0.3-1,0.6-1.5,0.9c-0.5,0.4-1.1,0.8-1.8,0.9C378.4,167.9,378.5,168.2,378.7,168.2L378.7,168.2z"
				/>
			<path class="st1" d="M388.8,155c0.7-2.4,0.9-5,0.9-7.6c0-2.5-0.3-5.1-0.9-7.6c-1.1-4.6-3.1-9-6-12.7c-1.5-2-3.2-3.9-5.3-5.4
				c-0.2-0.2-0.5,0.2-0.3,0.4c3.3,3.1,6.1,6.4,8.2,10.5c2.2,4.3,3.4,9.1,3.6,13.9c0.1,2.9-0.3,5.6-0.7,8.5
				C388.4,155.1,388.7,155.2,388.8,155L388.8,155z"/>
			<path class="st1" d="M389.4,153.8c0.7-1.6,1.4-3.2,2-4.8c0.7-1.6,1.4-3.2,2-4.9c1.1-3,1.4-6.2,0.5-9.3c-0.7-2.7-2.3-5.1-4.3-7
				c-2-1.9-4.6-3-7.1-4c-1.7-0.7-3.4-1.4-5-2.1c-0.1-0.1-0.3,0.1-0.4,0.2c-0.1,0.4,0.1,1,0.2,1.4c0.2,1,0.4,1.9,0.5,2.9
				c0.2,1.4,0.3,2.8,0.4,4.2c0,1.5-0.1,3,0.1,4.5c0.2,1.5,0.6,2.9,1,4.4c0.3,1.2,0.7,2.3,1.3,3.3c1,1.9,2.5,3.3,4,4.9
				c0.9,0.9,1.7,1.8,2.4,2.8c0.8,1.1,1.4,2.3,2,3.6c0.1,0.3,0.5,0.1,0.4-0.2c-1.1-4.3-5.1-6.8-7.5-10.3c-1.4-2.1-2.1-4.6-2.6-7.1
				c-0.6-2.9-0.3-5.9-0.7-8.8c-0.1-1.2-0.4-2.4-0.6-3.6c-0.1-0.5-0.4-1.4-0.3-1.8c-0.1,0.1-0.2,0.1-0.4,0.2c1.4,0.5,2.7,1.1,4.1,1.7
				c2.3,1,4.7,1.9,6.8,3.4c5,3.7,6.9,10.2,5,16c-1.2,3.5-2.8,6.9-4.1,10.4C389.1,153.8,389.4,154,389.4,153.8L389.4,153.8z"/>
			<path class="st1" d="M401.3,133.8c1.3-3.6,1.7-7.7,1.7-11.5c0-4.4-0.7-8.9-2.4-13c-1-2.3-2.2-4.6-3.9-6.6c-0.1-0.1-0.3,0-0.2,0.2
				c2.7,3.7,4.5,7.8,5.4,12.2c0.8,4.1,0.9,8.3,0.4,12.5c-0.2,2.1-0.7,4.1-1.2,6.2C401.1,133.8,401.3,133.9,401.3,133.8L401.3,133.8z
				"/>
			<path class="st1" d="M401.1,134.1c1-1.3,2-2.7,2.9-4.1c0.9-1.3,1.9-2.6,2.8-4c1.5-2.4,2.4-5.1,2.3-8c-0.1-2.7-1-5.3-2.5-7.5
				c-1.5-2.1-3.5-3.6-5.5-5c-1.4-1-2.8-2-4.2-3c-0.1-0.1-0.3,0-0.4,0.1c-0.2,0.4-0.1,0.9-0.1,1.3c0,1-0.1,1.9-0.1,2.9
				c-0.1,1.3-0.3,2.7-0.5,4c-0.3,1.4-0.7,2.7-0.8,4.1c-0.1,1.5,0,2.9,0.1,4.4c0.1,1.1,0.2,2.2,0.5,3.2c0.6,1.8,1.6,3.5,2.6,5.1
				c0.6,0.9,1.1,1.9,1.6,2.9c0.5,1.2,0.8,2.5,1.1,3.7c0.1,0.3,0.5,0.2,0.5-0.1c-0.1-4.1-3.1-7.1-4.7-10.6c-1-2.2-1.1-4.7-1.1-7.1
				c0-2.7,0.8-5.3,1.1-8.1c0.1-1.2,0.2-2.4,0.2-3.6c0-0.5-0.1-1.4,0.1-1.7c-0.1,0-0.3,0.1-0.4,0.1c1.1,0.8,2.3,1.6,3.4,2.4
				c1.9,1.3,3.9,2.7,5.4,4.4c3.8,4.4,4.2,10.7,1.3,15.6c-1.8,2.9-3.9,5.6-5.7,8.6C400.8,134.1,401,134.3,401.1,134.1L401.1,134.1z"
				/>
			<path class="st1" d="M416,119.9c2-2.5,3.3-5.6,4.3-8.6c1.1-3.5,1.7-7.3,1.4-11c-0.2-2.1-0.6-4.3-1.4-6.3c-0.1-0.1-0.3,0-0.3,0.1
				c1.1,3.6,1.6,7.3,1.1,11.1c-0.4,3.5-1.4,6.9-2.9,10.1c-0.7,1.5-1.6,3-2.4,4.5C415.7,119.8,415.9,120,416,119.9L416,119.9z"/>
			<path class="st1" d="M415.7,120.1c2.2-1.5,4.3-3.1,6.3-4.8c1.8-1.5,3.2-3.3,4-5.5c0.8-2.2,0.8-4.6,0.2-6.8
				c-0.6-2.1-1.9-3.9-3.2-5.7c-0.9-1.2-1.7-2.3-2.6-3.4c-0.1-0.1-0.3-0.2-0.5-0.1c-0.2,0.2-0.3,0.6-0.4,0.9
				c-0.3,0.7-0.5,1.4-0.8,2.1c-0.4,1-0.8,2-1.4,3c-0.5,1-1.1,1.9-1.6,2.9c-0.4,1-0.7,2-1,3c-0.2,1-0.5,1.9-0.6,2.9
				c-0.2,1.7,0.2,3.4,0.6,5.1c0.2,1,0.5,2,0.6,3.1c0.1,1.1,0,2.2,0,3.3c0,0.3,0.4,0.3,0.5,0.1c1.1-3.4-0.9-6.8-1-10.2
				c-0.1-2,0.5-4,1.2-5.9c0.7-2,2-3.8,2.8-5.8c0.4-0.9,0.7-1.7,1-2.6c0.1-0.4,0.3-1.1,0.5-1.3c-0.1,0-0.3,0-0.4,0
				c0.7,0.9,1.4,1.8,2.1,2.7c1.2,1.5,2.4,3.1,3.2,4.9c1.9,4.5,0.7,9.5-2.9,12.7c-2.1,1.9-4.5,3.5-6.7,5.3
				C415.4,120,415.6,120.2,415.7,120.1L415.7,120.1z"/>
			<path class="st1" d="M418.9,156.7c-6.4-5.3-15.7-6.9-23.7-5.2c-2.3,0.5-4.4,1.2-6.5,2.4c-0.4,0.2,0,0.7,0.3,0.5
				c7.1-3.9,16.4-3.6,23.9-0.8C415,154.3,417,155.4,418.9,156.7C418.9,156.8,418.9,156.7,418.9,156.7L418.9,156.7z"/>
			<path class="st1" d="M389.2,154.5c1.1,0.1,2.1,0.2,3.1,0.6c0.9,0.4,1.8,0.9,2.6,1.5c1.7,1,3.5,1.7,5.4,2.2
				c1.9,0.4,3.8,0.5,5.7,0.2c2-0.3,3.9-0.9,5.8-1.4c2.3-0.6,4.7-1.1,7-0.6c0.3,0.1,0.4-0.2,0.3-0.4c-1.2-1.4-2-3-2.9-4.5
				c-0.8-1.4-1.7-2.7-2.8-3.8c-1.9-1.9-4.4-3.4-7.1-3.9c-3.9-0.7-8.1,0.5-11.3,2.7c-2.5,1.7-4.9,4.3-6,7.2c-0.1,0.2,0.2,0.3,0.4,0.2
				c0.9-1.3,1.6-2.6,2.6-3.8c0.8-1,1.8-1.9,2.8-2.7c1.8-1.3,3.8-2.3,6-2.8c1.6-0.4,3.3-0.5,5-0.3c2.6,0.3,5,1.7,6.8,3.4
				c1.3,1.2,2.4,2.5,3.2,4c0.9,1.6,1.6,3.3,2.8,4.7c0.1-0.1,0.2-0.3,0.3-0.4c-4-1-7.9,0.9-11.8,1.7c-4.1,0.8-8.3,0.1-11.9-2.1
				c-0.9-0.6-1.8-1.2-2.9-1.6c-1.1-0.4-2.2-0.4-3.3-0.5C388.9,154,388.9,154.5,389.2,154.5L389.2,154.5z"/>
			<path class="st1" d="M427.6,143.5c-2.2-3.1-5.4-5.5-8.7-7.2c-3.6-1.8-7.6-3-11.6-3.2c-2.1-0.1-4.2,0-6.3,0.5
				c-0.4,0.1-0.2,0.7,0.2,0.6c3.6-0.9,7.5-0.6,11.1,0.3c3.8,0.9,7.5,2.6,10.8,4.8C424.7,140.6,426.2,142,427.6,143.5
				C427.5,143.6,427.6,143.6,427.6,143.5L427.6,143.5z"/>
			<path class="st1" d="M401.2,134.4c1.5,0.6,3.1,1.1,4.3,2.2c0.7,0.7,1.3,1.5,2.1,2.1c0.7,0.6,1.4,1.2,2.2,1.6c1.6,1,3.3,1.7,5.2,2
				c1.9,0.4,3.8,0.3,5.7,0.3c2.3,0,4.6,0,6.7,1.1c0.2,0.1,0.5-0.1,0.4-0.4c-0.8-1.6-1.1-3.3-1.5-4.9c-0.4-1.3-0.9-2.6-1.6-3.8
				c-1.2-2-3-3.9-5.2-4.9c-3.4-1.6-7.7-1.6-11.2-0.5c-2.7,0.8-5.6,2.5-7.2,4.8c-0.1,0.2,0.2,0.4,0.3,0.2c1.1-0.9,2.1-1.9,3.3-2.7
				c1-0.7,2.2-1.2,3.3-1.6c2-0.7,4.1-1,6.2-0.9c1.6,0.1,3.3,0.4,4.8,1c2.1,0.9,3.9,2.6,5.1,4.5c0.8,1.3,1.5,2.7,1.8,4.2
				c0.4,1.7,0.7,3.3,1.4,4.9c0.1-0.1,0.2-0.2,0.4-0.4c-3.5-2-7.6-0.9-11.5-1.4c-2-0.2-3.9-0.9-5.6-1.8c-0.9-0.5-1.7-1.1-2.5-1.8
				c-0.7-0.7-1.4-1.4-2.1-2.1c-1.3-1.3-3-1.8-4.7-2.3C401,133.8,400.9,134.3,401.2,134.4L401.2,134.4z"/>
			<path class="st1" d="M435.6,134.2c-2.6-6.3-8.9-11-15.3-12.9c-1.8-0.5-3.6-0.9-5.5-0.8c-0.4,0-0.4,0.6,0,0.6c3.3,0,6.6,1,9.5,2.5
				c3,1.6,5.8,3.7,8.1,6.2C433.7,131.1,434.8,132.6,435.6,134.2C435.6,134.3,435.7,134.2,435.6,134.2L435.6,134.2z"/>
			<path class="st1" d="M414.9,121.2c1.3,0.9,2.6,1.7,3.4,3.1c0.9,1.5,1.7,2.8,3,4c1.2,1.1,2.6,2,4.1,2.6c1.5,0.6,3,0.9,4.5,1.2
				c2,0.4,3.8,1.1,5.5,2.3c0.2,0.1,0.4-0.1,0.4-0.3c-0.6-2.6-0.1-5.2-0.8-7.8c-0.6-2-1.7-4-3.3-5.3c-2.5-2.1-6.2-3.1-9.5-2.9
				c-2.5,0.1-5.5,1-7.4,2.7c-0.2,0.2,0,0.4,0.2,0.3c1.1-0.6,2.2-1.2,3.4-1.6c1.1-0.4,2.2-0.6,3.3-0.7c1.9-0.2,3.8,0,5.6,0.6
				c1.3,0.4,2.6,1,3.7,1.8c1.6,1.2,2.8,3.1,3.4,5.1c0.4,1.2,0.6,2.5,0.6,3.8c0,1.4-0.1,2.8,0.2,4.2c0.1-0.1,0.3-0.2,0.4-0.3
				c-1.4-1-3-1.8-4.7-2.2c-1.5-0.4-3-0.6-4.5-1.1c-1.7-0.6-3.3-1.5-4.6-2.7c-1.3-1.2-2.2-2.6-3.1-4.2c-0.9-1.5-2.3-2.2-3.7-3.1
				C414.9,120.6,414.6,121,414.9,121.2L414.9,121.2z"/>
			<path class="st1" d="M426.7,114.9c2.8,1.1,5.5,2.2,8.5,2.3c1.8,0,3.6-0.2,5.2-0.8c1.4-0.5,2.7-1.2,4.1-1.9c2-1,4.1-1.9,6.2-2.7
				c0.2-0.1,0.3-0.3,0.1-0.5c-2.8-3.1-6.7-5.6-11-5.9c-3.6-0.3-7.3,1.3-9.9,3.7c-1.6,1.4-2.8,3.4-3.4,5.5c-0.1,0.3,0.4,0.5,0.5,0.1
				c0.7-1.8,1.5-3.5,2.9-4.8c1.2-1.2,2.7-2.1,4.3-2.8c1.6-0.7,3.2-1.2,5-1.1c1.9,0,3.7,0.5,5.4,1.3c2.2,1.1,4.2,2.6,5.8,4.4
				c0-0.2,0.1-0.3,0.1-0.5c-3.2,1.2-6.2,2.8-9.3,4.2c-3,1.3-6.5,1.5-9.7,0.6c-1.6-0.5-3.1-1.2-4.7-1.5
				C426.6,114.5,426.6,114.8,426.7,114.9L426.7,114.9z"/>
		</g>
		<g>
			<path class="st1" d="M393.6,59.3c-5.1,0-10.2,0-15.1,1c-2.3,0.5-4.5,1.2-6.6,2.2c-2,0.9-3.7,2.1-5,3.8c-1.4,1.8-2.4,4-3.7,5.9
				c-0.3,0.5,0.4,0.9,0.7,0.4c1.1-1.7,1.9-3.5,3.1-5.1c1.2-1.8,2.7-3,4.6-4c4.1-2.2,8.9-3.1,13.5-3.6c2.8-0.3,5.7-0.3,8.5-0.4
				C393.8,59.6,393.8,59.3,393.6,59.3L393.6,59.3z"/>
			<path class="st1" d="M410.6,42c-5.2-0.8-10.3-0.5-15.4,0.6c-4.7,1.1-9.4,2.3-13.8,4.2c-2.3,1-4.7,2.3-6.6,4.1
				c-0.3,0.3,0.1,0.8,0.4,0.6c1.8-1.3,3.7-2.5,5.7-3.5c2.1-1,4.3-1.8,6.4-2.5c4.7-1.5,9.6-2.9,14.5-3.3c2.9-0.3,5.8-0.3,8.6,0.1
				C410.7,42.3,410.7,42.1,410.6,42L410.6,42z"/>
			<path class="st1" d="M373.4,21c1.2,4.2,2,8.4,2.3,12.7c0.3,4.1,0.5,8.3-0.1,12.3c-0.2,1-0.4,2.1-0.7,3.1c-0.3,1-0.9,2-1.3,3
				c-0.1,0.3,0.3,0.5,0.5,0.3c1.2-1.4,1.7-3.5,2.1-5.2c0.4-1.9,0.5-3.9,0.5-5.9c0.1-4.4-0.3-8.7-1.2-13c-0.5-2.5-1.1-4.9-1.9-7.3
				C373.6,20.9,373.4,20.9,373.4,21L373.4,21z"/>
			<path class="st1" d="M400.1,10.3c0,4.2-0.3,8.5-1.4,12.6c-0.5,1.8-1.1,3.6-1.9,5.3c-0.9,1.7-2,3.2-3.1,4.8
				c-0.2,0.3,0.2,0.6,0.5,0.4c1.4-1.3,2.4-3.2,3.2-4.9c0.8-1.7,1.5-3.5,1.9-5.4c1.1-4.2,1.2-8.6,1-12.9
				C400.3,10.1,400.1,10.1,400.1,10.3L400.1,10.3z"/>
			<path class="st1" d="M409.7,25.2c4-2.7,7.9-5.5,12.3-7.4c4.7-2.1,10.2-3.3,15.4-2.1c2.3,0.6,4.9,1.9,5.2,4.6
				c0.3,2.4-2.2,3.9-3.9,5c-4.1,2.7-9.2,3.7-14.1,2.9c-2.6-0.5-5.1-1.3-7.7-2c-2.4-0.7-4.8-1.3-7.3-1.2c-0.3,0-0.3,0.5,0,0.5
				c5,0.2,9.7,2.4,14.7,3.3c4.9,0.9,10-0.1,14.3-2.7c1.7-1,4-2.5,4.5-4.6c0.4-2.2-1.1-4.3-2.9-5.3c-2.2-1.1-4.8-1.4-7.3-1.4
				c-2.8,0-5.5,0.6-8.1,1.5c-2.9,1-5.6,2.4-8.1,4c-2.4,1.5-4.7,3.3-7,5C409.5,25.1,409.6,25.3,409.7,25.2L409.7,25.2z"/>
			<path class="st1" d="M397.9,26.8c2.9-3.1,4.9-7.2,6.1-11.2c0.6-2.1,1.1-4.3,1.1-6.5c0.1-1.9-0.2-4.1-1.2-5.7
				c-1.3-2-4-3.8-6.4-3.1c-1.2,0.4-2,1.4-2.4,2.6c-0.7,2.3-0.5,4.8-0.1,7.1c0.5,2.7,1.5,5.3,1.9,8.1c0.4,2.9,0.3,5.8,0.7,8.7
				c0,0.3,0.5,0.3,0.5,0c0.1-4.5-0.4-9-1.6-13.3c-0.6-2.3-1.2-4.5-1.3-6.9c0-1.7,0.1-4,1.5-5.2c2-1.7,5.1,0,6.5,1.7
				c1.2,1.5,1.5,3.5,1.6,5.3c0,2.1-0.3,4.2-0.8,6.2c-0.6,2.3-1.4,4.4-2.5,6.5c-1.1,2-2.4,3.8-3.8,5.7
				C397.6,26.7,397.8,26.9,397.9,26.8L397.9,26.8z"/>
			<path class="st1" d="M376.3,44.3c3.2-4.8,4.3-10.6,3.9-16.3c-0.3-5-1.7-10.6-5.3-14.4c-1.3-1.3-3.3-3-5.3-2.7
				c-1.5,0.3-2.4,1.7-2.9,3c-0.6,1.6-0.9,3.4-0.8,5.1c0.1,2.4,1.1,4.6,2.4,6.5c0.8,1.3,1.8,2.5,2.6,3.7c0.9,1.4,1.7,3,2.4,4.6
				c1.4,3.3,2.1,6.8,2.6,10.3c0,0.2,0.4,0.2,0.4-0.1c-0.2-5.6-2.2-11.4-5.4-16c-1.4-2-3-4-3.9-6.3c-0.6-1.8-0.7-3.6-0.4-5.5
				c0.2-1.5,0.7-3.3,1.9-4.4c1.5-1.3,3.5-0.2,4.9,0.8c4,3.1,5.6,8.6,6.2,13.5c0.8,6.1-0.2,12.5-3.5,17.8
				C376,44.3,376.2,44.4,376.3,44.3L376.3,44.3z"/>
			<path class="st1" d="M387.7,45c2.3-1,4.5-2.2,6.8-3.1c2.2-0.9,4.5-1.7,6.8-2.3c4.2-1.1,9-2,13.2-0.7c2,0.6,4,1.9,4.9,3.9
				c1,2.3-0.7,4.3-2.8,5.1c-2.3,0.9-4.9,0.9-7.3,0.6c-2.5-0.3-4.9-0.8-7.3-1.3c-2.7-0.6-5.4-1.2-8.1-1.6c-1.3-0.2-2.6-0.3-3.9-0.3
				c-1.3,0-2.7,0-3.9,0.3c-0.2,0.1-0.2,0.4,0,0.4c1.3,0,2.6-0.1,3.9-0.1c1.4,0,2.8,0.2,4.1,0.4c2.6,0.4,5.2,1,7.8,1.6
				c2.5,0.6,5,1.1,7.6,1.4c2.5,0.3,5.1,0.2,7.4-0.8c1.8-0.7,3.5-2.3,3.3-4.3c-0.1-2.1-1.8-3.8-3.5-4.8c-3.9-2.2-8.8-1.6-12.9-0.8
				c-2.9,0.6-5.7,1.4-8.4,2.5c-2.7,1-5.4,2.2-7.9,3.7C387.2,44.8,387.4,45.2,387.7,45L387.7,45z"/>
			<path class="st1" d="M372.8,63.1c3.1-3.6,7.7-5.2,12.3-6.2c2.7-0.6,5.4-1,8.1-1.2c2.5-0.2,5-0.1,7.3,0.8c1.7,0.7,4.1,2.1,3.9,4.3
				c-0.2,1.6-1.9,2.6-3.2,3.3c-4,2-8.8,1.9-13.2,1.2c-2.3-0.4-4.5-0.9-6.8-1.4c-2.5-0.5-5.2-1.1-7.8-1c-0.3,0-0.4,0.4-0.1,0.5
				c1.4,0.2,2.7,0.3,4.1,0.5c1.2,0.2,2.4,0.4,3.5,0.6c2.2,0.5,4.4,1,6.7,1.4c4.6,0.7,9.5,0.9,13.7-1.2c1.4-0.7,2.9-1.7,3.4-3.2
				c0.5-1.7-0.8-3.4-2.1-4.3c-2-1.4-4.5-2-6.9-2c-2.8-0.1-5.7,0.3-8.4,0.9c-3,0.6-6,1.4-8.8,2.6c-2.3,1-4.6,2.3-6.1,4.4
				C372.4,63.1,372.7,63.3,372.8,63.1L372.8,63.1z"/>
			<path class="st1" d="M432.6,20.1c-9.4,0.5-18.6,2.8-27.2,6.6c-8.6,3.8-16.5,9.1-23.2,15.6c-6.7,6.5-12.3,14.1-16.2,22.6
				c-4.1,8.8-6.2,18.5-6.2,28.2c0,11.8,2.8,23.7,7.5,34.5c0.6,1.3,1.2,2.6,1.9,3.8c0.3,0.5,1,0.1,0.7-0.4c-1.2-2.6-2.4-5.3-3.4-8
				c-1-2.7-1.9-5.5-2.7-8.3c-1.6-5.7-2.6-11.5-2.9-17.4c-0.6-9.9,1-19.7,4.6-28.9c3.4-8.6,8.5-16.4,14.9-23.1
				c6.3-6.7,13.8-12.3,22.1-16.4c8.3-4.2,17.3-7,26.6-8c1.2-0.1,2.3-0.2,3.5-0.3C432.8,20.4,432.8,20.1,432.6,20.1L432.6,20.1z"/>
			<path class="st1" d="M380.5,99.8c-3.1,3.6-6.1,7.2-8.5,11.3c-2.3,3.9-3.7,8.3-3.9,12.8c-0.1,2.5,0.4,5,1.1,7.3
				c0.2,0.5,1,0.3,0.8-0.2c-0.6-2.1-1-4.2-1-6.4c0-2.2,0.3-4.4,0.9-6.6c1.2-4.3,3.4-8.2,6-11.7c1.5-2.2,3.2-4.3,4.9-6.3
				C380.9,99.9,380.7,99.6,380.5,99.8L380.5,99.8z"/>
			<path class="st1" d="M378.3,75.6c-3.7,3.2-6.7,7-9,11.3c-2.3,4.3-4.6,8.9-6,13.6c-0.8,2.6-1.4,5.4-1.3,8.1c0,0.5,0.7,0.4,0.7,0
				c0.2-2.4,0.5-4.8,1.2-7.1c0.7-2.3,1.5-4.6,2.5-6.9c1.9-4.4,4-8.8,6.8-12.8c1.6-2.2,3.4-4.2,5.3-6.1
				C378.6,75.7,378.5,75.5,378.3,75.6L378.3,75.6z"/>
			<path class="st1" d="M338.3,90.3c3.8,1.7,7.4,3.8,10.8,6.2c3.4,2.4,6.7,5,9.4,8.1c0.7,0.8,1.4,1.7,2,2.7c0.6,1,1,2,1.5,3
				c0.2,0.3,0.5,0.1,0.5-0.2c-0.3-1.9-1.6-3.7-2.8-5.1c-1.3-1.6-2.8-3-4.3-4.3c-3.3-2.8-6.8-5.3-10.6-7.4c-2.1-1.2-4.3-2.2-6.5-3.2
				C338.3,90.1,338.2,90.3,338.3,90.3L338.3,90.3z"/>
			<path class="st1" d="M347.4,63.1c3.1,2.6,6,5.5,8.4,8.8c1.1,1.6,2.2,3.3,3,5c0.9,1.9,1.3,3.8,1.8,5.8c0.1,0.3,0.6,0.3,0.6-0.1
				c-0.1-2-0.9-4-1.7-5.7c-0.8-1.8-1.9-3.6-3.1-5.2c-2.5-3.3-5.6-6.2-8.8-8.7C347.4,62.8,347.2,62.9,347.4,63.1L347.4,63.1z"/>
			<path class="st1" d="M358.5,75.4c-0.4-4.3-2.4-8.6-4.8-12.2c-1.2-1.8-2.6-3.6-4.3-5c-1.4-1.3-3.2-2.4-5.1-2.6
				c-2.5-0.3-6.2,1-6.6,3.8c-0.2,1.7,0.9,3.2,2,4.3c1.4,1.5,3.2,2.6,5,3.5c2.3,1.2,4.6,2.1,6.7,3.5c2.3,1.5,4.4,3.3,6.7,4.9
				c0.2,0.1,0.5-0.2,0.3-0.4c-1.6-1.4-3.4-2.8-5.2-4c-1.8-1.2-3.6-2.3-5.6-3.2c-1.7-0.8-3.5-1.6-5.1-2.7c-1.6-1-3.3-2.4-4.1-4.2
				c-1.4-3.1,2.3-5.1,4.9-5.2c1.8-0.1,3.5,0.8,4.9,1.9c1.7,1.3,3.2,3,4.5,4.7c1.4,1.9,2.5,3.9,3.4,6.1c0.9,2.2,1.5,4.4,2,6.7
				C358.3,75.6,358.5,75.5,358.5,75.4L358.5,75.4z"/>
			<path class="st1" d="M357.9,103.2c-1.4-4.9-4.5-9.1-8.3-12.3c-3.9-3.3-8.8-6-13.9-6.5c-1.3-0.1-2.6-0.1-3.9,0.2
				c-1.1,0.2-2.2,0.6-3,1.4c-1.3,1.2-1,3-0.3,4.4c0.8,1.7,2.1,3.2,3.6,4.3c2,1.6,4.5,2.1,7,2.4c1.6,0.2,3.2,0.2,4.8,0.5
				c1.6,0.3,3.2,0.7,4.7,1.2c3.3,1.1,6.2,2.7,9.1,4.5c0.2,0.1,0.5-0.2,0.3-0.3c-4.1-3.3-9.5-5.4-14.6-6.1c-2.6-0.3-5.3-0.3-7.8-1.1
				c-2-0.6-3.7-1.9-5.1-3.5c-1.1-1.2-2.3-3-2-4.7c0.4-2.3,3.7-2.8,5.6-2.8c5-0.2,10,2.3,14,5.3c4.5,3.3,8,7.8,9.7,13.1
				C357.7,103.4,357.9,103.4,357.9,103.2L357.9,103.2z"/>
			<path class="st1" d="M365.8,95c0.7-2.4,1.2-4.9,2-7.2c0.8-2.4,1.7-4.8,2.9-7.1c1.1-2.2,2.4-4.4,3.9-6.3c1.4-1.7,3-3.3,5-4.3
				c1.9-0.9,4.8-1.4,6.5,0.2c1.8,1.8,0.8,4.7-0.3,6.6c-1.2,2.1-3,3.7-4.8,5.3c-1.7,1.5-3.6,2.8-5.4,4.2c-2,1.5-4,3-5.8,4.7
				c-0.9,0.8-1.8,1.7-2.6,2.6c-0.8,0.9-1.6,1.9-2.1,3c-0.1,0.2,0.1,0.4,0.3,0.2c0.8-0.9,1.4-1.9,2.2-2.8c0.8-0.9,1.6-1.7,2.5-2.5
				c1.8-1.6,3.7-3.1,5.7-4.6c1.9-1.4,3.8-2.8,5.6-4.4c1.9-1.6,3.7-3.4,5-5.6c1-1.8,1.8-4.3,0.8-6.3c-1-2-3.5-2.4-5.5-2
				c-4.7,0.8-7.9,5.4-10.1,9.2c-1.5,2.6-2.7,5.3-3.7,8.1c-1,2.9-2,5.8-2.5,8.8C365.3,95.2,365.7,95.3,365.8,95L365.8,95z"/>
			<path class="st1" d="M370,118.1c-0.8-5.3,1.5-10.3,4-14.8c1.3-2.2,2.7-4.4,4.3-6.4c1.5-1.8,3.2-3.5,5.4-4.5
				c1.6-0.7,4.3-1.2,5.3,0.7c0.7,1.2,0.4,2.9,0,4.2c-1.1,4.1-3.9,7.4-7,10.2c-1.8,1.6-3.8,3-5.7,4.5c-2.1,1.6-4.5,3.4-6.1,5.5
				c-0.2,0.2,0.1,0.6,0.3,0.3c1.1-0.9,2.1-2,3.1-2.9c1-0.8,1.9-1.6,2.9-2.4c1.9-1.4,3.8-2.8,5.5-4.4c3.3-2.9,6.4-6.4,7.5-10.8
				c0.4-1.4,0.6-3,0-4.3c-0.7-1.6-2.5-1.9-4-1.8c-5.2,0.6-8.5,5.8-11,9.9c-1.6,2.6-2.9,5.3-4,8.2c-1,2.8-1.8,5.9-1,8.9
				C369.7,118.4,370,118.3,370,118.1L370,118.1z"/>
		</g>
		<g>
			<g>
				<g>
					<path class="st1" d="M414.9,223.5c-0.4,0-0.9,0-1.3,0c-0.5,0-1.1,0-1.6,0c-0.7,0-1.3-0.3-1.7-0.9c-5.6-9.6-9.2-18.7-10.9-27.8
						c-0.3-1.5-0.5-3-0.8-4.7c0-0.3,0-0.6,0-0.9c0-0.2,0-0.3,0-0.5h0.5c0,0.2,0,0.3,0,0.5c0,0.3,0,0.6,0,0.8
						c0.3,1.7,0.5,3.3,0.8,4.7c1.7,9.1,5.2,18.2,10.9,27.7c0.3,0.5,0.6,0.7,1.2,0.7c0.5,0,1.1,0,1.6,0c0.4,0,0.9,0,1.3,0
						c3.8,0,7.5,0,11.3,0l5.6,0c0.4,0,0.7-0.1,0.8-0.3l0.4,0.3c-0.3,0.5-0.8,0.6-1.3,0.6l-5.6,0
						C422.4,223.5,418.7,223.5,414.9,223.5C414.9,223.5,414.9,223.5,414.9,223.5z"/>
					<path class="st1" d="M433.1,222.9l-0.4-0.3c0.3-0.3,0.5-0.8,0.7-1.2c0.1-0.2,0.2-0.4,0.3-0.6l0.8-1.4c1.9-3.4,3.8-7,5.3-10.7
						c1.8-4.6,3.1-9.6,4.3-16.3c0-0.2,0.1-0.4,0.1-0.7c0.2-1,0.4-2.1,0.3-3.2l0.5-0.1c0.1,1.2-0.1,2.3-0.3,3.4
						c0,0.2-0.1,0.4-0.1,0.7c-1.2,6.7-2.6,11.7-4.4,16.3c-1.5,3.7-3.4,7.3-5.3,10.8l-0.8,1.4c-0.1,0.2-0.2,0.4-0.3,0.5
						C433.6,222,433.4,222.5,433.1,222.9z"/>
				</g>
			</g>
			<path class="st1" d="M419.5,189.3c-16.9,0-20.5-1.9-20.6-2c-0.3-0.2-0.4-0.4-0.3-0.6c0.1-0.3,0.5-0.5,0.8-0.6
				c1.7-0.5,3.1-0.7,4.4-0.9c6.9-0.8,12.3-1.1,17.4-1.1c7.4,0,13.4,0.4,18.8,1.2c1.5,0.2,2.7,0.4,3.8,0.7c0.6,0.2,1,0.3,1,0.7
				c0,0.3-0.3,0.5-0.5,0.7l0,0c-0.1,0.1-0.2,0.1-0.3,0.2c-0.2,0.1-4.5,1.6-22.8,1.7C420.6,189.3,420,189.3,419.5,189.3z
				 M399.1,186.8c0,0,0,0,0.1,0.1c0,0,3.9,2,22,1.9c18.1-0.1,22.6-1.7,22.6-1.7c0.1,0,0.2-0.1,0.3-0.1h0c0.1-0.1,0.2-0.1,0.2-0.2
				c-0.1,0-0.2-0.1-0.7-0.3c-1-0.3-2.2-0.5-3.7-0.7c-5.4-0.7-11.4-1.1-18.7-1.2c-5.1,0-10.4,0.3-17.3,1.1c-1.3,0.1-2.6,0.4-4.3,0.9
				C399.2,186.7,399.1,186.8,399.1,186.8z"/>
			<path class="st1" d="M438.9,213.8l0.3-0.8c0.4-1,0.7-1.9,1.3-2.8c0.2-0.4,0.6-0.5,0.9-0.6c0.1,0,0.1-0.1,0.2-0.1
				c4.9-2.2,9.1-5.6,12.6-10c1-1.3,1.6-2.7,2.2-4.1l0,0c0-0.6,0.1-1.2,0-1.7c-0.2-0.8-0.5-1.3-1.1-1.7c-1.2-0.4-2.5-0.3-4,0.4
				c-2,1-3.7,2.4-4.9,4.3l-0.1,0.2c-0.2,0.3-0.4,0.6-0.7,0.9c0,0,0,0,0,0.1c-0.2,0.3-0.4,0.3-0.7,0.2c-0.3-0.2-0.2-0.5-0.2-0.6
				l0-0.1l0.1-0.7c0.2-1,0.3-1.9,0.5-2.9c0.2-0.9,0.3-1.7,0.4-2.4c0-0.3,0.1-0.7,0.6-0.8c0.4-0.1,0.8-0.3,1.3-0.5l0.5-0.2
				c2.6-1.3,5.1-1.7,7.6-1.1c1.8,0.4,3.2,1.6,4.2,3.4c0.5,0.9,0.4,2,0.3,3c0,0.2,0,0.3,0,0.5c-0.2,2.8-1.3,5.2-3.5,7.3
				c-4.9,4.8-9.8,8.1-14.9,10.2c-0.1,0-0.2,0.1-0.3,0.1l-0.1,0c-0.5,0.3-1.1,0.5-2,0.7L438.9,213.8z M453.8,191.1
				c0.6,0,1.1,0.1,1.7,0.3c0.8,0.5,1.2,1.1,1.4,2.1c0.1,0.6,0.1,1.3,0,1.9l0,0.2c-0.6,1.4-1.3,2.9-2.3,4.3c-3.5,4.6-7.8,8-12.8,10.2
				c-0.1,0-0.2,0.1-0.2,0.1c-0.3,0.1-0.5,0.2-0.7,0.4c-0.5,0.8-0.8,1.7-1.2,2.7c0.6-0.1,1-0.3,1.4-0.5l0.2,0c0.1,0,0.1,0,0.2-0.1
				c5.1-2.1,9.9-5.4,14.8-10.1c2.1-2,3.2-4.3,3.3-7c0-0.2,0-0.3,0-0.5c0.1-0.9,0.1-1.9-0.3-2.7l0,0c-0.9-1.7-2.2-2.8-3.8-3.2
				c-2.3-0.5-4.7-0.2-7.3,1.1l-0.5,0.2c-0.4,0.2-0.9,0.3-1.3,0.5c-0.2,0.1-0.3,0.2-0.3,0.4c-0.1,0.8-0.2,1.6-0.4,2.4
				c-0.2,1-0.3,1.9-0.5,2.9l-0.1,0.7c0,0,0,0.1,0,0.1c0,0,0,0,0,0.1c0,0,0,0,0,0c0,0,0.1-0.1,0.1-0.1c0.2-0.2,0.4-0.5,0.6-0.8
				l0.1-0.2c1.3-2,3-3.5,5.1-4.5C452,191.3,452.9,191.1,453.8,191.1z"/>
		</g>
		<path class="st2" d="M435.4,174.3l-0.2-0.6c-0.3-0.7-0.5-1.7-0.8-2.9c-0.6-3.5-3.2-6.2-6.5-7.1c-0.7-0.2-1.4-0.4-2-0.6l-0.8-0.3
			l0.8-0.2c0,0,0.6-0.1,1.5-0.3c3.6-0.8,6.3-3.6,6.9-7.1c0.2-1.3,0.5-2.3,0.8-3.1l0.2-0.6l0.2,0.6c0.3,0.8,0.6,1.8,0.8,3.1
			c0.6,3.6,3.4,6.4,6.9,7.1l0,0c0.9,0.2,1.6,0.3,1.6,0.3l0.8,0.2l-0.7,0.3c-0.6,0.2-1.3,0.4-2,0.6c-3.3,0.8-5.9,3.6-6.5,7.1
			c-0.2,1.2-0.5,2.1-0.8,2.9L435.4,174.3z M426.8,163c0.4,0.1,0.7,0.2,1.1,0.3c3.5,0.9,6.2,3.8,6.9,7.5c0.2,0.8,0.3,1.5,0.5,2.1
			c0.2-0.6,0.4-1.3,0.5-2.1c0.7-3.7,3.4-6.6,6.9-7.5c0.4-0.1,0.8-0.2,1.1-0.3c-0.2,0-0.4-0.1-0.7-0.2l0,0c-3.8-0.8-6.6-3.8-7.3-7.5
			c-0.2-0.9-0.3-1.7-0.5-2.3c-0.2,0.6-0.4,1.4-0.5,2.3c-0.7,3.8-3.6,6.7-7.3,7.5C427.2,162.9,427,162.9,426.8,163z"/>
		<path class="st2" d="M165.1,197.4l-0.2-0.6c-0.3-0.7-0.5-1.7-0.8-2.9c-0.6-3.5-3.2-6.2-6.5-7.1c-0.7-0.2-1.4-0.4-2-0.6l-0.8-0.3
			l0.8-0.2c0,0,0.6-0.1,1.5-0.3c3.6-0.8,6.3-3.6,6.9-7.1c0.2-1.3,0.5-2.3,0.8-3.1l0.2-0.6l0.2,0.6c0.3,0.8,0.6,1.8,0.8,3.1
			c0.6,3.6,3.4,6.4,6.9,7.1h0c0.9,0.2,1.6,0.3,1.6,0.3l0.8,0.2l-0.7,0.3c-0.6,0.2-1.3,0.5-2,0.6c-3.3,0.8-5.9,3.6-6.5,7.1
			c-0.2,1.2-0.5,2.1-0.8,2.9L165.1,197.4z M156.6,186c0.4,0.1,0.7,0.2,1.1,0.3c3.5,0.9,6.2,3.8,6.9,7.5c0.2,0.8,0.3,1.5,0.5,2.1
			c0.2-0.6,0.4-1.3,0.5-2.1c0.7-3.7,3.4-6.6,6.9-7.5c0.4-0.1,0.8-0.2,1.1-0.3c-0.2,0-0.4-0.1-0.7-0.2l0,0c-3.8-0.8-6.6-3.8-7.3-7.5
			c-0.2-0.9-0.3-1.7-0.5-2.3c-0.2,0.6-0.4,1.4-0.5,2.3c-0.7,3.8-3.6,6.7-7.3,7.5C157,185.9,156.7,186,156.6,186z"/>
		<path class="st2" d="M342.9,42.3l-0.2-0.6c-0.3-0.7-0.5-1.7-0.8-2.9c-0.6-3.5-3.2-6.2-6.5-7.1c-0.7-0.2-1.4-0.4-2-0.6l-0.8-0.3
			l0.8-0.2c0,0,0.6-0.1,1.5-0.3c3.6-0.8,6.3-3.6,6.9-7.1c0.2-1.3,0.5-2.3,0.8-3.1l0.2-0.6l0.2,0.6c0.3,0.8,0.6,1.8,0.8,3.1
			c0.6,3.6,3.4,6.4,6.9,7.1l0,0c0.9,0.2,1.6,0.3,1.6,0.3l0.8,0.2l-0.7,0.3c-0.6,0.2-1.3,0.5-2,0.6c-3.3,0.8-5.9,3.6-6.5,7.1
			c-0.2,1.2-0.5,2.1-0.8,2.9L342.9,42.3z M334.4,31c0.4,0.1,0.7,0.2,1.1,0.3c3.5,0.9,6.2,3.8,6.9,7.5c0.2,0.8,0.3,1.5,0.5,2.1
			c0.2-0.6,0.4-1.3,0.5-2.1c0.7-3.7,3.4-6.6,6.9-7.5c0.4-0.1,0.8-0.2,1.1-0.3c-0.2,0-0.4-0.1-0.7-0.2l0,0c-3.8-0.8-6.6-3.8-7.3-7.5
			c-0.2-0.9-0.3-1.7-0.5-2.3c-0.2,0.6-0.4,1.4-0.5,2.3c-0.7,3.8-3.6,6.7-7.3,7.5C334.8,30.9,334.5,31,334.4,31z"/>
		<path class="st2" d="M157.8,46.3l-0.2-0.6c-0.3-0.7-0.5-1.7-0.8-2.9c-0.6-3.5-3.2-6.2-6.5-7.1c-0.7-0.2-1.4-0.4-2-0.6l-0.8-0.3
			l0.8-0.2c0,0,0.6-0.1,1.5-0.3c3.6-0.8,6.3-3.6,6.9-7.1c0.2-1.3,0.5-2.3,0.8-3.1l0.2-0.6l0.2,0.6c0.3,0.8,0.6,1.8,0.8,3.1
			c0.6,3.6,3.4,6.4,6.9,7.1h0c0.9,0.2,1.6,0.3,1.6,0.3l0.8,0.2l-0.7,0.3c-0.6,0.2-1.3,0.4-2,0.6c-3.3,0.8-5.9,3.6-6.5,7.1
			c-0.2,1.2-0.5,2.1-0.8,2.9L157.8,46.3z M149.3,35c0.4,0.1,0.7,0.2,1.1,0.3c3.5,0.9,6.2,3.8,6.9,7.5c0.2,0.8,0.3,1.5,0.5,2.1
			c0.2-0.6,0.4-1.3,0.5-2.1c0.7-3.7,3.4-6.6,6.9-7.5c0.4-0.1,0.8-0.2,1.1-0.3c-0.2,0-0.4-0.1-0.7-0.2c-3.8-0.8-6.6-3.8-7.3-7.5
			c-0.2-0.9-0.3-1.7-0.5-2.3c-0.2,0.6-0.4,1.4-0.5,2.3c-0.7,3.8-3.6,6.7-7.3,7.5C149.7,34.9,149.5,34.9,149.3,35z"/>
		<g>
			<g>
				<path class="st2" d="M434.5,79.6c-7.5,0-13.6-6.1-13.6-13.6c0-7.5,6.1-13.6,13.6-13.6c4,0,7.8,1.7,10.4,4.8l0.6,0.7l-0.9-0.4
					c-1-0.4-2-0.6-3.1-0.6c-2.4,0-4.7,0.9-6.4,2.6c-1.7,1.7-2.6,4-2.6,6.4c0,5,4,9,9,9c1.1,0,2.1-0.2,3.1-0.6l0.9-0.3l-0.6,0.7
					C442.2,77.9,438.5,79.6,434.5,79.6z M434.5,52.9c-7.2,0-13.1,5.9-13.1,13.1c0,7.2,5.9,13.1,13.1,13.1c3.5,0,6.9-1.4,9.3-3.9
					c-0.8,0.2-1.6,0.3-2.4,0.3c-5.2,0-9.5-4.3-9.5-9.5c0-2.5,1-4.9,2.8-6.7c1.8-1.8,4.2-2.8,6.7-2.8c0.8,0,1.6,0.1,2.4,0.3
					C441.4,54.3,438,52.9,434.5,52.9z"/>
			</g>
		</g>
		<g>
			<g>
				<path class="st2" d="M100.5,116.9c-7.5,0-13.6-6.1-13.6-13.6c0-7.5,6.1-13.6,13.6-13.6c4,0,7.8,1.7,10.4,4.8l0.6,0.7l-0.9-0.4
					c-1-0.4-2-0.6-3.1-0.6c-5,0-9,4-9,9c0,5,4,9,9,9c1.1,0,2.1-0.2,3.1-0.6l0.9-0.3l-0.6,0.7C108.2,115.2,104.4,116.9,100.5,116.9z
					 M100.5,90.2c-7.2,0-13.1,5.9-13.1,13.1c0,7.2,5.9,13.1,13.1,13.1c3.5,0,6.9-1.4,9.3-3.9c-0.8,0.2-1.6,0.3-2.4,0.3
					c-5.2,0-9.5-4.3-9.5-9.5c0-5.2,4.3-9.5,9.5-9.5c0.8,0,1.6,0.1,2.4,0.3C107.4,91.6,104,90.2,100.5,90.2z"/>
			</g>
		</g>
		<g>
			<path class="st0" d="M113.5,197.8c1.7-0.1,3.3-0.3,4.6-0.5c1.2-0.2,2.1-0.4,2.7-0.6c0.7-0.2,1.2-0.3,1.5-0.5
				c0.4-0.1,0.6-0.3,0.8-0.4c0.2-0.1,0.3-0.3,0.4-0.4c0.1-0.1,0.1-0.3,0.1-0.4c0-0.1,0-0.1,0-0.2c0-0.1-0.1-0.1-0.2-0.1
				c-0.2,0-0.3,0.1-0.4,0.2c0,0.1,0,0.2-0.1,0.3c0,0.1-0.1,0.2-0.2,0.2c-0.1,0.1-0.4,0.2-0.7,0.3c-0.4,0.1-0.8,0.3-1.5,0.4
				c-0.6,0.2-1.5,0.4-2.7,0.6c-1.3,0.2-2.8,0.4-4.6,0.5c-1.9,0.1-4.3,0.2-6.9,0.2c-2.5,0-5.1,0-7.4-0.1c-2.1-0.1-4.2-0.2-6-0.4
				c-1.8-0.2-3.3-0.4-4.3-0.7c-0.8-0.2-1.3-0.4-1.5-0.7c-0.2-0.2-0.2-0.4-0.2-0.6c0-0.1-0.1-0.3-0.3-0.3c0,0,0,0,0,0
				c-0.1,0-0.2,0-0.2,0.1c0,0-0.1,0.1-0.1,0.2c0,0.3,0,0.6,0.3,0.9c0.3,0.3,0.9,0.6,1.8,0.8c1,0.3,2.5,0.5,4.4,0.7
				c1.8,0.2,3.9,0.4,6.1,0.4c2.3,0.1,4.9,0.1,7.4,0.1C109.2,198,111.5,197.9,113.5,197.8z"/>
			<path class="st0" d="M88.1,194.2c0.3-0.1,0.8-0.3,1.5-0.4c0.7-0.2,1.5-0.4,2.7-0.6c1.3-0.2,2.8-0.4,4.6-0.5
				c1.9-0.1,4.3-0.2,6.9-0.2c2.6,0,5.1,0,7.4,0.1c2.1,0.1,4.2,0.2,6,0.4c1.8,0.2,3.3,0.4,4.3,0.7c0.8,0.2,1.3,0.4,1.5,0.7
				c0.2,0.2,0.2,0.4,0.2,0.6c0,0.1,0.1,0.3,0.3,0.3c0,0,0,0,0,0c0.1,0,0.2,0,0.2-0.1c0,0,0.1-0.1,0.1-0.2v0c0-0.3,0-0.6-0.3-0.9
				c-0.3-0.3-0.9-0.6-1.8-0.8c-1-0.3-2.5-0.5-4.4-0.7c-1.8-0.2-3.9-0.4-6.1-0.4c-1.9-0.1-3.9-0.1-6-0.1c-0.5,0-1,0-1.4,0
				c-2.6,0-5,0.1-6.9,0.2c-1.8,0.1-3.3,0.3-4.6,0.5c-1.2,0.2-2.1,0.4-2.7,0.6c-0.7,0.2-1.2,0.3-1.5,0.5c-0.4,0.1-0.6,0.3-0.8,0.4
				c-0.2,0.1-0.3,0.3-0.4,0.4c-0.1,0.1-0.1,0.3-0.1,0.4c0,0.1,0,0.1,0,0.2c0,0.1,0.1,0.1,0.2,0.1c0.2,0,0.3-0.1,0.4-0.2
				c0-0.1,0-0.2,0.1-0.3c0-0.1,0.1-0.2,0.2-0.2C87.6,194.4,87.8,194.3,88.1,194.2z"/>
			<path class="st0" d="M113.8,222.4c1-0.1,2.1-0.3,3.2-0.6c1.1-0.2,2-0.5,2.8-0.7c0.6-0.2,1.1-0.4,1.5-0.6c0.4-0.2,0.6-0.4,0.7-0.5
				c0.2-0.2,0.3-0.2,0.3-0.9c0.1-0.6,0.1-1.6,0.2-3.8c0.1-2.1,0.3-5.2,0.5-8.8c0.2-3.5,0.4-7.4,0.6-11.4l0-0.5c0-0.1,0-0.1-0.1-0.2
				c-0.1-0.1-0.1-0.1-0.2-0.1c-0.2,0-0.3,0.1-0.3,0.2v0l0,0.5c-0.2,4-0.4,7.9-0.6,11.4c-0.2,3.6-0.4,6.7-0.5,8.8
				c-0.1,2.1-0.2,3.2-0.2,3.7c-0.1,0.5-0.1,0.5-0.2,0.6c-0.1,0.1-0.2,0.2-0.6,0.4c-0.4,0.2-0.8,0.4-1.4,0.5
				c-0.7,0.2-1.6,0.4-2.7,0.7c-1,0.2-2.1,0.4-3.1,0.6c-1,0.1-2.1,0.3-3.3,0.4c-1,0.1-2.1,0.1-3.1,0.2c-1,0-2,0-2.9,0
				c-0.9,0-1.9-0.1-2.9-0.1c-1.1-0.1-2.2-0.1-3.2-0.2c-1-0.1-2-0.2-2.8-0.3c-0.9-0.1-1.7-0.3-2.5-0.4c-0.8-0.2-1.6-0.3-2.2-0.5
				c-0.5-0.1-0.9-0.3-1.2-0.4c-0.3-0.1-0.5-0.2-0.7-0.3c-0.1-0.1-0.2-0.2-0.3-0.6c-0.1-0.6-0.2-1.7-0.4-3.7
				c-0.3-4.2-0.7-12.6-1.1-20.7c0-0.2-0.1-0.3-0.3-0.3c0,0,0,0,0,0c-0.1,0-0.2,0-0.2,0.1c0,0-0.1,0.1-0.1,0.2l0,0.1
				c0.4,8.1,0.9,16.5,1.1,20.6c0.1,2,0.2,3.2,0.4,3.8c0.1,0.7,0.3,0.8,0.5,0.9c0.2,0.1,0.4,0.2,0.7,0.3c0.4,0.2,0.8,0.3,1.3,0.5
				c0.6,0.2,1.4,0.4,2.2,0.5c0.8,0.2,1.7,0.3,2.5,0.4c0.9,0.1,1.8,0.2,2.8,0.3c1,0.1,2.1,0.2,3.2,0.2c1,0.1,2,0.1,2.9,0.1
				c1,0,2,0,3,0c1.1,0,2.2-0.1,3.2-0.2C111.6,222.7,112.7,222.6,113.8,222.4z"/>
			<path class="st0" d="M101.1,194.7c-0.1,0.2,0,0.4,0.1,0.5c0.1,0.1,0.4,0.3,0.7,0.4c0,0,0.1,0,0.2,0.1c0.4,0.1,0.9,0.2,1.4,0.3
				c0.6,0.1,1.2,0.1,1.7,0.1c0,0,0,0,0.1,0c1,0,1.8-0.1,2.5-0.3c0.1,0,0.2-0.1,0.2-0.1c0-0.1,0-0.1,0-0.2c0-0.1-0.2-0.2-0.4-0.2
				c-0.7,0.1-1.4,0.3-2.4,0.3c-0.5,0-1.1,0-1.6-0.1c-0.5-0.1-1-0.2-1.3-0.3c0,0-0.1,0-0.1,0c-0.1,0-0.2-0.1-0.3-0.1l-0.4-0.2l0.5,0
				c0,0,0.1,0,0.2,0l0,0c0.1,0,0.2-0.1,0.2-0.1c0-0.1,0-0.1,0-0.2c0-0.1-0.2-0.2-0.4-0.2l0,0C101.5,194.4,101.2,194.4,101.1,194.7z"
				/>
			<path class="st0" d="M105.1,194.5c0.3-0.3,0.6-0.6,0.5-1.1c0-0.3-0.1-0.6-0.2-0.9c-0.1-0.2-0.2-0.5-0.2-0.7c0-0.2-0.1-0.4,0-0.7
				c0-0.2,0.1-0.5,0.1-0.7c0-0.1,0-0.1,0-0.2c0-0.1-0.1-0.1-0.2-0.1c0,0,0,0,0,0c-0.1,0-0.3,0.1-0.3,0.2c0,0.2-0.1,0.5-0.1,0.8
				c0,0.3,0,0.6,0,0.8c0.1,0.3,0.1,0.5,0.2,0.8c0.1,0.3,0.2,0.6,0.2,0.8c0,0.3-0.2,0.5-0.4,0.7c-0.1,0.1-0.1,0.1-0.1,0.2
				s0,0.1,0.1,0.2C104.7,194.7,104.9,194.7,105.1,194.5L105.1,194.5z"/>
			<path class="st0" d="M114.2,188.1c1.9-0.1,3.6-0.3,5-0.5c1.3-0.2,2.3-0.4,2.9-0.6c0.7-0.2,1.2-0.3,1.7-0.5
				c0.4-0.1,0.7-0.2,0.9-0.4c0.4-0.3,0.5-0.5,0.5-0.8c0-0.1,0-0.1-0.1-0.2c-0.1-0.1-0.1-0.1-0.2-0.1c-0.2,0-0.3,0.1-0.3,0.2
				c0,0.1,0,0.3-0.2,0.4c-0.2,0.1-0.4,0.2-0.7,0.3c-0.4,0.1-0.9,0.3-1.6,0.4c-0.7,0.2-1.6,0.4-2.9,0.6c-1.5,0.2-3.1,0.4-5,0.5
				c-2.1,0.1-4.7,0.2-7.5,0.3c-2.8,0-5.6,0-8.1-0.1c-2.3-0.1-4.6-0.2-6.6-0.4c-2-0.2-3.6-0.4-4.7-0.7c-0.9-0.2-1.4-0.4-1.7-0.6
				c-0.2-0.2-0.2-0.4-0.2-0.6c0-0.1-0.1-0.3-0.3-0.3c0,0,0,0,0,0c-0.1,0-0.2,0-0.2,0.1c0,0-0.1,0.1-0.1,0.2v0c0,0.3,0,0.6,0.4,0.9
				c0.3,0.3,1,0.6,2,0.8c1.1,0.3,2.8,0.5,4.8,0.7c2,0.2,4.3,0.3,6.6,0.4c2.5,0.1,5.3,0.1,8.1,0.1
				C109.5,188.4,112.1,188.3,114.2,188.1z"/>
			<g>
				<path class="st0" d="M97.3,217.4c0,0.1,0.1,0.1,0.2,0.1l1.1,0.1c0.2,0,0.3,0,0.6,0c0.4,0,0.7,0.1,1,0.1c0.3,0,0.7,0,1.1,0.1
					c0.2,0,0.3-0.1,0.3-0.2c0-0.1,0-0.1-0.1-0.2c-0.1-0.1-0.1-0.1-0.2-0.1h0c-0.3,0-0.7,0-1-0.1c-0.4,0-0.7-0.1-1-0.1l-1.6-0.2
					c0,0,0,0,0,0c-0.2,0-0.3,0.1-0.3,0.2C97.2,217.3,97.2,217.3,97.3,217.4z"/>
				<path class="st0" d="M95.2,217.2c0.2,0,0.3-0.1,0.3-0.2c0-0.1,0-0.1,0-0.2c0-0.1-0.1-0.1-0.2-0.1c-1.9-0.3-3.6-0.7-5.2-1l-0.1,0
					c-0.2,0-0.3,0.1-0.4,0.2c0,0.1,0,0.1,0,0.2c0,0.1,0.1,0.1,0.2,0.1l0.1,0C91.6,216.5,93.3,216.9,95.2,217.2z"/>
			</g>
			<path class="st0" d="M125.2,218.8c0.2-0.6,0.3-1.1,0.5-1.7c0.1-0.4,0.1-0.6,0.2-0.7c0.2-1.1,0.5-2.2,0.8-3.3
				c0.2-0.6,0.4-1.2,0.7-1.8c0.3-0.6,0.6-1.2,0.8-1.6c0.4-0.8,0.8-1.1,1.3-1.7l0.1-0.1c0.2-0.2,0.6-0.6,1.1-1.1l1.2-1.3
				c0,0,0.1-0.1,0.1-0.2c0-0.1,0-0.1-0.1-0.2c-0.1-0.1-0.3-0.1-0.4,0l-1.2,1.3c-0.3,0.3-0.7,0.7-1.1,1.1l-0.1,0.1
				c-0.6,0.6-0.9,0.9-1.4,1.8c-0.3,0.5-0.6,1.1-0.9,1.7c-0.3,0.6-0.5,1.2-0.7,1.8c-0.4,1.1-0.6,2.3-0.8,3.4l-0.2,0.7
				c-0.1,0.6-0.3,1.1-0.4,1.7c-0.2,0.6-0.5,1.2-0.8,1.9c-0.3,0.6-0.7,1.3-1.1,1.9v1h0c0.7-1.1,1.2-2.1,1.6-2.7
				C124.7,220.1,125,219.4,125.2,218.8z"/>
			<path class="st0" d="M125.5,220.1c0.3-0.3,0.7-0.6,1-0.9c0.3-0.3,0.7-0.5,1-0.8c0.3-0.2,0.7-0.4,1-0.7c0.7-0.4,1.3-0.8,2-1.1
				c0.1,0,0.1-0.1,0.2-0.2c0-0.1,0-0.1,0-0.2c-0.1-0.1-0.3-0.2-0.4-0.1l0,0c-0.6,0.3-1.3,0.7-2,1.1c-0.4,0.2-0.8,0.5-1.1,0.7
				c-0.4,0.3-0.7,0.5-1.1,0.8c-0.3,0.3-0.7,0.6-1,1c-0.3,0.3-0.6,0.7-1,1.1c-0.5,0.6-1,1.2-1.4,1.8v0.9h0c0.6-0.8,1.2-1.6,1.8-2.4
				C124.9,220.8,125.2,220.4,125.5,220.1z"/>
			<path class="st0" d="M134.4,211.5c0,0-0.1,0-0.2,0c-0.2,0-0.5,0.1-0.9,0.2c-0.3,0.1-0.6,0.2-0.9,0.3c-0.3,0.1-0.7,0.3-1.1,0.5
				c-0.3,0.2-0.7,0.4-1.1,0.7c-0.4,0.3-0.7,0.5-1.1,0.8c-0.3,0.3-0.6,0.5-0.9,0.8c-0.3,0.3-0.5,0.6-0.7,0.9
				c-0.2,0.3-0.4,0.6-0.5,0.9c-0.1,0.2-0.2,0.4-0.2,0.6c-0.1,0.3-0.1,0.5-0.1,0.6c0,0.2,0,0.3,0.1,0.4c0.1,0.1,0.2,0.2,0.4,0.2
				c0.2,0,0.4,0.1,0.7,0.1c0.3,0,0.5,0,0.8,0c0.4,0,0.8-0.1,1.1-0.2c0.4-0.1,0.8-0.3,1.2-0.5c0.4-0.2,0.8-0.6,1.1-1
				c0.3-0.4,0.7-0.8,0.9-1.3c0.4-0.7,0.6-1.3,0.7-1.9c0.1-0.2,0.1-0.3,0.1-0.5c0.1-0.3,0.2-0.5,0.3-0.6c0.1-0.1,0.1-0.2,0.2-0.3
				l0.1-0.1c0.1-0.1,0.2-0.2,0.1-0.3C134.7,211.6,134.7,211.5,134.4,211.5z M133.8,212.3c-0.1,0.2-0.2,0.4-0.2,0.6
				c0,0.1-0.1,0.3-0.1,0.5c-0.2,0.5-0.4,1.2-0.7,1.8c-0.2,0.4-0.5,0.8-0.8,1.2c-0.3,0.4-0.7,0.7-1,0.9c-0.3,0.2-0.6,0.4-1,0.5
				c-0.3,0.1-0.6,0.1-1,0.2h0c-0.3,0-0.5,0-0.8,0c-0.2,0-0.3,0-0.4,0l0,0.1l-0.1-0.1l0,0l-0.1-0.1l0,0l0,0l0,0l0.1-0.1
				c0-0.1,0-0.3,0.1-0.5c0-0.2,0.1-0.4,0.2-0.6c0.1-0.3,0.3-0.5,0.4-0.8c0.2-0.3,0.4-0.5,0.7-0.8c0.2-0.2,0.5-0.5,0.8-0.8
				c0.3-0.3,0.7-0.5,1-0.8c0.3-0.2,0.7-0.4,1-0.6c0.3-0.2,0.7-0.3,1-0.5c0.3-0.1,0.5-0.2,0.8-0.2l0.4-0.1L133.8,212.3z"/>
			<path class="st0" d="M130.3,215c0.3-0.2,0.6-0.5,1-0.8c0.8-0.5,1.8-1.2,2.9-1.9l0.1,0c0.1,0,0.1-0.1,0.1-0.2c0-0.1,0-0.1,0-0.2
				c-0.1-0.1-0.2-0.1-0.2-0.1c-0.1,0-0.1,0-0.2,0.1l0,0c-1,0.7-2.1,1.4-2.9,1.9c-0.4,0.3-0.7,0.6-1,0.8c-0.3,0.2-0.6,0.5-0.8,0.8
				c-0.5,0.6-1.1,1.3-1.7,2c0,0.1-0.1,0.1-0.1,0.2c0,0.1,0.1,0.1,0.1,0.2c0.1,0.1,0.3,0.1,0.4-0.1c0.5-0.7,1.1-1.4,1.6-1.9
				C129.7,215.5,130,215.3,130.3,215z"/>
			<path class="st0" d="M134,201.4c-0.5,0.1-0.9,0.3-1.4,0.5c-0.5,0.2-1,0.5-1.5,0.9c-0.5,0.3-0.9,0.7-1.3,1
				c-0.4,0.3-0.7,0.7-0.9,1.1c-0.2,0.3-0.4,0.7-0.6,1.1c-0.2,0.4-0.3,0.8-0.3,1.1c-0.1,0.4-0.1,0.7-0.1,0.9c0,0.3,0.2,0.5,0.4,0.7
				c0.2,0.1,0.5,0.2,0.9,0.2c0.4,0,0.8-0.1,1.3-0.2c0.4-0.1,0.9-0.3,1.3-0.5c0.4-0.2,0.8-0.4,1.2-0.7c0.4-0.3,0.7-0.6,1-0.9
				c0.3-0.3,0.6-0.7,0.8-1c0.2-0.4,0.4-0.7,0.5-1.2c0.1-0.3,0.2-0.6,0.3-1c0.1-0.5,0.2-0.9,0.4-1.2c0.2-0.3,0.4-0.5,0.5-0.6l0,0
				c0.2-0.2,0.2-0.2,0.2-0.4c-0.1-0.1-0.3-0.2-0.6-0.2c0,0-0.1,0-0.1,0c-0.2,0-0.6,0.1-0.9,0.1C134.7,201.2,134.4,201.3,134,201.4z
				 M135.5,201.6l0.3,0l-0.2,0.2c-0.1,0.1-0.1,0.1-0.1,0.2c-0.2,0.4-0.3,0.8-0.4,1.3l0,0c-0.1,0.3-0.2,0.6-0.3,0.9
				c-0.1,0.4-0.3,0.7-0.5,1.1c-0.2,0.3-0.4,0.7-0.7,1c-0.3,0.3-0.6,0.6-1,0.8c-0.4,0.3-0.7,0.5-1.1,0.7c-0.4,0.2-0.8,0.3-1.2,0.4
				c-0.4,0.1-0.8,0.2-1.1,0.2c0,0-0.1,0-0.1,0c-0.2,0-0.3,0-0.4-0.1c-0.1-0.1-0.1-0.2-0.2-0.3c0-0.2,0-0.4,0.1-0.8
				c0.1-0.3,0.2-0.7,0.3-1.1c0.2-0.4,0.3-0.7,0.5-1.1c0.2-0.4,0.5-0.7,0.8-1c0.3-0.3,0.7-0.6,1.2-0.9c0.5-0.3,1-0.6,1.4-0.8
				c0.4-0.2,0.8-0.4,1.3-0.5c0.4-0.1,0.7-0.2,1.1-0.3C135.4,201.6,135.5,201.6,135.5,201.6z"/>
			<g>
				<path class="st0" d="M136.1,201c-0.1,0-0.2,0-0.3,0.1l0,0.1c-0.5,0.8-1.1,1.7-1.6,2.6l-0.1,0.1c-0.5,0.9-1.1,1.8-2,2.5
					c-0.9,0.8-2.2,1.3-3.5,1.9c-0.1,0-0.1,0.1-0.2,0.2c0,0.1,0,0.1,0,0.2c0.1,0.1,0.3,0.2,0.4,0.1c1.3-0.6,2.6-1.1,3.6-2
					c0.9-0.8,1.5-1.7,2.1-2.7l0.1-0.1c0.6-1,1.1-1.8,1.7-2.6c0.1-0.1,0.1-0.1,0-0.2c0-0.1-0.1-0.1-0.1-0.2
					C136.2,201,136.1,201,136.1,201z"/>
				<polygon class="st0" points="135.7,201.1 135.7,201.1 135.7,201.1 				"/>
			</g>
		</g>
		<g>
			<g>
				<g>
					<g>
						<g>
							<path class="st3" d="M366.5,210.3H192.6c-5.5,0-10-4.5-10-10V91.4c0-5.5,4.5-10,10-10h173.9c5.5,0,10,4.5,10,10v108.9
								C376.5,205.8,372,210.3,366.5,210.3z M192.6,81.6c-5.4,0-9.8,4.4-9.8,9.8v108.9c0,5.4,4.4,9.8,9.8,9.8h173.9
								c5.4,0,9.8-4.4,9.8-9.8V91.4c0-5.4-4.4-9.8-9.8-9.8H192.6z"/>
							<path class="st4" d="M366.5,210.1H192.6c-5.5,0-9.9-4.4-9.9-9.9V91.4c0-5.5,4.4-9.9,9.9-9.9h173.9c5.5,0,9.9,4.4,9.9,9.9
								v108.9C376.4,205.7,372,210.1,366.5,210.1z"/>
						</g>
					</g>
					<g>
						<path class="st4" d="M362.8,200.9H196.3c-3.7,0-6.7-3-6.7-6.7V94.7c0-3.7,3-6.7,6.7-6.7h166.6c3.7,0,6.7,3,6.7,6.7v99.6
							C369.5,197.9,366.5,200.9,362.8,200.9z"/>
						<path class="st3" d="M362.8,201H196.3c-3.7,0-6.8-3-6.8-6.8V94.7c0-3.7,3-6.8,6.8-6.8h166.6c3.7,0,6.8,3,6.8,6.8v99.6
							C369.6,198,366.6,201,362.8,201z M196.3,88.1c-3.6,0-6.5,2.9-6.5,6.5v99.6c0,3.6,2.9,6.5,6.5,6.5h166.6c3.6,0,6.5-2.9,6.5-6.5
							V94.7c0-3.6-2.9-6.5-6.5-6.5H196.3z"/>
					</g>
					<g>
						<path class="st3" d="M196.9,95.9c-1.1,0-2-0.9-2-1.9c0-1,0.9-1.9,2-1.9s2,0.9,2,1.9C198.9,95,198,95.9,196.9,95.9z
							 M196.9,92.3c-1,0-1.7,0.7-1.7,1.7s0.8,1.7,1.7,1.7s1.7-0.7,1.7-1.7S197.9,92.3,196.9,92.3z"/>
						<path class="st3" d="M203.1,95.9c-1.1,0-2-0.9-2-1.9c0-1,0.9-1.9,2-1.9s2,0.9,2,1.9C205.1,95,204.2,95.9,203.1,95.9z
							 M203.1,92.3c-1,0-1.7,0.7-1.7,1.7s0.8,1.7,1.7,1.7s1.7-0.7,1.7-1.7S204.1,92.3,203.1,92.3z"/>
						<path class="st3" d="M209.4,95.9c-1.1,0-2-0.9-2-1.9c0-1,0.9-1.9,2-1.9c1.1,0,2,0.9,2,1.9C211.4,95,210.5,95.9,209.4,95.9z
							 M209.4,92.3c-1,0-1.7,0.7-1.7,1.7s0.8,1.7,1.7,1.7s1.7-0.7,1.7-1.7S210.3,92.3,209.4,92.3z"/>
					</g>
					<g>
						<g>
							<g>
								<path class="st2" d="M330,154.3h-3.6l0,0l-3.4-4.5l0.1-0.1l3.4-4.5h3.6l-3.3,4.5L330,154.3z M326.5,154.1h3l-3.1-4.3
									l3.2-4.3h-3l-3.2,4.3L326.5,154.1z"/>
								<path class="st2" d="M331.7,159.9h-3.6l0.1-0.2l7.8-21.2h3.6l-0.1,0.2L331.7,159.9z M328.5,159.6h3l7.7-20.9h-3L328.5,159.6
									z"/>
								<path class="st2" d="M341.1,154.3h-3.6l3.3-4.5l-3.3-4.5h3.6l0,0l3.4,4.5l-0.1,0.1L341.1,154.3z M338,154.1h3l3.2-4.3
									l-3.2-4.3h-3l3.2,4.3L338,154.1z"/>
							</g>
						</g>
						<g>
							<g>
								<path class="st2" d="M353.7,190.1h-39.9c-1,0-1.7-0.8-1.7-1.7v-78.7c0-1,0.8-1.7,1.7-1.7h39.9c1,0,1.7,0.8,1.7,1.7v78.7
									C355.4,189.3,354.7,190.1,353.7,190.1z M313.8,108.1c-0.8,0-1.5,0.7-1.5,1.5v78.7c0,0.8,0.7,1.5,1.5,1.5h39.9
									c0.8,0,1.5-0.7,1.5-1.5v-78.7c0-0.8-0.7-1.5-1.5-1.5H313.8z"/>
								<g>
									<g>
										<path class="st2" d="M315.3,188.9c-0.6,0-1.1-0.2-1.5-0.6c-0.4-0.4-0.6-0.9-0.6-1.5c0-0.6,0.2-1.1,0.6-1.5
											c0.5-0.4,1.1-0.6,1.7-0.6l0.5,0l-0.5,0.2c-0.1,0.1-0.3,0.1-0.4,0.2c-0.2,0.2-0.4,0.5-0.4,0.9s0.1,0.6,0.4,0.9
											c0.5,0.5,1.3,0.5,1.8,0c0.1-0.1,0.2-0.2,0.3-0.4l0.2-0.4l0,0.5c0.1,0.6-0.2,1.2-0.6,1.6
											C316.4,188.7,315.9,188.9,315.3,188.9z M315,185c-0.4,0.1-0.8,0.2-1.1,0.5c-0.4,0.3-0.6,0.8-0.6,1.3
											c0,0.5,0.2,0.9,0.6,1.3c0.8,0.7,2,0.7,2.7,0c0.3-0.3,0.5-0.6,0.5-1c0,0,0,0-0.1,0.1c-0.6,0.6-1.6,0.6-2.2,0
											c-0.3-0.3-0.5-0.7-0.5-1S314.7,185.3,315,185C315,185,315,185,315,185z"/>
										<path class="st2" d="M315.3,113.3c-0.6,0-1.1-0.2-1.5-0.6c-0.4-0.4-0.6-0.9-0.6-1.5c0-0.6,0.2-1.1,0.6-1.5
											c0.9-0.8,2.2-0.8,3.1,0c0.5,0.4,0.7,1,0.6,1.6l0,0.5l-0.2-0.4c-0.1-0.1-0.1-0.2-0.3-0.4c-0.5-0.5-1.3-0.5-1.8,0
											c-0.2,0.2-0.4,0.5-0.4,0.9c0,0.3,0.1,0.6,0.4,0.9c0.1,0.1,0.2,0.2,0.4,0.2l0.5,0.2l-0.5,0
											C315.4,113.3,315.4,113.3,315.3,113.3z M315.3,109.3c-0.5,0-1,0.2-1.4,0.5c-0.4,0.3-0.6,0.8-0.6,1.3
											c0,0.5,0.2,0.9,0.6,1.3c0.3,0.3,0.7,0.5,1.1,0.5c0,0,0,0,0,0c-0.3-0.3-0.5-0.7-0.5-1c0-0.4,0.2-0.8,0.5-1
											c0.6-0.6,1.6-0.6,2.2,0c0,0,0,0,0.1,0.1c-0.1-0.4-0.2-0.7-0.5-1C316.3,109.5,315.8,109.3,315.3,109.3z"/>
									</g>
									<g>
										<path class="st2" d="M352.1,113.3c-0.1,0-0.1,0-0.2,0l-0.5,0l0.5-0.2c0.1-0.1,0.3-0.1,0.4-0.2c0.2-0.2,0.4-0.5,0.4-0.9
											c0-0.3-0.1-0.6-0.4-0.9c-0.5-0.5-1.3-0.5-1.8,0c-0.1,0.1-0.2,0.2-0.3,0.4l-0.2,0.4l0-0.5c-0.1-0.6,0.2-1.2,0.6-1.6
											c0.9-0.8,2.2-0.8,3.1,0c0.4,0.4,0.6,0.9,0.6,1.5c0,0.6-0.2,1.1-0.6,1.5C353.3,113,352.7,113.3,352.1,113.3z M351.4,110.4
											c0.4,0,0.8,0.1,1.1,0.4c0.3,0.3,0.5,0.7,0.5,1c0,0.4-0.2,0.8-0.5,1c0,0,0,0,0,0c0.4-0.1,0.8-0.2,1.1-0.5
											c0.4-0.3,0.6-0.8,0.6-1.3c0-0.5-0.2-0.9-0.6-1.3c-0.8-0.7-2-0.7-2.7,0c-0.3,0.3-0.5,0.6-0.5,1c0,0,0,0,0.1-0.1
											C350.6,110.6,351,110.4,351.4,110.4z"/>
										<path class="st2" d="M352.1,188.9c-0.6,0-1.1-0.2-1.5-0.6c-0.5-0.4-0.7-1-0.6-1.6l0-0.5l0.2,0.4c0.1,0.1,0.1,0.2,0.3,0.4
											c0.5,0.5,1.3,0.5,1.8,0c0.2-0.2,0.4-0.5,0.4-0.9c0-0.3-0.1-0.6-0.4-0.9c-0.1-0.1-0.2-0.2-0.4-0.2l-0.5-0.2l0.5,0
											c0.6,0,1.3,0.2,1.7,0.6c0.4,0.4,0.6,0.9,0.6,1.5c0,0.6-0.2,1.1-0.6,1.5C353.3,188.7,352.7,188.9,352.1,188.9z
											 M350.2,187.1c0.1,0.4,0.2,0.7,0.5,1c0.8,0.7,2,0.7,2.7,0c0.4-0.3,0.6-0.8,0.6-1.3c0-0.5-0.2-0.9-0.6-1.3
											c-0.3-0.3-0.7-0.5-1.1-0.5c0,0,0,0,0,0c0.3,0.3,0.5,0.7,0.5,1s-0.2,0.8-0.5,1C351.9,187.7,350.9,187.7,350.2,187.1
											C350.3,187.1,350.2,187.1,350.2,187.1z"/>
									</g>
								</g>
								<g>
									<path class="st2" d="M314.7,150.7l-0.6-1.1l-1.1-0.6l1.1-0.6l0.6-1.1l0.6,1.1l1.1,0.6l-1.1,0.6L314.7,150.7z M313.4,149
										l0.8,0.4l0.4,0.8l0.4-0.8l0,0l0.8-0.4l-0.8-0.4l-0.4-0.8l-0.4,0.8l0,0L313.4,149z"/>
									<g>
										<rect x="313.1" y="113.6" class="st2" width="0.2" height="33.8"/>
										<rect x="313.1" y="150.7" class="st2" width="0.2" height="33.8"/>
									</g>
								</g>
								<g>
									<path class="st2" d="M333.6,189.1L333,188l-1.1-0.6l1.1-0.6l0.6-1.1l0.6,1.1l1.1,0.6l-1.1,0.6L333.6,189.1z M332.4,187.4
										l0.8,0.4l0.4,0.8l0.4-0.8l0,0l0.7-0.4l-0.8-0.4l-0.4-0.8l-0.4,0.8l0,0L332.4,187.4z"/>
									<g>
										<rect x="318" y="188.6" class="st2" width="13.9" height="0.2"/>
										<rect x="335.4" y="188.6" class="st2" width="14" height="0.2"/>
									</g>
								</g>
								<g>
									<path class="st2" d="M333.6,112.2l-0.6-1.1l-1.1-0.6l1.1-0.6l0.6-1.1l0.6,1.1l1.1,0.6l-1.1,0.6L333.6,112.2z M332.4,110.6
										l0.8,0.4l0.4,0.8l0.4-0.8l0,0l0.7-0.4l-0.8-0.4l-0.4-0.8l-0.4,0.8l0,0L332.4,110.6z"/>
									<g>
										<rect x="318" y="109.1" class="st2" width="13.9" height="0.2"/>
										<rect x="335.4" y="109.1" class="st2" width="14" height="0.2"/>
									</g>
								</g>
								<g>
									<path class="st2" d="M352.8,150.7l-0.6-1.1L351,149l1.1-0.6l0.6-1.1l0.6,1.1l1.1,0.6l-1.1,0.6L352.8,150.7z M351.6,149
										l0.8,0.4l0.4,0.8l0.4-0.8l0,0l0.7-0.4l-0.8-0.4l-0.4-0.8l-0.4,0.8l0,0L351.6,149z"/>
									<g>
										<rect x="354.1" y="113.6" class="st2" width="0.2" height="33.8"/>
										<rect x="354.1" y="150.7" class="st2" width="0.2" height="33.8"/>
									</g>
								</g>
							</g>
						</g>
					</g>
					<g>
						<g>
							<g>
								<path class="st2" d="M226.5,156.2h-2.2c-1.9,0-3.6-1-4.5-2.7l-1.2-2.3c-0.7-1.4-0.7-3.1,0.2-4.5l5.2-8.3
									c0.2-0.2,0.4-0.4,0.7-0.3l0.1,0v8.7l-0.1,0c-0.8,0.2-1.3,0.9-1.3,1.7c0,1,0.9,1.8,1.9,1.8s1.9-0.8,1.9-1.8
									c0-0.8-0.5-1.5-1.3-1.7l-0.1,0v-8.7l0.1,0c0.3-0.1,0.6,0.1,0.7,0.3l5.2,8.3c0.9,1.4,0.9,3.1,0.2,4.5l-1.2,2.3
									C230.1,155.2,228.4,156.2,226.5,156.2z M224.6,138.4c-0.1,0-0.3,0.1-0.4,0.2l-5.2,8.3c-0.8,1.3-0.9,2.9-0.2,4.2l1.2,2.3
									c0.8,1.5,2.5,2.5,4.2,2.5h2.2c1.8,0,3.5-1,4.2-2.5l1.2-2.3c0.7-1.4,0.6-2.9-0.2-4.2l-5.2-8.3c-0.1-0.1-0.2-0.2-0.4-0.2v8.3
									c0.8,0.3,1.4,1.1,1.4,1.9c0,1.1-1,2-2.1,2s-2.1-0.9-2.1-2c0-0.9,0.6-1.6,1.4-1.9V138.4z"/>
								<g>
									<g>
										<path class="st2" d="M228.1,159.8h-5.4c-0.9,0-1.6-0.7-1.6-1.5v-0.2c0-0.8,0.7-1.5,1.6-1.5h5.4c0.9,0,1.6,0.7,1.6,1.5v0.2
											C229.6,159.1,228.9,159.8,228.1,159.8z M222.7,156.8c-0.7,0-1.3,0.6-1.3,1.2v0.2c0,0.7,0.6,1.2,1.3,1.2h5.4
											c0.7,0,1.3-0.6,1.3-1.2v-0.2c0-0.7-0.6-1.2-1.3-1.2H222.7z"/>
									</g>
								</g>
							</g>
						</g>
						<g>
							<g>
								<path class="st2" d="M245.4,190.1h-39.9c-1,0-1.7-0.8-1.7-1.7v-78.7c0-1,0.8-1.7,1.7-1.7h39.9c1,0,1.7,0.8,1.7,1.7v78.7
									C247.1,189.3,246.3,190.1,245.4,190.1z M205.4,108.1c-0.8,0-1.5,0.7-1.5,1.5v78.7c0,0.8,0.7,1.5,1.5,1.5h39.9
									c0.8,0,1.5-0.7,1.5-1.5v-78.7c0-0.8-0.7-1.5-1.5-1.5H205.4z"/>
								<g>
									<g>
										<path class="st2" d="M207,188.9c-0.6,0-1.1-0.2-1.5-0.6c-0.4-0.4-0.6-0.9-0.6-1.5c0-0.6,0.2-1.1,0.6-1.5
											c0.5-0.4,1.1-0.6,1.7-0.6l0.5,0l-0.5,0.2c-0.1,0.1-0.3,0.1-0.4,0.2c-0.2,0.2-0.4,0.5-0.4,0.9c0,0.3,0.1,0.6,0.4,0.9
											c0.5,0.5,1.3,0.5,1.8,0c0.1-0.1,0.2-0.2,0.3-0.4l0.2-0.4l0,0.5c0.1,0.6-0.2,1.2-0.6,1.6
											C208.1,188.7,207.5,188.9,207,188.9z M206.7,185c-0.4,0.1-0.8,0.2-1.1,0.5c-0.4,0.3-0.6,0.8-0.6,1.3
											c0,0.5,0.2,0.9,0.6,1.3c0.8,0.7,2,0.7,2.7,0c0.3-0.3,0.5-0.6,0.5-1c0,0,0,0-0.1,0.1c-0.6,0.6-1.6,0.6-2.2,0
											c-0.3-0.3-0.5-0.7-0.5-1C206.2,185.7,206.3,185.3,206.7,185C206.7,185,206.7,185,206.7,185z"/>
										<path class="st2" d="M207,113.3c-0.6,0-1.1-0.2-1.5-0.6c-0.4-0.4-0.6-0.9-0.6-1.5c0-0.6,0.2-1.1,0.6-1.5
											c0.9-0.8,2.2-0.8,3.1,0c0.5,0.4,0.7,1,0.6,1.6l0,0.5l-0.2-0.4c-0.1-0.1-0.1-0.2-0.3-0.4c-0.5-0.5-1.3-0.5-1.8,0
											c-0.2,0.2-0.4,0.5-0.4,0.9s0.1,0.6,0.4,0.9c0.1,0.1,0.2,0.2,0.4,0.2l0.5,0.2l-0.5,0C207.1,113.3,207,113.3,207,113.3z
											 M207,109.3c-0.5,0-1,0.2-1.4,0.5c-0.4,0.3-0.6,0.8-0.6,1.3c0,0.5,0.2,0.9,0.6,1.3c0.3,0.3,0.7,0.5,1.1,0.5c0,0,0,0,0,0
											c-0.3-0.3-0.5-0.7-0.5-1s0.2-0.8,0.5-1c0.6-0.6,1.6-0.6,2.2,0c0,0,0,0,0.1,0.1c-0.1-0.4-0.2-0.7-0.5-1
											C208,109.5,207.5,109.3,207,109.3z"/>
									</g>
									<g>
										<path class="st2" d="M243.8,113.3c-0.1,0-0.1,0-0.2,0l-0.5,0l0.5-0.2c0.1-0.1,0.3-0.1,0.4-0.2c0.2-0.2,0.4-0.5,0.4-0.9
											c0-0.3-0.1-0.6-0.4-0.9c-0.5-0.5-1.3-0.5-1.8,0c-0.1,0.1-0.2,0.2-0.3,0.4l-0.2,0.4l0-0.5c-0.1-0.6,0.2-1.2,0.6-1.6
											c0.9-0.8,2.2-0.8,3.1,0c0.4,0.4,0.6,0.9,0.6,1.5c0,0.6-0.2,1.1-0.6,1.5C244.9,113,244.4,113.3,243.8,113.3z M243,110.4
											c0.4,0,0.8,0.1,1.1,0.4c0.3,0.3,0.5,0.7,0.5,1c0,0.4-0.2,0.8-0.5,1c0,0,0,0,0,0c0.4-0.1,0.8-0.2,1.1-0.5
											c0.4-0.3,0.6-0.8,0.6-1.3c0-0.5-0.2-0.9-0.6-1.3c-0.8-0.7-2-0.7-2.7,0c-0.3,0.3-0.5,0.6-0.5,1c0,0,0,0,0.1-0.1
											C242.2,110.6,242.6,110.4,243,110.4z"/>
										<path class="st2" d="M243.8,188.9c-0.6,0-1.1-0.2-1.5-0.6c-0.5-0.4-0.7-1-0.6-1.6l0-0.5l0.2,0.4c0.1,0.1,0.1,0.2,0.3,0.4
											c0.5,0.5,1.3,0.5,1.8,0c0.2-0.2,0.4-0.5,0.4-0.9c0-0.3-0.1-0.6-0.4-0.9c-0.1-0.1-0.2-0.2-0.4-0.2l-0.5-0.2l0.5,0
											c0.6,0,1.3,0.2,1.7,0.6c0.4,0.4,0.6,0.9,0.6,1.5c0,0.6-0.2,1.1-0.6,1.5C244.9,188.7,244.4,188.9,243.8,188.9z
											 M241.9,187.1c0.1,0.4,0.2,0.7,0.5,1c0.8,0.7,2,0.7,2.7,0c0.4-0.3,0.6-0.8,0.6-1.3c0-0.5-0.2-0.9-0.6-1.3
											c-0.3-0.3-0.7-0.5-1.1-0.5c0,0,0,0,0,0c0.3,0.3,0.5,0.7,0.5,1c0,0.4-0.2,0.8-0.5,1C243.5,187.7,242.5,187.7,241.9,187.1
											C241.9,187.1,241.9,187.1,241.9,187.1z"/>
									</g>
								</g>
								<g>
									<path class="st2" d="M206.3,150.7l-0.6-1.1l-1.1-0.6l1.1-0.6l0.6-1.1l0.6,1.1l1.1,0.6l-1.1,0.6L206.3,150.7z M205.1,149
										l0.8,0.4l0.4,0.8l0.4-0.8l0,0l0.7-0.4l-0.8-0.4l-0.4-0.8l-0.4,0.8l0,0L205.1,149z"/>
									<g>
										<rect x="204.8" y="113.6" class="st2" width="0.2" height="33.8"/>
										<rect x="204.8" y="150.7" class="st2" width="0.2" height="33.8"/>
									</g>
								</g>
								<g>
									<path class="st2" d="M225.3,189.1l-0.6-1.1l-1.1-0.6l1.1-0.6l0.6-1.1l0.6,1.1l1.1,0.6l-1.1,0.6L225.3,189.1z M224.1,187.4
										l0.8,0.4l0.4,0.8l0.4-0.8l0,0l0.7-0.4l-0.8-0.4l-0.4-0.8l-0.4,0.8l0,0L224.1,187.4z"/>
									<g>
										<rect x="209.7" y="188.6" class="st2" width="13.9" height="0.2"/>
										<rect x="227.1" y="188.6" class="st2" width="14" height="0.2"/>
									</g>
								</g>
								<g>
									<path class="st2" d="M225.3,112.2l-0.6-1.1l-1.1-0.6l1.1-0.6l0.6-1.1l0.6,1.1l1.1,0.6l-1.1,0.6L225.3,112.2z M224.1,110.6
										l0.8,0.4l0.4,0.8l0.4-0.8l0,0l0.7-0.4l-0.8-0.4l-0.4-0.8l-0.4,0.8l0,0L224.1,110.6z"/>
									<g>
										<rect x="209.7" y="109.1" class="st2" width="13.9" height="0.2"/>
										<rect x="227.1" y="109.1" class="st2" width="14" height="0.2"/>
									</g>
								</g>
								<g>
									<path class="st2" d="M244.5,150.7l-0.6-1.1l-1.1-0.6l1.1-0.6l0.6-1.1l0.6,1.1l1.1,0.6l-1.1,0.6L244.5,150.7z M243.2,149
										l0.8,0.4l0.4,0.8l0.4-0.8l0,0l0.7-0.4l-0.8-0.4l-0.4-0.8l-0.4,0.8l0,0L243.2,149z"/>
									<g>
										<rect x="245.7" y="113.6" class="st2" width="0.2" height="33.8"/>
										<rect x="245.7" y="150.7" class="st2" width="0.2" height="33.8"/>
									</g>
								</g>
							</g>
						</g>
					</g>
				</g>
				<g>
					<path class="st4" d="M399.4,207.2H159.7l3.6,9.1h0l0.3,0.7c1.1,2.7,3.1,4.8,5.7,6.1c0.5,0.2,1.1,0.5,1.6,0.6
						c0.3,0.1,0.6,0.2,0.8,0.2c0.9,0.2,1.8,0.3,2.7,0.3h0h210.3c4.9,0,9.2-2.9,10.9-7.2l0.3-0.7l0,0L399.4,207.2z"/>
					<path class="st3" d="M384.7,224.3H174.4c-0.9,0-1.8-0.1-2.7-0.3c-0.3-0.1-0.6-0.1-0.9-0.2c-0.6-0.2-1.1-0.4-1.6-0.6
						c-2.7-1.3-4.8-3.4-5.8-6.1l-3.9-10h240.1l-3.9,10C394,221.4,389.6,224.3,384.7,224.3z M159.9,207.3l3.8,9.6c1,2.6,3,4.7,5.7,6
						c0.5,0.2,1.1,0.4,1.6,0.6c0.3,0.1,0.6,0.2,0.8,0.2c0.9,0.2,1.8,0.3,2.6,0.3h210.3c4.8,0,9.1-2.9,10.8-7.1l3.8-9.6H159.9z"/>
				</g>
			</g>
			<g>
				<path class="st0" d="M88,223.8c-0.3-0.1-0.4-0.3-0.5-1c-0.2-0.9-0.3-2.4-0.5-5.5c-0.2-3.1-0.6-8.4-1-14
					c-0.3-4.5-0.5-8.1-0.7-10.6c-0.2-3.1-0.2-4.8-0.2-5.8c0-0.8,0.1-1,0.2-1.2c0.1-0.1,0.3-0.3,0.5-0.4c0.2-0.1,0.6-0.2,1-0.3
					c0.5-0.1,1.1-0.3,1.8-0.4c0.6-0.1,1.4-0.3,2.1-0.4c1-0.1,2-0.3,3.1-0.4c1.1-0.1,2.2-0.2,3.3-0.3c1.2-0.1,2.4-0.1,3.8-0.2
					c1.2,0,2.6,0,4.2,0c1.8,0,3.3,0,4.7,0c1.8,0,3.4,0.1,4.8,0.2c1.5,0.1,3.1,0.3,4.5,0.5c1.4,0.2,2.7,0.4,3.6,0.7
					c0.8,0.2,1.4,0.4,1.8,0.6c0.3,0.2,0.5,0.3,0.6,0.4c0.1,0.1,0.1,0.2,0.1,0.8c0,0.8-0.1,2.4-0.3,5.3l-0.6,8.5
					c-0.4,5.5-0.8,11.7-1,15.5l-0.1,0.8c-0.3,5.2-0.3,5.3-0.5,5.7c-0.1,0.2-0.3,0.5-0.6,0.8c-0.3,0.2-0.6,0.5-1,0.7h1.1
					c0.1-0.1,0.3-0.2,0.4-0.3c0.4-0.4,0.6-0.7,0.7-1c0.2-0.5,0.2-0.7,0.6-5.9l0.1-0.8c0.3-3.9,0.7-10.2,1-15.8l0.5-8.1
					c0.2-2.9,0.3-4.5,0.3-5.3c0-0.9-0.1-1-0.3-1.2c-0.2-0.2-0.4-0.3-0.8-0.5c-0.5-0.2-1.1-0.5-1.9-0.7c-0.9-0.2-2.2-0.5-3.7-0.7
					c-1.4-0.2-3-0.4-4.5-0.5c-1.5-0.1-3.1-0.2-4.9-0.2c-1.4,0-2.9,0-4.7,0c-1.6,0-3,0-4.2,0c-1.4,0-2.7,0.1-3.8,0.2
					c-1.1,0.1-2.2,0.2-3.3,0.3c-1.1,0.1-2.1,0.2-3.1,0.4c-0.8,0.1-1.5,0.2-2.2,0.4c-0.7,0.1-1.3,0.3-1.8,0.4
					c-0.5,0.1-0.8,0.3-1.1,0.4c-0.3,0.1-0.5,0.3-0.7,0.5c-0.2,0.2-0.3,0.4-0.3,1.5c0,1,0,2.7,0.2,5.8c0.1,2.5,0.4,6,0.7,10.6
					c0.4,5.5,0.7,10.9,1,14c0.2,3.2,0.4,4.7,0.5,5.6c0.1,0.6,0.2,0.9,0.4,1.1h1C88.1,223.9,88,223.8,88,223.8z"/>
				<path class="st0" d="M116.3,225.4c-1.6,0.3-3.3,0.6-4.9,0.7c-1.6,0.2-3.4,0.2-5.2,0.2c-0.1,0-0.2,0-0.3,0
					c-1.6,0-3.4-0.1-5.3-0.2c-1.7-0.1-3.2-0.3-4.7-0.5c-1.5-0.2-2.8-0.4-3.9-0.6c-0.3-0.1-0.5-0.1-0.7-0.2h-1.9c0,0,0.1,0,0.1,0
					c0.7,0.2,1.5,0.5,2.4,0.6c1.1,0.2,2.4,0.5,3.9,0.6c1.5,0.2,3.1,0.3,4.8,0.5c1.9,0.1,3.7,0.2,5.4,0.2c0.1,0,0.2,0,0.3,0
					c1.9,0,3.6-0.1,5.3-0.2c1.7-0.2,3.4-0.4,5-0.8c1.4-0.3,2.7-0.7,3.7-1h-1.7C117.8,225.1,117.1,225.3,116.3,225.4z"/>
				<path class="st3" d="M87.2,223.9H-0.1v1h89.4c-0.8-0.3-1.4-0.5-1.7-0.7C87.5,224.1,87.3,224.1,87.2,223.9z"/>
				<path class="st3" d="M514.2,223.9h-392c-0.4,0.3-1,0.6-1.7,0.9c-0.1,0-0.3,0.1-0.4,0.1h394.1V223.9z"/>
				<path class="st0" d="M89.7,224.5c-0.6-0.2-1.1-0.4-1.4-0.6h-1c0.1,0.1,0.2,0.2,0.4,0.3c0.3,0.2,0.9,0.4,1.7,0.7h1.9
					C90.7,224.8,90.1,224.7,89.7,224.5z"/>
				<path class="st0" d="M122.2,223.9h-1.1c-0.3,0.1-0.5,0.3-0.9,0.4c-0.5,0.2-1.2,0.4-1.9,0.6h1.7c0.1,0,0.3-0.1,0.4-0.1
					C121.2,224.5,121.7,224.2,122.2,223.9z"/>
			</g>
		</g>
		<g>
			<g>
				<g>
					<g>
						<g>
							<path class="st1" d="M327.9,255.2c1.1-1.6,3-1.1,3.7,0.7c0.3,0.7,0.4,1.6,0.5,2.3c0.2,1.2,0.4,2.4,0.6,3.7
								c-1.1-0.6-2.2-1.2-3.1-2.1C328.5,258.8,326.8,256.7,327.9,255.2z"/>
						</g>
						<g>
							<g>
								<path class="st3" d="M331.6,255.9c-0.7-1.7-2.6-2.3-3.7-0.7c-1.1,1.6,0.6,3.7,1.7,4.6c0.9,0.9,2,1.4,3.1,2.1
									c-0.2-1.2-0.4-2.4-0.6-3.7C332,257.4,331.9,256.6,331.6,255.9z M331.8,254.5c1.4,1.9,1.3,5.3,1.7,7.5
									c0.1,0.3-0.3,0.5-0.5,0.4c0,0-0.1,0-0.1,0c-2.4-0.6-6.7-3.9-6-6.8c-0.8-0.6-1.8-1.6-2.1-2.6c-0.2-0.8,0.6-1.4,1.2-1.9
									c0.6-0.4,1.7-1.2,2.5-0.8c0.3,0.2,0.5,0.6,0.6,0.9c0.3,0.6,0.6,1.3,0.8,2c0,0,0,0,0,0C330.6,253.4,331.3,253.9,331.8,254.5z
									"/>
							</g>
						</g>
					</g>
				</g>
			</g>
			<g>
				<g>
					<g>
						<g>
							<path class="st1" d="M352.2,230.2c1.1-1.6,3-1.1,3.7,0.7c0.3,0.7,0.4,1.6,0.5,2.3c0.2,1.2,0.4,2.4,0.6,3.7
								c-1.1-0.6-2.2-1.2-3.1-2.1C352.8,233.9,351.1,231.8,352.2,230.2z"/>
						</g>
						<g>
							<g>
								<path class="st3" d="M355.9,230.9c-0.7-1.7-2.6-2.3-3.7-0.7c-1.1,1.6,0.6,3.7,1.7,4.6c0.9,0.9,2,1.4,3.1,2.1
									c-0.2-1.2-0.4-2.4-0.6-3.7C356.3,232.5,356.2,231.6,355.9,230.9z M356.1,229.6c1.4,1.9,1.3,5.3,1.7,7.5
									c0.1,0.3-0.3,0.5-0.5,0.4c0,0-0.1,0-0.1,0c-2.4-0.6-6.7-3.9-6-6.8c-0.8-0.6-1.8-1.6-2.1-2.6c-0.2-0.8,0.6-1.4,1.2-1.9
									c0.6-0.4,1.7-1.2,2.5-0.8c0.3,0.2,0.5,0.6,0.6,0.9c0.3,0.6,0.6,1.3,0.8,2c0,0,0,0,0,0C354.9,228.5,355.6,228.9,356.1,229.6z
									"/>
							</g>
						</g>
					</g>
				</g>
			</g>
			<g>
				<g>
					<g>
						<g>
							<path class="st1" d="M378.5,225.5c1.9-0.4,2.9,1.3,2.2,3.1c-0.3,0.7-0.8,1.4-1.3,2c-0.7,1-1.4,2-2.1,3.1
								c-0.4-1.2-0.8-2.4-0.8-3.7C376.4,228.5,376.6,225.8,378.5,225.5z"/>
						</g>
						<g>
							<g>
								<path class="st3" d="M380.7,228.5c0.7-1.7-0.3-3.4-2.2-3.1c-1.9,0.4-2.1,3.1-2,4.5c0.1,1.3,0.5,2.5,0.8,3.7
									c0.7-1,1.4-2,2.1-3.1C379.9,229.9,380.4,229.3,380.7,228.5z M381.8,227.7c-0.3,2.3-2.6,4.7-3.9,6.6
									c-0.2,0.3-0.5,0.2-0.7-0.1c0,0,0,0-0.1-0.1c-1.3-2.1-2.2-7.4,0.3-9.1c-0.1-1-0.2-2.4,0.3-3.3c0.4-0.8,1.4-0.7,2.1-0.6
									c0.7,0.1,2.1,0.3,2.3,1.2c0.1,0.4,0,0.7-0.1,1.1c-0.2,0.7-0.5,1.4-0.8,2c0,0,0,0,0,0C381.7,226.1,381.9,226.9,381.8,227.7z"
									/>
							</g>
						</g>
					</g>
				</g>
			</g>
			<g>
				<g>
					<g>
						<g>
							<path class="st1" d="M296.7,255.7c1.9,0,2.6,1.9,1.6,3.5c-0.4,0.7-1.1,1.2-1.6,1.7c-0.9,0.9-1.8,1.7-2.7,2.6
								c-0.1-1.3-0.3-2.5-0.1-3.8C294,258.3,294.8,255.7,296.7,255.7z"/>
						</g>
						<g>
							<g>
								<path class="st3" d="M298.2,259.1c1-1.6,0.4-3.4-1.6-3.5c-1.9,0-2.7,2.6-2.8,4c-0.2,1.3,0,2.5,0.1,3.8
									c0.9-0.9,1.8-1.7,2.7-2.6C297.2,260.3,297.8,259.8,298.2,259.1z M299.5,258.5c-0.8,2.2-3.5,4.1-5.1,5.7
									c-0.2,0.2-0.6,0-0.6-0.2c0,0,0,0-0.1-0.1c-0.9-2.3-0.7-7.7,2.1-8.8c0-1,0.3-2.4,0.9-3.1c0.5-0.7,1.5-0.4,2.2-0.1
									c0.7,0.2,2,0.7,2.1,1.6c0,0.4-0.2,0.7-0.4,1c-0.3,0.6-0.7,1.2-1.2,1.8c0,0,0,0,0,0C299.7,257,299.7,257.8,299.5,258.5z"/>
							</g>
						</g>
					</g>
				</g>
			</g>
			<g>
				<g>
					<g>
						<g>
							<path class="st0" d="M215.2,256c1.7-0.8,3.2,0.6,2.9,2.5c-0.1,0.8-0.5,1.5-0.7,2.3c-0.4,1.2-0.9,2.3-1.3,3.5
								c-0.6-1.1-1.3-2.2-1.7-3.4C213.9,259.5,213.5,256.8,215.2,256z"/>
						</g>
						<g>
							<g>
								<path class="st3" d="M218.1,258.4c0.3-1.9-1.1-3.3-2.9-2.5c-1.7,0.8-1.3,3.5-0.9,4.8c0.4,1.2,1.1,2.3,1.7,3.4
									c0.4-1.2,0.9-2.3,1.3-3.5C217.6,260,218,259.2,218.1,258.4z M218.9,257.4c0.3,2.3-1.5,5.2-2.2,7.3c-0.1,0.3-0.5,0.3-0.7,0.1
									c0,0-0.1,0-0.1,0c-1.8-1.7-3.9-6.7-1.9-8.9c-0.4-0.9-0.7-2.3-0.5-3.2c0.2-0.8,1.2-1,1.9-1.1c0.7-0.1,2.1-0.2,2.6,0.6
									c0.2,0.3,0.1,0.7,0.1,1.1c0,0.7-0.1,1.4-0.3,2.1c0,0,0,0,0,0C218.4,255.9,218.8,256.6,218.9,257.4z"/>
							</g>
						</g>
					</g>
				</g>
			</g>
			<g>
				<g>
					<g>
						<g>
							<path class="st0" d="M268.5,226.9c-1.9,0.2-2.8-1.6-1.9-3.3c0.4-0.7,0.9-1.3,1.4-1.9c0.8-1,1.6-1.9,2.4-2.9
								c0.2,1.2,0.5,2.5,0.5,3.7C270.8,224,270.4,226.7,268.5,226.9z"/>
						</g>
						<g>
							<g>
								<path class="st3" d="M266.5,223.6c-0.9,1.7,0,3.5,1.9,3.3c1.9-0.2,2.4-2.9,2.4-4.3c0-1.3-0.3-2.5-0.5-3.7
									c-0.8,1-1.6,1.9-2.4,2.9C267.5,222.3,266.9,222.9,266.5,223.6z M265.4,224.3c0.5-2.3,3.1-4.5,4.5-6.2
									c0.2-0.3,0.5-0.1,0.6,0.2c0,0,0,0,0.1,0.1c1.1,2.2,1.6,7.6-1.1,9c0.1,1,0,2.4-0.6,3.2c-0.5,0.7-1.5,0.5-2.2,0.4
									c-0.7-0.2-2.1-0.5-2.2-1.4c-0.1-0.4,0.1-0.7,0.2-1.1c0.3-0.7,0.6-1.3,1-1.9c0,0,0,0,0,0
									C265.4,225.9,265.2,225.1,265.4,224.3z"/>
							</g>
						</g>
					</g>
				</g>
			</g>
			<g>
				<g>
					<g>
						<g>
							<path class="st0" d="M249.9,239.8c1.4-1.3,3.2-0.5,3.5,1.4c0.1,0.8,0,1.6,0,2.4c0,1.2-0.1,2.5-0.1,3.7
								c-0.9-0.8-1.9-1.6-2.7-2.6C249.8,243.5,248.5,241.1,249.9,239.8z"/>
						</g>
						<g>
							<g>
								<path class="st3" d="M253.4,241.2c-0.3-1.8-2.1-2.7-3.5-1.4c-1.4,1.3-0.1,3.7,0.7,4.9c0.8,1,1.7,1.8,2.7,2.6
									c0-1.2,0.1-2.5,0.1-3.7C253.5,242.8,253.6,241.9,253.4,241.2z M253.9,239.9c1,2.1,0.3,5.4,0.2,7.6c0,0.3-0.4,0.4-0.6,0.3
									c0,0-0.1,0-0.1,0c-2.2-1-5.9-5.1-4.6-7.8c-0.6-0.7-1.4-1.9-1.5-2.9c-0.1-0.8,0.8-1.3,1.5-1.6c0.7-0.3,1.9-0.8,2.6-0.3
									c0.3,0.2,0.4,0.6,0.5,1c0.2,0.7,0.3,1.4,0.4,2.1c0,0,0,0,0,0C252.9,238.6,253.5,239.1,253.9,239.9z"/>
							</g>
						</g>
					</g>
				</g>
			</g>
			<g>
				<g>
					<g>
						<g>
							<path class="st0" d="M198.7,241.3c-1.9-0.5-2-2.5-0.6-3.7c0.6-0.5,1.4-0.9,2-1.3c1.1-0.6,2.2-1.2,3.2-1.8
								c-0.2,1.2-0.4,2.5-0.9,3.7C201.9,239.5,200.5,241.8,198.7,241.3z"/>
						</g>
						<g>
							<g>
								<path class="st3" d="M198.1,237.6c-1.4,1.2-1.2,3.2,0.6,3.7c1.8,0.5,3.2-1.8,3.8-3.1c0.5-1.2,0.7-2.4,0.9-3.7
									c-1.1,0.6-2.2,1.2-3.2,1.8C199.4,236.7,198.7,237,198.1,237.6z M196.7,237.8c1.3-1.9,4.5-3.1,6.4-4.2
									c0.3-0.2,0.5,0.1,0.5,0.4c0,0,0,0,0,0.1c0.3,2.4-1.3,7.7-4.3,8c-0.3,0.9-0.9,2.2-1.7,2.8c-0.7,0.5-1.6,0-2.2-0.4
									c-0.6-0.4-1.7-1.2-1.6-2.1c0.1-0.4,0.4-0.7,0.6-0.9c0.5-0.5,1-1,1.6-1.4c0,0,0,0,0,0C196.1,239.3,196.3,238.5,196.7,237.8z"
									/>
							</g>
						</g>
					</g>
				</g>
			</g>
			<g>
				<g>
					<g>
						<g>
							<path class="st0" d="M162.3,224.5c1.9-0.4,2.9,1.3,2.2,3.1c-0.3,0.7-0.8,1.4-1.3,2c-0.7,1-1.4,2-2.1,3.1
								c-0.4-1.2-0.8-2.4-0.9-3.7C160.2,227.6,160.4,224.9,162.3,224.5z"/>
						</g>
						<g>
							<g>
								<path class="st3" d="M164.5,227.6c0.7-1.7-0.3-3.4-2.2-3.1c-1.9,0.4-2.1,3.1-2,4.5c0.1,1.3,0.5,2.5,0.9,3.7
									c0.7-1,1.4-2,2.1-3.1C163.7,229,164.2,228.3,164.5,227.6z M165.6,226.8c-0.3,2.3-2.6,4.7-3.9,6.6c-0.2,0.3-0.5,0.2-0.7-0.1
									c0,0,0,0-0.1-0.1c-1.3-2.1-2.2-7.4,0.3-9.1c-0.1-1-0.2-2.4,0.3-3.3c0.4-0.8,1.4-0.7,2.1-0.6c0.7,0.1,2.1,0.3,2.4,1.2
									c0.1,0.4,0,0.7-0.1,1.1c-0.2,0.7-0.5,1.4-0.8,2c0,0,0,0,0,0C165.5,225.2,165.7,225.9,165.6,226.8z"/>
							</g>
						</g>
					</g>
				</g>
			</g>
			<g>
				<g>
					<g>
						<g>
							<path class="st1" d="M337.1,235.1c-0.5,1.9-2.5,2.1-3.7,0.7c-0.5-0.6-0.9-1.3-1.3-2c-0.6-1.1-1.2-2.1-1.9-3.2
								c1.2,0.2,2.5,0.4,3.7,0.8C335.2,231.9,337.5,233.2,337.1,235.1z"/>
						</g>
						<g>
							<g>
								<path class="st3" d="M333.3,235.8c1.3,1.4,3.3,1.2,3.7-0.7c0.5-1.8-1.9-3.2-3.2-3.7c-1.2-0.5-2.4-0.6-3.7-0.8
									c0.6,1.1,1.2,2.1,1.9,3.2C332.4,234.4,332.8,235.2,333.3,235.8z M333.6,237.1c-2-1.3-3.1-4.4-4.3-6.4
									c-0.2-0.3,0.1-0.6,0.4-0.5c0,0,0,0,0.1,0c2.4-0.3,7.7,1.2,8.1,4.2c0.9,0.3,2.3,0.9,2.8,1.7c0.5,0.7,0,1.6-0.4,2.2
									c-0.4,0.6-1.2,1.7-2.1,1.6c-0.4-0.1-0.7-0.4-0.9-0.6c-0.5-0.5-1-1-1.5-1.6c0,0,0,0,0,0C335.1,237.7,334.3,237.5,333.6,237.1
									z"/>
							</g>
						</g>
					</g>
				</g>
			</g>
			<path class="st2" d="M389,224.2c-9-4.6-18.5-5.6-27.5-3c-9.3,2.7-17.3,9.1-23.3,18.6c-5.7,9-15,14.4-25.7,14.8
				c-0.4,0-0.7,0-1.1,0c-10.1,0-19.6-4.7-25.4-12.7c-4.7-6.5-11.2-10.4-18.6-11.1c-8.8-0.9-19.1,2.8-26.3,9.4
				c-9.4,8.6-18.9,12.5-28.4,11.5c-9.9-1-19.4-7.6-27.5-19c-8.1-11.4-20-13.1-28.5-12.5c-9.2,0.7-16.6,4.1-16.7,4.1l-0.1,0.1
				l0.2,0.5l0.1-0.1c0.1,0,7.4-3.4,16.5-4.1c8.4-0.6,20,1,28,12.3c8.2,11.5,17.8,18.2,27.9,19.3c9.6,1,19.3-2.9,28.8-11.6
				c7.1-6.5,17.2-10.1,25.9-9.2c7.3,0.7,13.6,4.5,18.3,10.9c5.9,8.1,15.5,12.9,25.8,12.9c0.4,0,0.7,0,1.1,0
				c10.8-0.4,20.3-5.8,26.1-15c11.9-18.8,31.5-24.9,50.2-15.4l0.1,0.1l0.2-0.4L389,224.2z"/>
		</g>
	</g>
</g>
</svg>
