<?xml version="1.0" encoding="UTF-8"?><svg id="uuid-3ea4cf7c-bbc0-4b7b-b68f-bbf122914a99" xmlns="http://www.w3.org/2000/svg" viewBox="0 0 514.29 264.86"><path d="m194.29,173.14c-1.05-2.05-2.86-3.49-4.21-5.32-1.46-1.98-2.46-4.39-3.17-6.73s-1.19-4.99-1.23-7.53c-.02-1.59.05-3.2.14-4.8.06-1.21.09-2.67.67-3.77.77-1.48,1.72.94,1.91,1.58.42,1.38.62,2.82.85,4.24.43,2.72.49,5.49.64,8.24.27,5.01.89,10.3,4.08,14.37.21.26.67-.09.47-.36-3.09-4.07-3.67-9.31-3.93-14.25-.15-2.85-.25-5.7-.72-8.52-.24-1.48-.45-2.99-.97-4.41-.3-.83-1.08-2.45-2.23-1.87-.99.49-1.11,2.19-1.23,3.13-.14,1.17-.14,2.35-.19,3.53-.12,2.74,0,5.42.58,8.11.6,2.82,1.62,5.57,3.08,8.06,1.42,2.42,3.78,4.05,5.24,6.43.08.14.29.02.22-.13h0Z" fill="#f29178"/><path d="m194.09,173.3c2.26,2.78,2.05,6.54,2.55,9.9s.89,7.33,3.06,10.15c.18.23.54.04.4-.23-.89-1.67-1.58-3.39-2.01-5.23s-.71-3.64-.97-5.46c-.47-3.28-.48-6.72-2.84-9.31-.12-.13-.3.06-.19.19h0Z" fill="#f29178"/><path d="m194.6,164.67c-.27,2.42,0,4.77.66,7.1.36,1.25.73,2.49.86,3.79.07.63.13,1.27.15,1.9.02.56-.07,1.17.09,1.72.05.17.28.16.33,0,.19-.54.1-1.16.06-1.72s-.09-1.15-.19-1.72c-.21-1.22-.52-2.41-.88-3.59-.73-2.44-1.09-4.93-.99-7.48,0-.07-.09-.06-.1,0h0Z" fill="#f29178"/><path d="m194.56,166.84c.34-9.1-2.91-18.72,1.59-27.27.64-1.21,1.33-2.42,2.22-3.47.43-.51,1.44-1.71,2.17-1.03s.45,1.92.19,2.78c-.36,1.18-.7,2.35-1,3.54-.66,2.65-1.27,5.32-1.97,7.97-1.51,5.69-3.41,11.54-3.44,17.48,0,.25.35.23.38,0,.32-2.91.76-5.79,1.41-8.64s1.41-5.56,2.15-8.33,1.41-5.7,2.13-8.55c.31-1.24.72-2.44,1.05-3.68.24-.91.34-1.91-.22-2.72-1.57-2.27-4.04,1.67-4.74,2.82-.64,1.06-1.23,2.17-1.72,3.31-.83,1.92-1.2,4.08-1.42,6.15-.68,6.54.73,13.13,1.13,19.65,0,.06.09.06.09,0h0Z" fill="#f29178"/><path d="m203.44,153.32c-1.71,3.82-3.2,7.71-4.11,11.8-.35,1.57-.64,3.16-.95,4.73-.38,1.95-.91,3.87-1.26,5.82-.22,1.24-.39,2.49-.48,3.74-.09,1.14-.27,2.43.03,3.55.05.19.39.22.42,0,.15-.98.08-1.99.14-2.98.07-1.18.18-2.37.35-3.54.28-1.98.77-3.93,1.15-5.89.63-3.21,1.19-6.42,2.15-9.56.79-2.57,1.75-5.1,2.74-7.6.04-.11-.14-.19-.19-.08h0Z" fill="#f29178"/><path d="m202.8,155.59c1.44-4.36,1.94-8.97,2.53-13.5.54-4.17,1.47-8.24,3.53-11.95.31-.55.84-1.5,1.59-1.5.54,0,.62.71.65,1.12.11,1.22-.16,2.49-.34,3.69-.36,2.34-.79,4.67-1.28,6.98s-.98,4.47-1.86,6.58c-1.43,3.4-3.65,6.41-5.55,9.55-.12.2.17.35.3.18,1.07-1.4,2.01-2.91,2.97-4.39s1.94-3.08,2.67-4.73c.93-2.08,1.46-4.32,1.94-6.55.54-2.51.99-5.05,1.36-7.59.16-1.08,1.15-6.41-1.45-5.2-1.35.63-1.89,2.53-2.49,3.76-1.02,2.11-1.64,4.39-2.05,6.69-.5,2.78-.71,5.6-1.12,8.4s-1.07,5.6-1.64,8.4c-.03.16.2.23.25.07h0Z" fill="#f29178"/><path d="m140.99,147.47c2.25,1.47,3.99,3.56,6.23,5.04,2.11,1.39,4.56,2.16,6.98,2.77,2.53.64,5.08,1.18,7.56,2.01,2.54.86,5.01,1.93,7.37,3.19,2.66,1.42,5.12,3.1,7.5,4.93.29.22.67-.27.39-.5-4.03-3.35-8.76-5.94-13.66-7.74-2.46-.91-4.99-1.55-7.55-2.14s-5.11-1.19-7.46-2.39c-2.71-1.39-4.71-3.74-7.28-5.32-.1-.06-.19.09-.09.16h0Z" fill="#f29178"/><path d="m176.6,131.24c-2.9,8.45-3.13,17.82-1.57,26.57.44,2.45.97,4.98,1.9,7.3.18.45.89.29.75-.21-.57-2.08-1.22-4.13-1.68-6.25s-.81-4.42-1.02-6.66c-.4-4.46-.3-8.97.36-13.41.36-2.45.86-4.89,1.53-7.27.05-.18-.21-.24-.27-.07h0Z" fill="#f29178"/><path d="m147.8,92.72c1.01,8.46,2.86,16.79,5.4,24.93s5.77,16.02,9.54,23.65c3.82,7.73,8.19,15.18,13.02,22.32,4.74,7.02,9.91,13.73,15.39,20.18,2.74,3.23,5.57,6.39,8.59,9.37,2.97,2.92,6.14,5.73,9.68,7.93.82.51,1.64.95,2.53,1.33.43.19.8-.38.38-.65-3.46-2.17-6.7-4.5-9.72-7.26s-6.06-6.01-8.86-9.23c-5.52-6.32-10.72-12.93-15.51-19.82-4.84-6.96-9.28-14.21-13.21-21.73-3.94-7.54-7.35-15.36-10.13-23.4-2.77-7.99-4.88-16.2-6.3-24.54-.18-1.04-.34-2.08-.49-3.12-.02-.17-.32-.13-.3.04h0Z" fill="#f29178"/><path d="m144.75,150c-1.58-1.37-3.32-2.58-4.97-3.88-1.62-1.28-3.2-2.61-4.71-4.01-1.43-1.33-2.79-2.74-4.11-4.17-1.22-1.32-2.38-2.74-3.11-4.4-.2-.46-.37-.94-.5-1.43-.06-.24-.2-.61-.12-.86.1-.33.42-.27.7-.19.95.26,1.84.91,2.63,1.47,2.46,1.75,4.39,4.12,6.38,6.36,3.02,3.39,5.47,7.26,7.24,11.44.17.4.75.06.58-.34-1.72-3.97-4.06-7.66-6.91-10.92-2.16-2.47-4.33-5.07-7.05-6.94-.59-.41-4.04-2.77-3.97-.67.02.74.36,1.53.65,2.2.39.89.91,1.72,1.49,2.49,1.16,1.55,2.54,2.93,3.89,4.3,1.79,1.83,3.72,3.51,5.71,5.12s3.96,3.21,6.08,4.57c.08.05.17-.07.1-.13h0Z" fill="#f29178"/><path d="m148.68,154.23c-5.98.13-11.4-2.04-16.65-4.71-2.56-1.3-5.08-2.68-7.69-3.88-1.22-.56-2.46-1.09-3.72-1.54s-2.52-.94-3.81-1.08c-1.58-.18-3.27.6-3.59,2.28-.4,2.11,1.46,3.58,2.94,4.69,4.65,3.49,10.32,4.5,15.94,5.27,2.74.38,5.48.32,8.23.13,1.45-.1,2.91-.22,4.36-.36,1.35-.12,2.71-.2,4.04-.44.27-.05.19-.45-.06-.46-2.31-.12-4.67.29-6.97.47s-4.82.34-7.23.22c-2.54-.13-5.12-.58-7.61-1.08-2.7-.55-5.37-1.34-7.8-2.67-1.15-.63-2.25-1.37-3.26-2.2-.81-.66-1.65-1.38-1.9-2.44-.48-1.98,1.45-3.06,3.18-2.74,2.61.49,5.18,1.65,7.57,2.77,2.39,1.13,4.72,2.39,7.08,3.58,5.15,2.61,11.04,5.18,16.95,4.45.16-.02.18-.27,0-.27h0Z" fill="#f29178"/><path d="m145.53,154.81c1.27-.2,2.5-.36,3.8-.25,1.33.11,2.65.4,3.95.66s2.51.55,3.76.85c.62.15,1.25.31,1.87.48s1.21.41,1.84.43c.29.01.39-.4.15-.54-.53-.32-1.19-.43-1.79-.59-.66-.18-1.32-.35-1.98-.51-1.37-.33-2.75-.61-4.13-.86-2.48-.45-5.1-.87-7.55-.03-.23.08-.14.4.1.36h0Z" fill="#f29178"/><path d="m162.12,164.05c-3.02.64-6.02,1.15-9.12,1.23-3.04.08-6.08-.11-9.09-.5s-6-.97-8.97-1.62c-2.07-.45-4.11-1.14-6.25-.74-1.36.26-2.9,1.04-2.93,2.61-.04,1.96,1.66,3.32,3.31,3.96.99.39,2.04.62,3.07.87,1.31.32,2.6.65,3.94.83,2.97.4,5.98.29,8.95-.03,5.67-.61,11.84-2.03,16.2-5.95.24-.21-.09-.65-.35-.45-4.03,3.07-8.71,4.69-13.68,5.45-2.74.42-5.54.65-8.32.55-2.6-.09-5.05-.65-7.56-1.28-1.91-.47-4.14-1.12-4.78-3.23-.52-1.71,1.1-2.51,2.53-2.74,2.15-.34,4.32.48,6.4.92,2.72.58,5.46,1.08,8.22,1.43,3.09.39,6.21.6,9.32.47,3.08-.14,6.27-.51,9.19-1.55.15-.05.09-.27-.06-.23h0Z" fill="#f29178"/><path d="m160.55,164.82c.77-.1,1.51-.4,2.27-.56.85-.18,1.71-.29,2.57-.36,1.69-.13,3.39-.03,5.06.27,1.67.3,3.3.81,4.83,1.53.75.35,1.48.76,2.17,1.21s1.31,1.04,2.05,1.4c.22.11.54-.13.37-.37-.47-.67-1.2-1.13-1.87-1.58-.75-.49-1.53-.93-2.34-1.31-1.59-.75-3.28-1.29-5.01-1.6s-3.51-.37-5.25-.19c-.85.09-1.7.23-2.53.44-.79.2-1.7.4-2.38.85-.1.07-.08.27.07.25h0Z" fill="#f29178"/><path d="m176.67,132.15c.51-5.29.45-10.61.87-15.9.27-3.46.73-6.93,2.98-9.72.56-.69,1.41-1.65,2.38-1.65,1.11,0,1.53,1.45,1.73,2.3.97,4.17-.34,8.41-2.04,12.2-1.93,4.3-4.61,8.28-6.24,12.71-.08.23.29.39.4.17,1.95-4.12,4.35-8.03,6.23-12.19,1.79-3.95,3.15-8.22,2.33-12.59-.2-1.08-.59-2.56-1.72-3.05-.88-.38-1.81.11-2.49.67-2.28,1.89-3.37,5.06-3.75,7.9-.42,3.1-.51,6.24-.63,9.37s-.31,6.52-.27,9.78c0,.15.21.14.23,0h0Z" fill="#f29178"/><path d="m172.61,133.15c1.24,3.81,1.82,7.81,1.73,11.82,0,.14.22.18.25.03.3-1.95.11-3.95-.18-5.89-.31-2.06-.8-4.09-1.49-6.05-.07-.2-.38-.12-.32.09h0Z" fill="#f29178"/><path d="m173.5,135.21c-.63-2.37-2.13-4.42-3.41-6.48-1.42-2.29-2.52-4.66-3.22-7.27s-.99-5.39-1.24-8.13c-.24-2.59-.59-5.33.13-7.88.28-1,.69-2.06,1.37-2.87.32-.38.92-.95,1.48-.73.95.38,1.12,2.19,1.23,3.03.18,1.26.22,2.53.24,3.79.04,2.01.16,4.02.24,6.03.13,3.18.25,6.37.52,9.54s.64,6.31,1.62,9.3c.08.25.45.15.4-.11-.64-3.04-1.17-6.09-1.45-9.18s-.41-6.12-.54-9.18c-.09-2.15-.22-4.29-.28-6.44-.04-1.33-.11-2.67-.32-3.99-.16-.99-.37-2.48-1.27-3.11-1.16-.81-2.36.71-2.85,1.59-1.18,2.11-1.39,4.52-1.29,6.89.12,2.9.39,5.86.91,8.72.55,3.07,1.49,6.09,3.06,8.8,1.51,2.6,3.26,5,4.49,7.76.05.1.21.03.18-.08h0Z" fill="#f29178"/><path d="m178.49,137.29c-1.27,3.21-2.05,6.6-2.56,10.01s-.88,6.78-.69,10.14c.01.26.39.26.4,0,.07-1.66.07-3.33.19-4.99.13-1.76.35-3.51.64-5.24.55-3.33,1.4-6.59,2.28-9.84.05-.17-.19-.23-.26-.07h0Z" fill="#f29178"/><path d="m177.88,139.9c1.08-2.18,1.71-4.52,2.29-6.87s1.23-4.68,2.13-6.95,1.98-4.46,3.23-6.55c1.11-1.85,2.34-3.73,3.74-5.38.49-.58,1.29-1.51,2.15-1.43.56.05.53.73.5,1.16-.08,1.15-.52,2.3-.95,3.36-1.58,3.85-3.76,7.48-6.25,10.81-2.76,3.69-5.42,7.42-7.13,11.73-.06.16.2.27.28.12,2-4.01,4.41-7.68,7.1-11.25s4.91-7.21,6.57-11.24c.46-1.13.91-2.34.99-3.57s-.59-2.04-1.83-1.61c-.88.3-1.56,1.06-2.13,1.76-.62.76-1.18,1.57-1.74,2.37-1.48,2.1-2.78,4.34-3.88,6.66-1.19,2.52-2.15,5.16-2.86,7.86-.78,2.97-1.3,6.03-2.5,8.87-.08.18.18.35.28.16h0Z" fill="#f29178"/><path d="m151.48,133.99c2.83,1.48,5.69,2.97,8.19,4.97,1.07.86,2.09,1.79,2.98,2.84.49.58.95,1.19,1.35,1.84.35.56.6,1.21,1.01,1.73.16.2.44-.02.4-.23-.13-.67-.6-1.31-.96-1.88s-.77-1.1-1.2-1.62c-.92-1.09-1.97-2.08-3.1-2.95-2.62-2-5.6-3.45-8.55-4.88-.12-.06-.22.11-.1.18h0Z" fill="#f29178"/><path d="m153.14,134.9c-4.11-3.32-8.27-6.54-11.74-10.56-1.68-1.94-3.19-4.03-4.46-6.27-.64-1.14-1.22-2.31-1.72-3.52-.4-.97-.66-2.02-1.27-2.89-.44-.63-1.06-1.24-1.85-1.36-.84-.13-1.58.4-2.04,1.07-1.08,1.58-.91,3.92-.46,5.68.59,2.32,1.9,4.33,3.48,6.09s3.48,3.46,5.46,4.91c2.28,1.67,4.77,3.08,7.28,4.4,2.59,1.36,5.3,2.52,8.19,3.08.39.08.56-.53.17-.6-4.73-.92-9.17-3.38-13.21-5.94-2-1.27-3.9-2.69-5.63-4.31-1.71-1.6-3.34-3.36-4.41-5.46-.96-1.9-1.54-4.2-1.06-6.33.22-.96.85-2.27,2.02-2.24,1.04.03,1.81,1.15,2.19,2,.45.99.75,2.04,1.2,3.04.48,1.08,1.04,2.13,1.64,3.14,1.16,1.96,2.51,3.81,3.99,5.54,3.48,4.07,7.66,7.72,12.13,10.66.08.06.19-.08.11-.14h0Z" fill="#f29178"/><path d="m143.88,113.73c.99,1.41,1.98,2.82,3.13,4.1,1.22,1.37,2.64,2.51,4.08,3.65s2.69,2.21,3.82,3.54c.57.68,1.09,1.39,1.56,2.14s.78,1.57,1.27,2.28c.12.18.42.07.36-.15-.21-.76-.7-1.51-1.11-2.18s-.86-1.31-1.35-1.93c-1.1-1.39-2.39-2.57-3.78-3.67s-2.85-2.18-4.09-3.48c-1.33-1.38-2.47-2.92-3.62-4.45-.11-.15-.36,0-.25.15h0Z" fill="#f29178"/><path d="m145.85,116.07c-2.16-3.12-4.55-6.1-6.37-9.44-.98-1.81-1.82-3.7-2.4-5.68-.53-1.84-.81-3.76-1.01-5.66-.1-.91-.16-1.86.03-2.77.13-.63.46-1.61,1.09-1.93.93-.47,1.6,1.53,1.81,2.11,1.23,3.36,2.11,6.81,2.82,10.32.46,2.26.87,4.53,1.42,6.78s1.16,4.48,2.28,6.46c.13.24.55.08.45-.19-.78-2.13-1.55-4.23-2.12-6.43s-1.01-4.42-1.49-6.64c-.79-3.68-1.71-7.39-3.18-10.87-.3-.7-.77-1.97-1.69-2.04-1.26-.09-1.85,1.93-1.98,2.84-.24,1.79.14,3.7.42,5.47.35,2.19,1.05,4.31,1.97,6.33,1.93,4.23,4.81,7.92,7.74,11.5.09.11.27-.03.19-.15h0Z" fill="#f29178"/><path d="m160.27,120.96c.1,1.69.32,3.37.69,5.02.4,1.74.94,3.45,1.27,5.2s.38,3.55.48,5.33c.05.91.1,1.81.15,2.72.05.82-.04,1.82.29,2.58.08.18.34.11.39-.05.23-.77,0-1.74-.05-2.53-.07-.91-.13-1.81-.2-2.72-.13-1.7-.19-3.43-.5-5.11s-.86-3.38-1.31-5.06-.82-3.56-1.01-5.37c-.01-.12-.2-.13-.2,0h0Z" fill="#f29178"/><path d="m160.74,124.1c.28-.65.14-1.27-.1-1.91-.34-.91-.68-1.81-.99-2.73-.63-1.88-1.13-3.8-1.5-5.75s-.59-3.93-.76-5.92-.33-3.83-.29-5.75c.02-1.01.09-2.03.25-3.03.12-.79.26-1.64.61-2.36.29-.58.71-1.19,1.26-1.55.82-.53,1.45.11,1.69.92.27.93.18,2.04.15,3s-.13,2.01-.24,3c-.22,2-.51,3.99-.62,6-.12,2.34-.09,4.69-.12,7.03s-.11,4.74.17,7.07c.03.25.4.27.41,0,.03-2.23-.09-4.46-.08-6.69s0-4.54.06-6.8.38-4.33.59-6.49c.11-1.08.19-2.16.21-3.24.02-.96.07-2.03-.18-2.97-.29-1.1-1.24-1.85-2.3-1.15s-1.59,2-1.85,3.22c-.85,4-.35,8.28.11,12.3.27,2.3.71,4.57,1.32,6.8.32,1.16.69,2.31,1.1,3.44.18.49.37.97.58,1.45.27.65.64,1.34.41,2.05-.02.06.08.11.11.05h0Z" fill="#f29178"/><path d="m148.6,96.7c-.75-3.14-1.78-6.23-2.83-9.29-1.04-3.02-2.2-6.01-2.91-9.13s-.9-6.35-.76-9.56c.07-1.63.23-3.26.47-4.88.21-1.4.37-2.9.89-4.23.24-.61.68-1.45,1.46-1.27.68.16,1.23.86,1.6,1.41,1.01,1.48,1.59,3.25,1.59,5.05-.01,4.66-.39,9.33-.56,13.98-.12,3.09-.18,6.18-.12,9.27.06,2.92.21,5.88.78,8.75.04.23.43.18.41-.06-.57-5.72-.7-11.41-.52-17.15.16-4.97.57-9.95.54-14.93,0-1.78-.63-3.58-1.59-5.07-.62-.96-1.91-2.45-3.17-1.56-.71.5-1.03,1.46-1.24,2.26-.41,1.51-.63,3.1-.83,4.65-.44,3.33-.54,6.7-.15,10.04.44,3.73,1.61,7.26,2.87,10.78s2.46,7.36,3.69,11.04c.08.24.44.14.38-.1h0Z" fill="#f29178"/><path d="m129.73,76.43c3.58,4.56,8.1,8.26,11.88,12.65,1.52,1.77,2.95,3.62,3.99,5.71.96,1.95,1.77,3.97,2.55,5.99s1.47,3.99,2.16,6c.1.3.55.18.48-.13-.38-1.84-1.07-3.6-1.74-5.35-.8-2.08-1.64-4.14-2.6-6.15-2.22-4.65-6.03-8.26-9.68-11.79-2.37-2.29-4.75-4.58-6.83-7.15-.12-.15-.33.06-.21.21h0Z" fill="#f29178"/><path d="m133.82,80.49c-1.95-2.03-4.24-3.74-6.34-5.61-2.04-1.81-4.06-3.68-5.82-5.76-1.64-1.94-3.06-4.12-3.96-6.51-.52-1.39-.85-2.83-1.09-4.29-.21-1.3-.41-2.67-.25-3.99.05-.47.15-1.12.58-1.41.62-.42,1.48.24,1.88.65,1.47,1.52,2.49,3.62,3.42,5.5,1.02,2.07,1.92,4.2,2.8,6.33.98,2.37,1.93,4.76,2.97,7.11.95,2.15,1.94,4.31,3.33,6.22.12.17.4.02.29-.17-2.42-4.11-4.19-8.52-6.03-12.91-.93-2.22-1.88-4.44-2.98-6.59-.98-1.91-2.06-3.91-3.49-5.53-.66-.75-2.06-1.6-2.74-.41-.61,1.06-.47,2.57-.38,3.73s.24,2.23.46,3.33c.5,2.57,1.67,4.98,3.15,7.13,1.79,2.59,4.04,4.81,6.36,6.92,1.26,1.15,2.56,2.26,3.85,3.36s2.46,2.17,3.78,3.15c.15.11.32-.12.19-.25h0Z" fill="#f29178"/><path d="m126.33,79.3c2.61,2.32,5.81,3.8,8.84,5.47,1.48.81,2.95,1.68,4.3,2.7.69.52,1.35,1.09,1.96,1.7.57.57,1.03,1.38,1.67,1.84.12.08.27-.05.24-.18-.19-.7-.9-1.37-1.39-1.88-.54-.56-1.12-1.07-1.73-1.54-1.37-1.06-2.86-1.93-4.4-2.72-3.23-1.66-6.61-3.09-9.38-5.5-.07-.06-.18.04-.1.1h0Z" fill="#f29178"/><path d="m127.67,80.15c-3.06-1.86-5.88-4.05-8.8-6.1-1.5-1.06-3.02-2.06-4.35-3.35-.96-.93-1.77-1.98-2.46-3.12-.52-.87-1.22-2.05-1.09-3.11.07-.56.49-.87,1.02-.97.89-.17,1.8.76,2.41,1.3,2.45,2.14,4.34,4.89,6.23,7.51,1.07,1.48,2.13,2.96,3.26,4.39s2.2,2.73,3.6,3.77c.22.16.46-.18.28-.37-1.2-1.24-2.38-2.48-3.46-3.82-1.17-1.46-2.27-2.97-3.37-4.48-2.01-2.74-4.04-5.59-6.68-7.77-.56-.47-1.23-1.06-2-1.08-.52,0-1.1.21-1.45.6-.69.78-.33,1.99.03,2.83,1.17,2.81,3.4,5.07,5.86,6.79,1.63,1.14,3.29,2.25,4.91,3.4,1.92,1.36,3.88,2.65,5.94,3.79.13.07.24-.12.11-.2h0Z" fill="#f29178"/><path d="m154.21,94.08c-1.15,2.97-2.13,6.02-2.66,9.16-.41,2.42-.67,4.92-.25,7.36.04.24.44.19.43-.06-.17-5.61.95-11.09,2.76-16.39.06-.17-.21-.24-.27-.07h0Z" fill="#f29178"/><path d="m154.61,93.88c1.83-4.54,4.48-8.63,7.76-12.26s6.47-7.02,7.76-11.61c.35-1.23.65-3.27-.61-4.1s-2.77.42-3.63,1.34c-2.83,2.97-4.97,6.53-6.54,10.3-1.06,2.55-1.92,5.19-2.78,7.82-.9,2.77-1.71,5.57-2.18,8.45-.03.18.24.26.28.08,1.03-4.63,2.45-9.19,4.06-13.65,1.48-4.08,3.55-8,6.39-11.29.83-.97,1.97-2.63,3.35-2.75,1.91-.16,1.3,2.94.98,3.96-1.4,4.43-4.59,7.85-7.6,11.25-3.25,3.68-5.82,7.76-7.41,12.41-.04.11.13.15.17.05h0Z" fill="#f29178"/><path d="m155.89,88.27c.54-2.69.17-5.56-.18-8.25s-.84-5.61-1.02-8.44-.07-5.57.74-8.23c.27-.91.63-1.81,1-2.68.35-.82.75-1.71,1.41-2.34.33-.31,1-.8,1.31-.25.24.45.23,1.07.24,1.56.02,1.43-.18,2.86-.38,4.27-.31,2.21-.62,4.42-.94,6.63-.37,2.49-.74,4.97-1.09,7.46-.41,2.88-.89,5.76-1.13,8.66-.02.18.29.23.32.04.53-2.77.86-5.57,1.26-8.36.35-2.42.69-4.85,1.03-7.28s.65-4.81,1.03-7.2c.23-1.46.47-2.97.42-4.45-.02-.73-.11-2.16-1.14-2.11-1.6.07-2.45,2.31-2.95,3.53-.93,2.29-1.53,4.59-1.67,7.06-.19,3.31.3,6.61.77,9.88.26,1.77.51,3.54.65,5.32s.12,3.43.15,5.16c0,.11.17.14.19.03h0Z" fill="#f29178"/><path d="m188.99,33.73c2.25,1.33,4.21,3.06,6.03,4.92,1.7,1.73,3.29,3.58,4.74,5.53,2.84,3.82,5.15,8.06,6.73,12.55,1.69,4.78,2.5,9.78,2.45,14.85-.05,5.63-.99,11.24-2.24,16.72-.68,3-1.47,5.97-2.38,8.91s-2.06,5.87-3.03,8.83c-.09.27.34.46.46.2,1.19-2.51,2.08-5.18,2.93-7.82s1.65-5.43,2.32-8.19c1.34-5.55,2.38-11.23,2.6-16.95.2-5.21-.4-10.42-2.02-15.38-1.49-4.58-3.73-8.92-6.52-12.84-1.55-2.18-3.27-4.25-5.16-6.15-2.04-2.06-4.24-4-6.77-5.43-.17-.09-.31.16-.15.26h0Z" fill="#f29178"/><path d="m238.24,58.79c-.94,2.52-1.93,5.02-2.96,7.5-.94,2.27-1.82,4.76-3.67,6.45-.9.82-1.95,1.44-2.98,2.07s-2.08,1.31-3.15,1.91c-1.73.96-3.53,1.77-5.33,2.6s-3.52,1.75-5.09,2.97l.48.37c1.6-2.31,2.33-5.06,3.71-7.49.99-1.73,2.41-3.14,3.99-4.33,3.35-2.52,7.22-4.24,10.57-6.76,1.86-1.4,3.61-3.07,4.74-5.13.16-.3-.27-.54-.45-.26-2.45,3.65-6.02,5.97-9.73,8.19-3.34,1.99-6.98,4.01-9.19,7.32-1.71,2.55-2.41,5.63-4.17,8.16-.21.31.23.56.48.37,3.07-2.38,6.84-3.53,10.2-5.43,1.1-.62,2.16-1.32,3.23-1.99.95-.59,1.91-1.18,2.76-1.91,1.76-1.5,2.69-3.64,3.55-5.73,1.18-2.9,2.23-5.84,3.18-8.82.04-.11-.13-.15-.17-.05h0Z" fill="#f29178"/><path d="m216.28,81.18c-.97,1.35-2.39,2.29-3.61,3.39s-2.25,2.22-3.23,3.45-1.85,2.44-2.66,3.75c-.36.59-.71,1.19-1.03,1.8-.29.55-.65,1.15-.79,1.77-.07.33.36.52.54.23.34-.54.57-1.17.86-1.74.34-.64.7-1.27,1.08-1.89.83-1.35,1.76-2.65,2.76-3.88.97-1.19,1.99-2.34,3.12-3.38,1.15-1.06,2.37-2,3.1-3.41.05-.1-.08-.17-.14-.08h0Z" fill="#f29178"/><path d="m201.08,86.47c.68,2.61,1.1,5.22,1.38,7.9.15,1.48.2,2.96.25,4.45.02.64.06,1.28.06,1.92,0,.7-.13,1.35-.24,2.03-.05.29.35.52.51.22.56-1.06.36-2.56.29-3.71-.09-1.6-.14-3.2-.32-4.79-.32-2.76-.79-5.46-1.76-8.06-.04-.11-.2-.07-.17.05h0Z" fill="#f29178"/><path d="m201.35,86.93c-.37-2.16-.07-4.3.02-6.47s-.32-4.02-.92-5.99c-.27-.89-.58-1.77-1.06-2.57-.52-.87-1.19-1.64-1.8-2.44-1.19-1.56-2.33-3.18-3.35-4.86-1.19-1.97-2.22-4.03-2.99-6.2-.11-.31-.58-.27-.59.08-.06,1.74.43,3.43.71,5.13.32,1.89.66,3.76,1.07,5.63.9,4.1,1.7,8.3,4.19,11.79,1.44,2.02,3.54,3.6,4.49,5.96.09.21.43.13.35-.1-.66-2-2.11-3.41-3.46-4.95-1.44-1.64-2.48-3.58-3.23-5.62s-1.19-4.14-1.64-6.24c-.38-1.79-.78-3.58-1.07-5.4-.33-2.03-.94-4.13-.82-6.2l-.59.08c1.26,3.73,3.34,7.09,5.69,10.23,1.23,1.64,2.66,3.13,3.35,5.09s1.24,4.09,1.2,6.23c-.04,2.28-.52,4.65.33,6.84.03.07.12.04.11-.03h0Z" fill="#f29178"/><path d="m226.13,54.56c-3.5.38-6.63,2.35-9.2,4.66s-4.52,5.12-5.97,8.18c-.83,1.76-1.51,3.59-1.98,5.48-.09.38.47.53.58.16,1.15-4.08,2.9-7.97,5.65-11.24,2.78-3.29,6.65-6.24,10.95-7.07.09-.02.07-.18-.02-.17h0Z" fill="#f29178"/><path d="m226.4,54.31c-.15-1,.26-1.96,1.13-2.5s1.91-.6,2.71,0c.7.52,1.13,1.46,1.04,2.33s-.76,1.6-1.62,1.84c-1.17.32-2.41-.19-2.89-1.32-.13-.31-.58-.04-.45.26.52,1.2,1.79,1.8,3.05,1.6,1.05-.16,1.99-.91,2.26-1.95s-.15-2.15-.9-2.85c-.84-.78-2.02-.87-3.03-.38-1.12.54-1.88,1.79-1.44,3.02.03.1.17.06.15-.04h0Z" fill="#f29178"/><path d="m218.63,50.87c-.51-.83-.55-1.8-.03-2.63s1.5-1.42,2.5-1.2c.92.2,1.75.95,1.98,1.88.2.83-.15,1.69-.82,2.21-.92.72-2.26.77-3.13-.06-.24-.23-.62.14-.37.37.93.88,2.3.99,3.39.34.89-.53,1.51-1.53,1.4-2.58s-.94-2.04-1.96-2.42c-1.12-.42-2.31.03-3.03.94s-.9,2.32-.04,3.24c.06.06.17-.02.12-.09h0Z" fill="#f29178"/><path d="m185.16,36.27c-.19.93-.82,1.67-1.74,1.93-.87.25-1.9.07-2.53-.62-.56-.63-.74-1.58-.53-2.39.25-.95,1.11-1.59,2.09-1.6,1.25,0,2.41.91,2.48,2.19.02.34.54.34.52,0-.08-1.34-1.08-2.39-2.39-2.61-1.16-.19-2.4.31-2.92,1.41-.42.9-.34,2.05.2,2.89.59.92,1.68,1.3,2.74,1.14,1.18-.18,2.22-1.08,2.23-2.33,0-.09-.14-.11-.15-.02h0Z" fill="#f29178"/><path d="m191.04,28.54c-.94.32-1.92.13-2.62-.58s-1.02-1.8-.56-2.72c.4-.8,1.28-1.43,2.19-1.46s1.66.5,2.03,1.29c.5,1.05.24,2.37-.74,3.03-.28.19-.02.64.26.45,1.05-.71,1.48-2,1.1-3.2-.32-1.01-1.15-1.82-2.22-1.96s-2.18.46-2.78,1.36c-.66.99-.51,2.23.2,3.15.75.97,2.08,1.44,3.19.8.07-.04.03-.17-.06-.14h0Z" fill="#f29178"/><path d="m214.5,14.96c-.94.32-1.92.13-2.62-.58s-1.02-1.8-.56-2.72c.4-.8,1.28-1.43,2.19-1.46s1.66.5,2.03,1.29c.5,1.05.24,2.37-.74,3.03-.28.19-.02.64.26.45,1.05-.71,1.48-2,1.1-3.2-.32-1.01-1.15-1.82-2.22-1.96s-2.18.46-2.78,1.36c-.66.99-.51,2.23.2,3.15.75.97,2.08,1.44,3.19.8.07-.04.03-.17-.06-.14h0Z" fill="#f29178"/><path d="m188.97,33.67c-.65.38-1.41.42-2.07.02s-1.1-1.15-.94-1.92c.15-.71.71-1.36,1.42-1.55.65-.18,1.33.08,1.74.6.57.71.61,1.76-.03,2.44-.23.24.14.62.37.37.72-.76.8-1.89.26-2.78-.44-.71-1.25-1.2-2.1-1.1s-1.64.78-1.94,1.61c-.32.9.05,1.85.78,2.42.37.29.81.48,1.29.5.51.03.96-.14,1.33-.49.06-.06-.02-.17-.09-.12h0Z" fill="#f29178"/><path d="m219.61,20.91c-.69-.26-1.19-.81-1.31-1.55-.11-.69.13-1.49.72-1.89.55-.37,1.29-.42,1.9-.18.71.28,1.12,1.01,1.02,1.76-.12.98-.96,1.76-1.96,1.68-.34-.02-.33.5,0,.52,1.11.08,2.06-.68,2.34-1.73.25-.93-.09-1.96-.93-2.46-.69-.41-1.62-.42-2.33-.06-.78.4-1.18,1.27-1.13,2.13.03.46.18.9.46,1.27.3.39.7.61,1.18.66.09.01.1-.12.02-.15h0Z" fill="#f29178"/><path d="m218.71,50.88c-1.86,1.99-3.38,4.26-4.5,6.75s-1.93,5.07-2,7.71c0,.15.23.18.26.04.52-2.62,1.06-5.16,2.15-7.62s2.53-4.69,4.27-6.69c.1-.12-.07-.3-.18-.18h0Z" fill="#f29178"/><path d="m199.06,59.04c2.56,2.93,4.99,6.05,6.67,9.59,1.5,3.17,2.47,6.52,2.87,10,.03.27.41.28.43,0,.13-1.66-.32-3.41-.79-4.99-.52-1.75-1.19-3.47-1.99-5.11-1.75-3.62-4.32-6.72-7.04-9.64-.09-.1-.24.05-.15.15h0Z" fill="#f29178"/><path d="m200.49,60.37c-1.46-1.18-2.12-2.88-2.74-4.59s-1.27-3.14-2.39-4.49c-1.17-1.43-2.56-2.69-3.86-3.99-1.43-1.43-2.86-2.88-4.3-4.3-.24-.24-.7.09-.48.37,1.21,1.57,1.9,3.41,2.65,5.22.7,1.68,1.5,3.27,2.65,4.69s2.56,2.68,3.99,3.86,2.86,2.43,4.34,3.58c.22.17.51-.1.31-.31-1.25-1.38-2.82-2.49-4.24-3.67-1.37-1.14-2.72-2.33-3.86-3.71-1.24-1.49-2.05-3.19-2.78-4.97s-1.39-3.49-2.52-5l-.48.37c1.43,1.44,2.87,2.86,4.31,4.29,1.33,1.33,2.74,2.61,3.95,4.05,1.31,1.56,1.91,3.36,2.68,5.21.57,1.37,1.39,2.73,2.71,3.47.05.03.12-.05.07-.09h0Z" fill="#f29178"/><path d="m205.96,17.75c.78,4.21,3.16,8.05,3.23,12.4.03,2.37-.39,4.77-.83,7.09s-.94,4.5-1.55,6.72h.56c-.25-1.02-.12-2.04-.13-3.08,0-.93-.15-1.84-.37-2.74-.42-1.78-1.14-3.49-1.45-5.29-.55-3.15.19-6.49.58-9.62.23-1.83.42-3.65.19-5.5-.03-.22-.36-.24-.36,0-.03,3.35-.64,6.66-.98,9.98-.16,1.54-.26,3.11-.08,4.65.21,1.74.86,3.38,1.33,5.06.31,1.09.56,2.21.58,3.35s-.14,2.24.13,3.35c.07.28.48.27.56,0,.65-2.29,1.19-4.61,1.6-6.95s.81-4.67.71-7.02c-.18-4.41-2.65-8.21-3.61-12.43-.02-.07-.12-.04-.11.03h0Z" fill="#f29178"/><path d="m207.06,43.27c-.53,2.49-.86,5.04-.92,7.59s.03,5.34,1.2,7.57c.06.11.22.03.19-.08-.52-2.54-.9-4.99-.89-7.59s.26-4.97.63-7.43c.02-.14-.18-.2-.21-.06h0Z" fill="#f29178"/><path d="m185.5,36.11c2.42.32,4.76.99,6.97,2.02s3.97,2.31,5.83,3.69c.12.09.27-.11.16-.21-3.39-3.27-8.36-5.09-12.96-5.65-.09-.01-.09.14,0,.15h0Z" fill="#f29178"/><path d="m191.2,28.63c1.49,1.91,2.82,3.93,3.95,6.07s1.91,4.28,2.86,6.43c.05.1.21.03.18-.08-.6-2.3-1.73-4.51-2.9-6.56s-2.54-4.05-4.04-5.91c-.03-.04-.08.01-.05.05h0Z" fill="#f29178"/><path d="m219.81,20.75c-.87,7.46-3.87,14.45-6.61,21.38-1.68,4.25-3.41,8.45-4.11,13-.53,3.41-.78,7.01-.37,10.45.04.3.46.32.48,0,.21-3.19.11-6.37.52-9.55.31-2.34.84-4.63,1.57-6.87,1.79-5.56,4.22-10.9,6.07-16.44,1.3-3.89,2.28-7.87,2.62-11.96,0-.11-.16-.11-.17,0h0Z" fill="#f29178"/><path d="m220.85,37.2c-1.95,1.52-3.89,3.05-5.64,4.8-.82.82-1.59,1.68-2.3,2.6-.38.49-.74,1-1.07,1.53-.28.43-.66.92-.68,1.45,0,.09.11.16.18.1.4-.3.61-.82.88-1.24.32-.5.66-.99,1.02-1.46.74-.98,1.57-1.9,2.43-2.77,1.69-1.72,3.52-3.29,5.35-4.84.12-.1-.05-.26-.17-.17h0Z" fill="#f29178"/><path d="m220.22,38.02c1.49-1.25,2.63-2.86,3.71-4.46s2.13-3.4,3.21-5.09c1.99-3.12,4.56-5.81,6.92-8.64,1.24-1.49,2.45-3.01,3.45-4.67l-.56-.15c-.2,7.39-4.94,14.45-10.75,18.74-.79.58-1.61,1.12-2.46,1.6s-1.8.88-2.68,1.36c-.2.11-.06.41.15.36,1.72-.43,3.38-1.51,4.82-2.52,1.57-1.1,3.01-2.37,4.32-3.76,2.63-2.8,4.76-6.12,6.04-9.75.68-1.94,1.1-3.97,1.17-6.03,0-.3-.41-.4-.56-.15-1.86,3.1-4.37,5.76-6.68,8.51-1.09,1.3-2.17,2.61-3.12,4.02-1.08,1.59-2.04,3.27-3.05,4.9-1.23,1.97-2.61,3.79-4.05,5.6-.08.1.04.22.14.14h0Z" fill="#f29178"/><path d="m214.37,15.35c.71,3.22,1.47,6.45,1.86,9.72.19,1.57.29,3.15.28,4.73s-.28,3.2-.42,4.82c0,.11.16.13.19.03.47-1.49.54-3.18.56-4.72.03-1.66-.1-3.32-.3-4.97-.41-3.27-1.16-6.47-1.97-9.66-.03-.13-.23-.08-.2.06h0Z" fill="#f29178"/><path d="m450.72,111.3c-7.63-1.44-15.49-.13-22.68,2.61-2.77,1.06-5.53,2.19-8.17,3.56-3.88,2.02-7.52,4.5-10.82,7.38-2.55,2.22-4.81,4.67-6.84,7.37s-3.69,5.33-5.37,8.09c-3.7,6.05-7.12,12.26-11.13,18.11-3.89,5.68-8.39,11.06-14.13,14.96-.67.46-1.36.89-2.07,1.3-.29.17-.03.61.26.45,5.97-3.1,10.63-8.14,14.59-13.48,4.21-5.68,7.7-11.85,11.3-17.92,3.2-5.39,6.45-10.94,10.82-15.49,3.01-3.14,6.43-5.88,10.11-8.19,3.15-1.98,6.47-3.52,9.9-4.94,6.46-2.69,13.4-4.39,20.44-3.89,1.23.09,2.46.24,3.68.47.25.05.36-.34.11-.38h0Z" fill="#6db3bf"/><path d="m378.47,167.97c.12-2.62,1.41-5.02,1.89-7.57.46-2.41.45-4.89-.12-7.28-.51-2.11-1.46-4.12-2.8-5.83-1.38-1.77-3.14-3.07-5.08-4.15-2.61-1.45-5.18-2.92-7.7-4.54-.36-.23-.69.21-.54.54,1.07,2.35.33,4.97.16,7.42s-.09,4.79.52,7.1c.53,2,1.4,3.95,2.6,5.64s2.83,3.04,4.65,4.16c2.17,1.34,4.54,2.54,6.04,4.68.24.34.77.04.57-.33-1.04-1.89-2.97-3.08-4.78-4.16s-3.76-2.24-5.2-3.95c-3.07-3.67-3.97-8.47-3.65-13.14.18-2.62.92-5.31-.23-7.82l-.54.54c2.14,1.36,4.31,2.68,6.56,3.88,2.01,1.07,3.95,2.18,5.49,3.89,3.17,3.52,4.27,8.48,3.54,13.1-.42,2.64-1.55,5.12-1.56,7.83,0,.11.17.11.17,0h0Z" fill="#6db3bf"/><path d="m364.21,139.16c2.71,2.67,4.25,6.17,5.82,9.57.71,1.53,1.59,2.91,2.42,4.38,1.22,2.17,2.19,4.46,3.09,6.78.52,1.32,1.01,2.66,1.44,4.01s.65,2.8,1.14,4.14c.1.28.54.25.54-.07-.01-1.23-.45-2.52-.8-3.68-.38-1.26-.82-2.49-1.29-3.72-.86-2.28-1.81-4.53-2.95-6.68-.87-1.65-1.96-3.17-2.77-4.86s-1.52-3.31-2.39-4.91c-1.05-1.93-2.29-3.78-4-5.19-.16-.13-.39.08-.24.24h0Z" fill="#6db3bf"/><path d="m407.55,170.7c-3.04-.92-6.35-1.14-9.5-1.38-1.57-.12-3.15-.21-4.73-.25-2.24-.05-4.48.11-6.72.02-2.75-.11-5.48-.57-8.07-1.53-.45-.17-.65.56-.2.72,2.22.77,4.53,1.17,6.87,1.33,2.45.16,4.89-.03,7.35-.04,3.26-.02,6.54.2,9.77.55,1.72.19,3.47.39,5.15.85.17.05.24-.21.07-.26h0Z" fill="#6db3bf"/><path d="m378.78,168.13c.98.08,1.69-.51,2.48-.99.92-.57,1.9-1.06,2.9-1.47,1.94-.78,4-1.29,6.08-1.48,2.15-.2,4.38-.15,6.47.4,1.96.52,3.63,1.59,5.22,2.81,1.74,1.34,3.42,2.78,5.44,3.69l.07-.56c-1.94.36-3.62,1.41-5.35,2.3-1.9.98-3.95,1.65-6.07,1.98-2.14.33-4.38.34-6.5-.1-1.97-.41-3.71-1.3-5.33-2.47-1.81-1.31-3.39-2.87-4.97-4.43-.3-.3-.75.16-.46.46,2.63,2.78,5.82,5.72,9.59,6.79,4.08,1.16,8.68.62,12.55-1.02,2.25-.95,4.27-2.5,6.71-2.94.25-.04.31-.45.07-.56-3.6-1.66-6.15-5.02-9.94-6.33-3.93-1.36-8.64-.95-12.53.36-1.11.37-2.2.85-3.23,1.41-.51.27-1,.57-1.48.89-.55.36-1.1.77-1.76.86-.23.03-.15.36.05.38h0Z" fill="#6db3bf"/><path d="m388.87,154.91c.72-2.42.92-5.04.92-7.55s-.3-5.09-.87-7.57c-1.06-4.61-3.13-8.98-5.98-12.74-1.52-2.01-3.24-3.9-5.26-5.42-.22-.16-.48.19-.29.37,3.25,3.1,6.12,6.42,8.18,10.45,2.19,4.29,3.42,9.06,3.59,13.88.11,2.87-.26,5.65-.69,8.47-.04.25.32.37.39.11h0Z" fill="#6db3bf"/><path d="m389.5,153.71c.73-1.58,1.38-3.2,2.05-4.81.67-1.63,1.38-3.24,1.99-4.89,1.11-3,1.38-6.2.54-9.32-.73-2.69-2.26-5.14-4.32-7.01-2.04-1.86-4.56-2.97-7.08-4.04-1.68-.71-3.36-1.4-5.05-2.1-.15-.06-.34.07-.37.21-.1.44.08.98.16,1.41.18.97.37,1.94.51,2.92.21,1.39.34,2.79.38,4.2.04,1.52-.07,3.01.15,4.52s.61,2.94,1.04,4.38c.34,1.16.7,2.29,1.29,3.35,1.02,1.85,2.52,3.35,3.97,4.86.86.89,1.7,1.8,2.42,2.8.8,1.11,1.4,2.33,1.97,3.57.12.26.52.07.45-.19-1.09-4.33-5.11-6.78-7.52-10.27-1.45-2.09-2.11-4.64-2.65-7.1-.64-2.92-.32-5.9-.68-8.85-.15-1.21-.35-2.41-.59-3.61-.1-.49-.41-1.4-.32-1.83l-.37.21c1.36.55,2.71,1.11,4.06,1.67,2.32.97,4.73,1.9,6.76,3.41,4.97,3.7,6.91,10.16,4.98,16.02-1.16,3.52-2.81,6.88-4.06,10.37-.06.17.21.28.29.12h0Z" fill="#6db3bf"/><path d="m401.42,133.67c1.31-3.64,1.73-7.69,1.72-11.53-.01-4.44-.74-8.91-2.43-13.03-.96-2.35-2.21-4.62-3.86-6.55-.1-.12-.31.04-.22.17,2.65,3.72,4.47,7.76,5.37,12.24.82,4.11.88,8.34.38,12.49-.25,2.08-.69,4.12-1.16,6.16-.03.13.16.18.2.06h0Z" fill="#6db3bf"/><path d="m401.22,134.02c1.02-1.33,1.96-2.71,2.91-4.08s1.88-2.63,2.75-3.99c1.54-2.41,2.4-5.15,2.32-8.02-.08-2.69-.99-5.34-2.54-7.53-1.46-2.07-3.49-3.57-5.53-5.02-1.41-1.01-2.83-1.99-4.24-2.98-.12-.09-.35-.03-.41.11-.17.38-.13.87-.15,1.28-.03.96-.06,1.92-.13,2.88-.1,1.34-.26,2.67-.52,3.99s-.66,2.67-.75,4.07-.01,2.91.09,4.35c.08,1.09.2,2.16.52,3.21.57,1.84,1.61,3.47,2.6,5.1.57.94,1.13,1.89,1.58,2.9.53,1.2.83,2.46,1.12,3.74.06.27.49.21.48-.07-.1-4.06-3.12-7.09-4.66-10.63-.97-2.22-1.06-4.69-1.08-7.08-.01-2.75.85-5.35,1.13-8.07.13-1.2.19-2.41.22-3.61.01-.47-.1-1.36.07-1.75l-.41.11c1.14.78,2.26,1.57,3.39,2.36,1.91,1.34,3.9,2.67,5.44,4.45,3.79,4.38,4.22,10.65,1.26,15.59-1.76,2.94-3.92,5.64-5.73,8.55-.11.18.15.31.27.16h0Z" fill="#6db3bf"/><path d="m416.04,119.78c1.97-2.51,3.32-5.6,4.28-8.62,1.14-3.55,1.71-7.31,1.42-11.03-.17-2.15-.59-4.31-1.43-6.29-.06-.15-.3-.04-.26.11,1.13,3.65,1.57,7.29,1.15,11.09-.39,3.52-1.45,6.93-2.92,10.14-.71,1.55-1.56,3-2.41,4.47-.06.1.09.22.17.13h0Z" fill="#6db3bf"/><path d="m415.79,120.02c2.18-1.48,4.29-3.13,6.34-4.79,1.81-1.46,3.21-3.28,3.97-5.49s.78-4.61.15-6.83-1.88-3.94-3.19-5.7c-.86-1.16-1.74-2.3-2.62-3.45-.11-.14-.33-.22-.47-.06-.22.25-.31.63-.42.94-.25.7-.5,1.4-.77,2.09-.4,1.01-.84,2-1.35,2.95s-1.15,1.86-1.59,2.87-.72,1.95-.98,2.96-.51,1.93-.61,2.92c-.16,1.72.22,3.4.63,5.06.25,1.01.5,2.02.62,3.06.13,1.12.04,2.22-.03,3.34-.02.29.4.32.48.07,1.07-3.44-.9-6.83-1.04-10.24-.08-1.97.53-4.04,1.18-5.88.71-2.03,2.01-3.79,2.85-5.77.36-.85.69-1.72.99-2.6.13-.36.26-1.07.48-1.32h-.43c.7.9,1.39,1.8,2.08,2.71,1.17,1.54,2.41,3.09,3.18,4.87,1.92,4.45.67,9.54-2.94,12.72-2.14,1.89-4.54,3.47-6.7,5.35-.13.12.04.35.19.25h0Z" fill="#6db3bf"/><path d="m418.95,156.59c-6.42-5.25-15.69-6.85-23.7-5.18-2.25.47-4.45,1.24-6.46,2.35-.35.19-.04.73.32.54,7.14-3.94,16.41-3.61,23.89-.83,2.11.78,4.11,1.82,5.9,3.18.04.03.1-.04.06-.07h0Z" fill="#6db3bf"/><path d="m389.23,154.41c1.05.12,2.14.23,3.14.62.93.36,1.76.95,2.6,1.47,1.65,1.02,3.47,1.75,5.37,2.15,1.87.39,3.79.48,5.68.24s3.88-.89,5.79-1.43c2.29-.64,4.66-1.14,7.02-.59.27.06.44-.25.26-.45-1.19-1.36-1.99-2.99-2.87-4.55-.78-1.37-1.7-2.65-2.82-3.77-1.91-1.91-4.41-3.44-7.1-3.9-3.86-.65-8.06.5-11.25,2.68-2.54,1.73-4.94,4.32-6.03,7.23-.08.23.25.34.37.16.86-1.28,1.62-2.62,2.63-3.81.84-1,1.8-1.91,2.85-2.69,1.78-1.32,3.81-2.27,5.97-2.78,1.62-.38,3.32-.53,4.98-.33,2.56.31,4.96,1.66,6.84,3.37,1.28,1.17,2.35,2.54,3.21,4.05.91,1.61,1.64,3.3,2.84,4.72l.26-.45c-4.01-.99-7.88.91-11.75,1.7s-8.31.1-11.85-2.05c-.93-.57-1.82-1.2-2.85-1.57s-2.19-.45-3.3-.5c-.31-.01-.3.44,0,.48h0Z" fill="#6db3bf"/><path d="m427.63,143.45c-2.22-3.11-5.36-5.45-8.74-7.17-3.57-1.82-7.61-2.95-11.61-3.21-2.11-.14-4.24,0-6.3.49-.39.1-.23.7.17.6,3.65-.89,7.52-.57,11.14.33,3.83.95,7.52,2.6,10.77,4.84,1.69,1.17,3.24,2.55,4.5,4.18.03.04.1-.01.07-.06h0Z" fill="#6db3bf"/><path d="m401.23,134.28c1.53.61,3.13,1.06,4.34,2.23.72.69,1.34,1.47,2.09,2.14.67.61,1.41,1.15,2.18,1.63,1.58.98,3.34,1.67,5.16,2.02,1.9.37,3.83.29,5.75.27,2.3-.03,4.65.03,6.73,1.14.24.13.48-.13.37-.37-.76-1.56-1.07-3.28-1.51-4.95-.36-1.34-.88-2.63-1.58-3.82-1.21-2.05-3-3.92-5.19-4.92-3.41-1.56-7.66-1.63-11.21-.52-2.7.84-5.55,2.47-7.21,4.82-.14.2.15.39.32.25,1.07-.91,2.07-1.89,3.25-2.67,1.04-.68,2.16-1.24,3.33-1.65,1.98-.69,4.09-.98,6.18-.88,1.63.08,3.29.37,4.8.99,2.13.86,3.89,2.58,5.12,4.48.84,1.3,1.45,2.74,1.85,4.24.44,1.65.66,3.33,1.39,4.9l.37-.37c-3.51-1.96-7.65-.94-11.45-1.37-1.97-.22-3.88-.85-5.6-1.83-.89-.5-1.73-1.1-2.49-1.78s-1.38-1.43-2.08-2.13c-1.31-1.31-3.02-1.77-4.74-2.31-.3-.09-.4.35-.13.46h0Z" fill="#6db3bf"/><path d="m435.7,134.09c-2.59-6.28-8.88-10.97-15.25-12.9-1.79-.54-3.65-.86-5.51-.84-.4,0-.4.63,0,.62,3.31-.03,6.57,1.01,9.49,2.51,3.04,1.55,5.83,3.66,8.14,6.18,1.23,1.34,2.28,2.82,3.05,4.46.02.05.11.01.09-.04h0Z" fill="#6db3bf"/><path d="m414.97,121.07c1.31.92,2.6,1.67,3.44,3.07s1.72,2.82,2.96,4,2.58,2.02,4.09,2.64c1.45.6,2.99.87,4.52,1.2,2.02.43,3.85,1.15,5.54,2.34.2.14.44-.09.39-.3-.58-2.57-.09-5.22-.82-7.78-.58-2.01-1.68-3.97-3.29-5.34-2.52-2.14-6.24-3.09-9.49-2.91-2.54.14-5.47.96-7.38,2.72-.18.16.05.42.25.32,1.12-.55,2.17-1.21,3.36-1.64,1.06-.39,2.18-.64,3.31-.74,1.9-.17,3.82.04,5.64.61,1.32.41,2.64,1,3.74,1.84,1.63,1.24,2.75,3.14,3.37,5.06.39,1.23.58,2.5.6,3.79.02,1.41-.09,2.81.2,4.2l.39-.3c-1.43-1.04-3.01-1.78-4.72-2.22-1.48-.39-3.01-.61-4.46-1.09-1.69-.56-3.26-1.47-4.58-2.66-1.34-1.21-2.2-2.63-3.12-4.16s-2.25-2.23-3.7-3.07c-.27-.16-.49.24-.24.41h0Z" fill="#6db3bf"/><path d="m426.82,114.79c2.77,1.06,5.48,2.22,8.49,2.3,1.76.05,3.55-.18,5.2-.79,1.4-.52,2.73-1.22,4.07-1.85,2.02-.96,4.06-1.89,6.16-2.68.2-.08.28-.31.13-.48-2.83-3.12-6.67-5.56-10.95-5.88-3.55-.27-7.3,1.32-9.93,3.67-1.62,1.44-2.82,3.39-3.38,5.48-.09.35.41.48.53.15.66-1.81,1.48-3.47,2.87-4.83,1.22-1.21,2.72-2.09,4.28-2.79,1.6-.72,3.22-1.17,4.99-1.13,1.87.04,3.72.53,5.4,1.33,2.22,1.05,4.15,2.6,5.8,4.41l.13-.48c-3.2,1.21-6.22,2.78-9.34,4.18-3,1.34-6.54,1.55-9.69.6-1.56-.47-3.06-1.18-4.65-1.51-.2-.04-.28.24-.09.31h0Z" fill="#6db3bf"/><path d="m393.64,59.27c-5.06,0-10.16,0-15.14,1.04-2.26.47-4.48,1.21-6.56,2.21-1.95.93-3.69,2.07-5.03,3.79-1.43,1.84-2.41,3.98-3.67,5.93-.29.45.43.87.72.42,1.07-1.67,1.94-3.46,3.06-5.1,1.21-1.77,2.75-3.02,4.63-4.01,4.14-2.18,8.87-3.13,13.49-3.56,2.82-.26,5.66-.34,8.49-.42.19,0,.19-.3,0-.3h0Z" fill="#6db3bf"/><path d="m410.66,41.95c-5.17-.83-10.3-.52-15.39.63-4.67,1.06-9.41,2.27-13.78,4.23-2.34,1.05-4.72,2.32-6.62,4.07-.29.27.1.79.43.55,1.84-1.31,3.69-2.55,5.74-3.53s4.25-1.79,6.45-2.48c4.7-1.49,9.6-2.88,14.52-3.34,2.88-.27,5.77-.25,8.64.08.12.01.15-.2.03-.21h0Z" fill="#6db3bf"/><path d="m373.52,20.94c1.2,4.15,1.99,8.41,2.34,12.72.33,4.05.5,8.26-.15,12.29-.17,1.04-.4,2.08-.74,3.08s-.88,1.97-1.28,2.98c-.1.25.28.47.46.27,1.2-1.37,1.72-3.46,2.06-5.2.38-1.93.5-3.9.54-5.86.08-4.36-.33-8.72-1.17-13-.49-2.48-1.12-4.92-1.89-7.32-.03-.1-.2-.06-.17.05h0Z" fill="#6db3bf"/><path d="m400.16,10.21c-.03,4.23-.28,8.5-1.35,12.61-.48,1.83-1.11,3.62-1.94,5.33s-1.98,3.24-3.08,4.83c-.2.29.24.61.48.37,1.36-1.33,2.36-3.16,3.17-4.86s1.46-3.54,1.92-5.4c1.05-4.21,1.22-8.56,1.05-12.87,0-.17-.26-.17-.26,0h0Z" fill="#6db3bf"/><path d="m409.76,25.1c3.99-2.69,7.89-5.47,12.3-7.45,4.74-2.12,10.21-3.33,15.36-2.07,2.33.57,4.95,1.87,5.24,4.56.26,2.35-2.16,3.92-3.88,5.02-4.14,2.65-9.21,3.72-14.06,2.85-2.6-.47-5.13-1.28-7.68-1.98-2.38-.66-4.85-1.28-7.33-1.25-.31,0-.31.47,0,.48,5.04.25,9.75,2.38,14.67,3.28s10.04-.07,14.31-2.7c1.69-1.04,4.03-2.51,4.46-4.62s-1.07-4.3-2.94-5.26c-2.22-1.14-4.8-1.45-7.27-1.45-2.76,0-5.5.56-8.11,1.45-2.85.98-5.56,2.36-8.11,3.96-2.44,1.53-4.72,3.3-7.05,4.99-.1.07,0,.24.1.17h0Z" fill="#6db3bf"/><path d="m397.98,26.7c2.94-3.06,4.93-7.17,6.12-11.21.63-2.12,1.05-4.33,1.14-6.54.07-1.92-.16-4.08-1.21-5.74-1.25-1.98-4.01-3.76-6.43-3.05-1.24.36-2.04,1.41-2.4,2.61-.7,2.29-.54,4.77-.09,7.09.52,2.72,1.46,5.33,1.86,8.08s.34,5.79.69,8.67c.04.29.46.31.47,0,.1-4.46-.43-9.02-1.62-13.32-.62-2.25-1.22-4.55-1.26-6.9-.03-1.68.1-4.01,1.47-5.21,1.99-1.74,5.11.02,6.5,1.7,1.2,1.45,1.54,3.46,1.57,5.29.03,2.08-.28,4.17-.78,6.19-.55,2.26-1.38,4.45-2.46,6.51-1.06,2.02-2.38,3.85-3.76,5.66-.08.11.1.24.19.15h0Z" fill="#6db3bf"/><path d="m376.37,44.2c3.16-4.76,4.26-10.62,3.91-16.27-.31-5.04-1.68-10.6-5.25-14.37-1.28-1.35-3.32-3.01-5.32-2.66-1.51.27-2.41,1.69-2.92,3.02-.62,1.6-.86,3.41-.8,5.12.09,2.4,1.13,4.56,2.45,6.53.84,1.26,1.77,2.45,2.6,3.71.95,1.45,1.74,3.01,2.4,4.61,1.38,3.31,2.11,6.76,2.62,10.3.03.24.43.18.42-.06-.16-5.59-2.24-11.38-5.42-15.95-1.41-2.02-3.03-3.97-3.89-6.3-.65-1.77-.73-3.64-.44-5.49.23-1.52.7-3.33,1.91-4.38,1.52-1.32,3.52-.21,4.85.84,3.98,3.13,5.6,8.64,6.21,13.45.78,6.13-.22,12.49-3.54,17.77-.09.14.13.26.22.13h0Z" fill="#6db3bf"/><path d="m387.75,44.95c2.26-1.03,4.47-2.18,6.77-3.12,2.21-.91,4.47-1.68,6.79-2.28,4.17-1.08,8.98-1.95,13.2-.67,1.99.6,4.01,1.87,4.85,3.86.99,2.34-.7,4.26-2.8,5.1-2.3.91-4.86.9-7.28.63-2.47-.27-4.91-.8-7.34-1.35-2.68-.6-5.35-1.24-8.07-1.63-1.31-.19-2.63-.32-3.95-.35-1.31-.03-2.67-.04-3.93.32-.2.06-.16.37.05.37,1.3.01,2.58-.13,3.88-.1,1.38.04,2.76.17,4.13.38,2.64.39,5.24,1.02,7.85,1.6,2.51.56,5.04,1.1,7.61,1.36s5.09.22,7.41-.76c1.76-.74,3.45-2.25,3.34-4.32s-1.76-3.81-3.5-4.79c-3.86-2.19-8.79-1.61-12.94-.79-2.86.57-5.66,1.44-8.38,2.48-2.7,1.03-5.43,2.19-7.93,3.66-.26.16-.03.53.24.4h0Z" fill="#6db3bf"/><path d="m372.87,63.06c3.13-3.64,7.74-5.16,12.28-6.21,2.66-.62,5.37-1.02,8.1-1.19,2.47-.16,4.99-.11,7.32.8,1.68.66,4.15,2.12,3.89,4.26-.19,1.59-1.9,2.61-3.19,3.25-4.05,2.01-8.81,1.89-13.16,1.18-2.28-.37-4.52-.92-6.78-1.38-2.52-.52-5.23-1.12-7.81-1.01-.26.01-.35.44-.07.48,1.35.22,2.73.28,4.08.48,1.18.17,2.36.39,3.53.63,2.23.45,4.44.99,6.69,1.36,4.56.75,9.5.89,13.74-1.2,1.36-.67,2.91-1.68,3.39-3.2.54-1.74-.78-3.37-2.1-4.33-1.97-1.43-4.5-1.97-6.89-2.02-2.8-.06-5.66.34-8.41.87-3,.58-6.02,1.37-8.83,2.56-2.31.97-4.63,2.34-6.07,4.45-.12.17.16.39.29.23h0Z" fill="#6db3bf"/><path d="m432.68,20.02c-9.36.51-18.6,2.79-27.17,6.6s-16.47,9.1-23.23,15.6c-6.72,6.45-12.31,14.12-16.2,22.59-4.06,8.83-6.17,18.48-6.16,28.21,0,11.81,2.77,23.66,7.52,34.45.57,1.3,1.18,2.58,1.86,3.82.27.49.96.06.74-.43-1.19-2.64-2.4-5.26-3.43-7.97-1.04-2.74-1.94-5.52-2.71-8.35-1.55-5.69-2.56-11.53-2.9-17.42-.56-9.88.97-19.75,4.65-28.94,3.42-8.56,8.54-16.39,14.87-23.08s13.85-12.27,22.08-16.43,17.34-6.99,26.6-8.02c1.16-.13,2.32-.23,3.48-.3.2-.01.2-.32,0-.31h0Z" fill="#6db3bf"/><path d="m380.61,99.71c-3.06,3.59-6.15,7.22-8.52,11.32s-3.73,8.28-3.89,12.8c-.09,2.5.35,4.95,1.06,7.35.15.51.96.3.81-.22-.62-2.08-1.04-4.21-1.04-6.39s.32-4.44.92-6.57c1.19-4.26,3.45-8.16,5.99-11.75,1.54-2.17,3.22-4.26,4.88-6.33.12-.15-.08-.36-.21-.21h0Z" fill="#6db3bf"/><path d="m378.42,75.55c-3.71,3.17-6.69,6.97-9.01,11.26s-4.59,8.91-6.03,13.64c-.79,2.59-1.43,5.4-1.33,8.12.02.46.66.45.7,0,.21-2.43.51-4.79,1.17-7.14s1.54-4.64,2.52-6.87c1.91-4.4,3.98-8.85,6.79-12.76,1.58-2.2,3.36-4.24,5.34-6.09.1-.1-.05-.25-.15-.15h0Z" fill="#6db3bf"/><path d="m338.36,90.22c3.8,1.71,7.43,3.78,10.83,6.19s6.71,5.01,9.45,8.12c.74.84,1.43,1.74,2.02,2.7s.96,1.99,1.49,2.97c.16.29.54.07.5-.21-.28-1.86-1.63-3.67-2.79-5.1-1.28-1.58-2.78-2.99-4.32-4.32-3.26-2.81-6.8-5.27-10.57-7.36-2.12-1.17-4.31-2.22-6.54-3.15-.09-.04-.15.12-.07.16h0Z" fill="#6db3bf"/><path d="m347.44,62.97c3.07,2.64,6.03,5.47,8.42,8.75,1.15,1.58,2.16,3.27,2.97,5.04.86,1.88,1.29,3.8,1.83,5.78.09.33.63.27.61-.08-.14-1.97-.92-3.96-1.72-5.74s-1.89-3.59-3.1-5.22c-2.48-3.35-5.55-6.16-8.82-8.72-.13-.1-.31.07-.18.18h0Z" fill="#6db3bf"/><path d="m358.6,75.33c-.44-4.34-2.36-8.64-4.77-12.23-1.21-1.81-2.62-3.55-4.26-4.99-1.42-1.26-3.2-2.41-5.12-2.63-2.49-.29-6.18.98-6.57,3.84-.23,1.68.95,3.18,2.04,4.31,1.42,1.48,3.18,2.58,4.99,3.52,2.26,1.17,4.59,2.14,6.74,3.52,2.33,1.5,4.4,3.35,6.7,4.87.22.15.48-.19.28-.37-1.63-1.45-3.42-2.75-5.21-4s-3.65-2.32-5.63-3.23c-1.73-.8-3.46-1.61-5.05-2.66s-3.28-2.44-4.09-4.19c-1.44-3.11,2.28-5.1,4.89-5.18,1.82-.05,3.51.83,4.93,1.9,1.72,1.31,3.19,2.98,4.47,4.71,1.39,1.88,2.54,3.92,3.44,6.08s1.46,4.45,1.97,6.75c.03.13.25.11.24-.03h0Z" fill="#6db3bf"/><path d="m357.94,103.13c-1.4-4.87-4.51-9.06-8.35-12.31s-8.77-6.04-13.93-6.48c-1.3-.11-2.63-.05-3.9.24-1.06.25-2.2.63-2.99,1.41-1.25,1.22-1,3-.3,4.44.81,1.68,2.15,3.19,3.61,4.33,2.02,1.58,4.51,2.14,7.01,2.39,1.59.16,3.2.23,4.78.48s3.19.68,4.73,1.19c3.26,1.08,6.22,2.71,9.11,4.53.2.13.45-.18.26-.34-4.09-3.28-9.46-5.43-14.64-6.09-2.6-.33-5.27-.28-7.8-1.05-2.04-.63-3.71-1.87-5.08-3.47-1.05-1.22-2.32-3.02-2-4.74.42-2.29,3.71-2.78,5.58-2.85,5.04-.17,10.02,2.35,13.98,5.26,4.46,3.29,8.03,7.8,9.7,13.12.05.15.29.09.24-.07h0Z" fill="#6db3bf"/><path d="m365.87,94.95c.69-2.41,1.25-4.85,2.02-7.24s1.73-4.8,2.87-7.08,2.37-4.37,3.9-6.31c1.36-1.73,2.98-3.34,4.97-4.32,1.91-.93,4.82-1.42,6.49.25,1.79,1.79.76,4.75-.35,6.61-1.22,2.05-2.98,3.73-4.78,5.27s-3.56,2.84-5.38,4.21c-1.98,1.49-3.96,2.98-5.8,4.65-.91.82-1.78,1.69-2.58,2.62s-1.61,1.87-2.11,2.98c-.08.18.14.4.29.23.78-.9,1.44-1.89,2.23-2.79s1.63-1.74,2.51-2.55c1.79-1.64,3.73-3.11,5.67-4.57s3.79-2.82,5.58-4.36c1.89-1.62,3.73-3.39,4.97-5.57,1.04-1.82,1.84-4.27.8-6.27-1.03-1.97-3.5-2.35-5.5-2-4.71.84-7.89,5.36-10.11,9.23-1.48,2.57-2.66,5.29-3.67,8.07-1.04,2.85-1.98,5.82-2.5,8.82-.05.29.37.42.45.12h0Z" fill="#6db3bf"/><path d="m370.04,117.97c-.82-5.25,1.51-10.35,4.03-14.83,1.26-2.25,2.68-4.43,4.29-6.44,1.48-1.85,3.21-3.52,5.41-4.48,1.6-.7,4.29-1.22,5.31.68.67,1.25.37,2.9.03,4.2-1.08,4.09-3.93,7.43-7.04,10.17-1.82,1.61-3.78,3.03-5.69,4.52-2.13,1.65-4.45,3.38-6.12,5.52-.19.25.1.56.35.35,1.08-.92,2.05-1.96,3.12-2.9.95-.83,1.94-1.63,2.93-2.41,1.86-1.45,3.76-2.84,5.54-4.38,3.31-2.88,6.38-6.43,7.49-10.77.35-1.37.57-2.98-.02-4.32-.7-1.56-2.45-1.95-4.02-1.76-5.16.63-8.52,5.84-10.96,9.9-1.56,2.6-2.92,5.35-3.98,8.19s-1.82,5.94-1.02,8.87c.06.24.4.13.36-.1h0Z" fill="#6db3bf"/><path d="m414.94,223.4c-.43,0-.86-.01-1.29-.02-.54-.01-1.08-.03-1.62-.02-.75-.01-1.29-.29-1.67-.92-5.64-9.56-9.21-18.67-10.91-27.85-.27-1.46-.53-3-.79-4.72-.05-.31-.04-.61-.02-.94,0-.15.01-.31.01-.48h.5c0,.18,0,.34-.01.5-.01.31-.02.58.02.84.26,1.72.52,3.26.79,4.71,1.69,9.12,5.24,18.17,10.85,27.68.28.48.65.67,1.23.67.55,0,1.09,0,1.64.02.44.01.89.02,1.33.02,3.76,0,7.51-.02,11.27-.03l5.63-.02c.44,0,.68-.09.84-.33l.42.28c-.33.49-.84.56-1.25.56l-5.63.02c-3.76.01-7.51.02-11.27.03h-.05Z" fill="#6db3bf"/><path d="m433.13,222.82l-.37-.33c.31-.34.51-.75.71-1.19.09-.19.18-.38.28-.56l.78-1.42c1.89-3.43,3.85-6.98,5.3-10.7,1.8-4.61,3.14-9.62,4.35-16.25.04-.22.08-.44.13-.67.2-1.03.41-2.1.29-3.21l.5-.05c.12,1.18-.09,2.29-.3,3.35-.04.22-.09.44-.13.66-1.22,6.67-2.57,11.71-4.38,16.35-1.46,3.75-3.43,7.31-5.32,10.76l-.78,1.42c-.1.17-.18.36-.27.54-.22.45-.44.91-.79,1.3Z" fill="#6db3bf"/><path d="m419.57,189.21c-16.87,0-20.45-1.89-20.6-1.97-.27-.2-.38-.4-.34-.6.06-.33.48-.49.83-.58,1.72-.47,3.08-.74,4.41-.89,6.95-.79,12.31-1.13,17.41-1.09,7.39.05,13.36.42,18.8,1.17,1.51.21,2.7.44,3.75.74.61.17,1,.35,1.04.68.04.3-.25.5-.51.65h0c-.09.05-.19.11-.31.16-.2.07-4.5,1.6-22.8,1.73-.58,0-1.14,0-1.69,0Zm-20.44-2.48s.04.04.11.09c0,0,3.91,2.02,22.01,1.89,18.15-.13,22.57-1.67,22.61-1.69.08-.04.18-.09.26-.14h0c.13-.07.2-.13.23-.16-.07-.05-.23-.13-.65-.25-1.03-.29-2.2-.52-3.69-.73-5.42-.74-11.37-1.11-18.74-1.16-5.05-.04-10.42.3-17.35,1.08-1.3.15-2.64.42-4.33.88-.31.08-.42.16-.46.19Z" fill="#6db3bf"/><path d="m439.01,213.74l.32-.84c.38-.98.73-1.91,1.26-2.78.21-.35.58-.49.9-.62.08-.03.15-.06.22-.09,4.91-2.17,9.13-5.55,12.56-10.05.96-1.26,1.62-2.72,2.21-4.11v-.04c.04-.6.08-1.17-.03-1.74-.15-.77-.52-1.33-1.12-1.7-1.2-.44-2.48-.33-3.99.38-2.04.95-3.69,2.4-4.9,4.31l-.12.19c-.19.31-.39.63-.69.88,0,0-.03.04-.04.06-.2.28-.43.33-.69.16-.31-.2-.23-.5-.19-.62l.02-.07.14-.74c.17-.95.35-1.9.51-2.85.15-.87.28-1.67.38-2.42.04-.3.15-.66.63-.82.43-.14.85-.3,1.27-.46l.5-.19c2.63-1.3,5.12-1.67,7.58-1.12,1.8.41,3.21,1.56,4.17,3.44.48.94.4,1.97.32,2.98-.01.17-.03.33-.04.5-.17,2.8-1.31,5.19-3.47,7.31-4.9,4.8-9.79,8.15-14.95,10.23-.09.04-.18.06-.27.08l-.1.02c-.5.28-1.12.49-1.97.65l-.44.09Zm14.87-22.73c.58,0,1.14.1,1.69.3.77.47,1.21,1.13,1.39,2.05.12.63.08,1.26.04,1.87l-.02.17c-.61,1.43-1.28,2.94-2.29,4.26-3.48,4.56-7.77,7.99-12.76,10.2-.08.04-.16.07-.24.1-.27.11-.53.21-.66.42-.5.82-.85,1.73-1.21,2.68.57-.14,1.02-.3,1.43-.53l.17-.05c.07-.02.13-.03.2-.06,5.09-2.06,9.93-5.37,14.79-10.13,2.07-2.02,3.15-4.31,3.32-6.98.01-.17.02-.33.04-.5.07-.93.15-1.9-.27-2.71h0c-.89-1.74-2.18-2.81-3.83-3.18-2.35-.53-4.72-.17-7.28,1.09l-.52.2c-.43.16-.86.32-1.29.46-.19.06-.26.16-.29.41-.1.76-.23,1.56-.38,2.44-.17.95-.34,1.91-.51,2.86l-.14.75s-.02.07-.03.11c0,.02-.01.04-.02.06,0,0,.01-.01.02-.02.04-.05.07-.1.13-.15.24-.2.41-.47.58-.76l.12-.19c1.26-1.99,2.98-3.5,5.11-4.5.96-.45,1.87-.67,2.73-.67Z" fill="#6db3bf"/><path d="m435.43,174.24l-.23-.59c-.29-.74-.55-1.7-.76-2.86-.65-3.46-3.21-6.24-6.54-7.08-.74-.19-1.41-.4-2.01-.63l-.75-.3.79-.18s.62-.14,1.52-.33c3.58-.77,6.3-3.57,6.95-7.15.23-1.26.5-2.29.8-3.07l.23-.59.23.59c.31.78.58,1.81.8,3.06.64,3.57,3.36,6.37,6.92,7.14h0c.93.2,1.55.35,1.55.35l.78.18-.74.29c-.6.24-1.27.45-2.01.63-3.32.83-5.89,3.61-6.54,7.08-.22,1.16-.47,2.12-.76,2.86l-.23.59Zm-8.55-11.33c.36.12.74.22,1.14.33,3.51.88,6.22,3.81,6.91,7.47.15.8.32,1.51.5,2.1.19-.59.35-1.3.5-2.1.69-3.66,3.4-6.59,6.91-7.47.4-.1.78-.21,1.14-.33-.21-.05-.45-.1-.71-.16h0c-3.76-.81-6.63-3.78-7.3-7.54-.16-.89-.34-1.66-.54-2.3-.2.64-.38,1.42-.54,2.31-.68,3.78-3.56,6.74-7.33,7.55-.25.05-.48.1-.67.15Z" fill="#fff"/><path d="m165.17,197.29l-.23-.59c-.29-.73-.55-1.7-.76-2.86-.65-3.46-3.22-6.24-6.54-7.08-.73-.18-1.4-.39-2-.63l-.75-.3.79-.18s.62-.14,1.52-.33c3.58-.77,6.3-3.57,6.95-7.15.23-1.26.5-2.29.8-3.07l.23-.59.23.59c.31.78.58,1.81.8,3.06.64,3.57,3.36,6.37,6.92,7.14h0c.92.2,1.55.35,1.55.35l.78.18-.75.29c-.6.24-1.28.45-2,.63-3.32.83-5.89,3.61-6.54,7.08-.22,1.16-.47,2.12-.76,2.86l-.23.59Zm-8.55-11.33c.36.12.74.22,1.13.32,3.51.88,6.23,3.81,6.91,7.47.15.8.32,1.51.51,2.1.19-.59.35-1.3.51-2.1.68-3.65,3.4-6.59,6.91-7.47.4-.1.78-.21,1.14-.33-.21-.05-.45-.1-.71-.16h0c-3.76-.81-6.63-3.77-7.3-7.54-.16-.89-.34-1.66-.54-2.3-.2.64-.38,1.42-.54,2.31-.68,3.78-3.56,6.74-7.33,7.55-.25.05-.47.1-.67.15Z" fill="#fff"/><path d="m342.97,42.27l-.23-.59c-.29-.74-.55-1.7-.77-2.86-.65-3.46-3.21-6.24-6.54-7.08-.73-.18-1.4-.39-2.01-.63l-.75-.3.79-.18s.62-.14,1.52-.33c3.58-.77,6.3-3.57,6.95-7.15.23-1.26.5-2.29.8-3.07l.23-.59.23.59c.31.78.58,1.81.8,3.06.64,3.57,3.36,6.37,6.92,7.14h0c.92.2,1.55.35,1.55.35l.78.18-.75.29c-.6.24-1.28.45-2,.63-3.32.84-5.89,3.61-6.54,7.08-.22,1.16-.48,2.12-.76,2.86l-.23.59Zm-8.55-11.33c.36.12.74.22,1.13.32,3.51.88,6.23,3.81,6.91,7.47.15.8.32,1.51.51,2.1.18-.59.35-1.3.5-2.1.68-3.65,3.4-6.58,6.91-7.47.4-.1.78-.21,1.14-.33-.21-.05-.45-.1-.71-.16h0c-3.76-.82-6.63-3.78-7.31-7.54-.16-.89-.34-1.66-.54-2.3-.2.64-.38,1.42-.54,2.31-.68,3.78-3.56,6.74-7.33,7.55-.25.05-.48.1-.67.15Z" fill="#fff"/><path d="m157.9,46.23l-.23-.59c-.29-.73-.55-1.7-.76-2.86-.65-3.46-3.21-6.24-6.54-7.08-.73-.18-1.41-.4-2.01-.63l-.75-.3.79-.18s.62-.14,1.52-.33c3.58-.77,6.3-3.57,6.95-7.15.23-1.26.5-2.29.8-3.07l.23-.59.23.59c.31.78.58,1.81.8,3.06.64,3.57,3.36,6.37,6.92,7.14h0c.92.2,1.55.35,1.55.35l.78.18-.75.29c-.59.23-1.27.45-2,.63-3.32.83-5.89,3.61-6.54,7.08-.22,1.16-.47,2.12-.76,2.86l-.23.59Zm-8.55-11.33c.36.12.74.22,1.14.32,3.51.88,6.23,3.81,6.91,7.47.15.8.32,1.51.51,2.1.19-.59.35-1.3.51-2.1.68-3.65,3.4-6.59,6.91-7.47.4-.1.78-.21,1.14-.33-.21-.05-.45-.1-.71-.16-3.76-.82-6.63-3.78-7.3-7.54-.16-.89-.34-1.66-.54-2.3-.2.64-.38,1.42-.54,2.31-.68,3.78-3.56,6.74-7.33,7.55-.25.05-.47.1-.67.15Z" fill="#fff"/><path d="m434.55,79.56c-7.52,0-13.63-6.12-13.63-13.63s6.12-13.62,13.63-13.62c4.01,0,7.78,1.75,10.36,4.8l.63.75-.91-.35c-.98-.38-2.02-.57-3.11-.57-2.4,0-4.67.94-6.37,2.63-1.7,1.7-2.64,3.96-2.64,6.36,0,4.97,4.04,9.01,9.01,9.01,1.08,0,2.12-.19,3.09-.56l.91-.34-.63.74c-2.59,3.04-6.36,4.78-10.35,4.78Zm0-26.75c-7.24,0-13.13,5.89-13.13,13.12s5.89,13.13,13.13,13.13c3.54,0,6.89-1.42,9.35-3.92-.76.2-1.56.3-2.37.3-5.24,0-9.51-4.27-9.51-9.51,0-2.54.99-4.92,2.79-6.72,1.8-1.79,4.18-2.78,6.72-2.78.82,0,1.61.1,2.38.31-2.45-2.51-5.81-3.93-9.36-3.93Z" fill="#fff"/><path d="m100.52,116.84c-7.52,0-13.63-6.12-13.63-13.63s6.12-13.62,13.63-13.62c4.01,0,7.78,1.75,10.36,4.8l.63.75-.91-.35c-.98-.38-2.02-.57-3.11-.57-4.97,0-9.01,4.04-9.01,9s4.04,9.01,9.01,9.01c1.08,0,2.12-.19,3.09-.55l.91-.34-.63.74c-2.59,3.04-6.36,4.78-10.35,4.78Zm0-26.75c-7.24,0-13.13,5.89-13.13,13.12s5.89,13.13,13.13,13.13c3.54,0,6.89-1.42,9.35-3.92-.76.2-1.56.3-2.37.3-5.24,0-9.51-4.27-9.51-9.51s4.27-9.5,9.51-9.5c.82,0,1.61.1,2.38.31-2.45-2.51-5.81-3.93-9.36-3.93Z" fill="#fff"/><path d="m113.55,197.69c1.75-.12,3.26-.3,4.63-.54,1.21-.21,2.08-.43,2.71-.6.66-.18,1.16-.33,1.52-.47.36-.13.62-.26.81-.4.18-.13.31-.27.39-.44.08-.15.1-.27.13-.4.01-.06,0-.13-.03-.18-.04-.06-.12-.11-.2-.12-.17-.03-.32.06-.35.21-.02.1-.04.2-.09.29-.05.09-.12.17-.23.25-.15.1-.36.2-.67.32-.35.13-.83.28-1.47.45-.62.17-1.48.39-2.65.59-1.34.23-2.83.41-4.56.53-1.93.14-4.3.22-6.86.25-2.55.03-5.11-.01-7.4-.11-2.13-.09-4.21-.25-6.03-.45-1.81-.2-3.3-.44-4.3-.7-.8-.21-1.29-.41-1.52-.65-.17-.18-.18-.4-.18-.59,0-.14-.14-.25-.3-.25h0c-.09,0-.17.04-.22.09-.05.05-.07.11-.07.17,0,.32.01.59.32.91.31.32.9.59,1.81.82,1.03.26,2.55.51,4.39.71,1.81.2,3.91.36,6.07.45,2.29.1,4.86.14,7.43.11,2.58-.02,4.97-.11,6.9-.25Z" fill="#f29178"/><path d="m88.19,194.1c.35-.13.81-.27,1.47-.45.66-.18,1.49-.39,2.65-.59,1.34-.23,2.83-.41,4.56-.53,1.93-.14,4.3-.22,6.86-.25,2.56-.02,5.11.02,7.4.11,2.14.09,4.23.25,6.03.45,1.82.2,3.31.44,4.3.7.8.21,1.29.41,1.52.65.17.18.18.39.18.58,0,.14.14.26.3.26h0c.09,0,.17-.04.22-.09.05-.05.07-.11.07-.17h0c0-.32-.02-.59-.32-.91-.31-.32-.9-.59-1.81-.82-1.03-.26-2.55-.51-4.39-.71-1.8-.2-3.9-.35-6.07-.45-1.86-.08-3.91-.12-6-.12-.48,0-.96,0-1.44,0-2.6.03-4.99.11-6.9.25-1.75.12-3.27.3-4.63.54-1.2.21-2.08.43-2.71.6-.68.18-1.16.33-1.52.47-.36.13-.62.26-.81.4-.18.13-.31.27-.39.44-.08.15-.1.27-.13.4-.01.06,0,.13.03.18.04.06.12.11.2.12.16.03.32-.06.36-.21.02-.11.05-.21.09-.29.05-.09.12-.17.23-.25.14-.1.36-.21.67-.32Z" fill="#f29178"/><path d="m113.88,222.32c1.04-.15,2.14-.34,3.19-.56,1.05-.22,2.04-.46,2.76-.69.63-.19,1.15-.39,1.53-.59.37-.19.56-.35.69-.47.16-.15.26-.24.34-.94.07-.58.13-1.63.25-3.76.11-2.09.28-5.19.47-8.8.18-3.47.39-7.4.6-11.35l.03-.49c0-.06-.02-.12-.06-.17-.05-.06-.13-.09-.22-.1-.16,0-.3.1-.31.25h0s-.03.49-.03.49c-.21,3.95-.41,7.89-.6,11.35-.19,3.61-.36,6.71-.47,8.8-.12,2.12-.18,3.17-.25,3.74-.05.46-.09.55-.18.64-.09.08-.25.22-.56.38-.35.18-.83.36-1.42.54-.71.21-1.64.45-2.71.67-1.04.22-2.13.41-3.14.56-1.04.15-2.15.27-3.29.35-1.03.08-2.09.13-3.14.16-1.02.02-1.98.03-2.95,0-.93-.02-1.88-.06-2.91-.12-1.1-.06-2.17-.15-3.17-.24-1.02-.1-1.96-.21-2.81-.34-.86-.13-1.7-.28-2.5-.44-.8-.17-1.55-.35-2.17-.53-.49-.14-.9-.28-1.25-.42-.29-.12-.5-.23-.66-.32-.13-.07-.18-.16-.26-.56-.11-.58-.22-1.69-.36-3.7-.29-4.24-.73-12.6-1.15-20.69,0-.17-.14-.28-.3-.28h-.01c-.09,0-.17.04-.22.1-.04.05-.07.11-.07.17v.11c.43,8.09.87,16.46,1.15,20.61.14,2.05.25,3.17.36,3.76.14.69.29.78.53.91.16.09.39.21.73.35.38.16.81.31,1.31.45.62.18,1.38.36,2.22.54.83.17,1.68.32,2.54.45.88.13,1.84.25,2.84.34,1.02.1,2.09.18,3.2.25,1.02.06,1.98.1,2.94.12.98.02,1.95.02,2.97,0,1.11-.03,2.18-.08,3.17-.15,1.15-.09,2.27-.21,3.33-.36Z" fill="#f29178"/><path d="m101.19,194.63c-.07.2-.02.38.15.55.14.15.38.29.69.39.05.02.1.03.17.05.36.11.87.21,1.44.27.56.07,1.16.11,1.68.11h.07c1.02,0,1.78-.14,2.51-.28.1-.02.16-.07.2-.13.03-.06.04-.12.03-.18-.04-.14-.2-.23-.37-.19-.72.13-1.44.28-2.44.27-.49,0-1.06-.04-1.6-.11-.54-.07-1-.16-1.33-.25-.05-.01-.09-.03-.14-.05-.13-.04-.23-.09-.31-.14l-.39-.23h.45s.11-.01.18-.02h.04c.08-.02.16-.07.2-.13.04-.05.05-.12.04-.18-.03-.14-.19-.23-.35-.21h-.03c-.44.09-.75.17-.87.45Z" fill="#f29178"/><path d="m105.15,194.46c.29-.29.56-.57.53-1.09-.02-.27-.12-.56-.23-.87-.08-.22-.17-.47-.21-.69-.05-.22-.06-.45-.04-.71.02-.24.06-.48.1-.71.01-.06,0-.12-.04-.18-.05-.06-.12-.11-.2-.12-.02,0-.03,0-.05,0-.15,0-.27.09-.29.22-.04.25-.09.5-.1.75-.02.3,0,.57.05.83.05.25.14.51.23.75.1.29.2.55.21.75.02.31-.2.54-.39.72-.06.05-.09.12-.09.19s.03.13.08.18c.12.11.31.11.43,0l.03-.03Z" fill="#f29178"/><path d="m114.27,188.05c1.91-.12,3.55-.3,5.04-.54,1.31-.21,2.27-.43,2.95-.6.7-.17,1.25-.32,1.65-.46.39-.13.66-.25.86-.37.44-.28.46-.51.48-.78,0-.06-.02-.12-.06-.17-.05-.06-.13-.1-.22-.1-.16,0-.31.1-.32.25,0,.11-.02.25-.23.39-.15.1-.38.2-.72.31-.37.12-.89.27-1.6.44-.72.18-1.62.39-2.89.59-1.47.23-3.09.41-4.97.53-2.11.14-4.69.23-7.48.26-2.79.03-5.58,0-8.07-.1-2.33-.09-4.6-.23-6.57-.43-1.98-.19-3.6-.43-4.69-.68-.88-.2-1.41-.41-1.67-.65-.19-.17-.19-.39-.2-.57,0-.14-.14-.25-.3-.25h0c-.09,0-.17.04-.22.09-.05.05-.07.11-.07.17h0c0,.32.02.59.36.91.33.31.97.57,1.95.8,1.12.26,2.77.5,4.78.69,1.97.19,4.25.34,6.61.43,2.5.09,5.3.13,8.1.1,2.82-.03,5.42-.12,7.52-.26Z" fill="#f29178"/><path d="m97.35,217.3c.05.06.13.1.21.11l1.07.1c.16.01.35.03.56.05.4.03.74.06,1.04.08.34.02.69.05,1.06.07.16.02.31-.1.32-.24,0-.06-.02-.12-.06-.17-.05-.06-.13-.1-.22-.1h0c-.33-.02-.68-.04-1.05-.07-.39-.03-.74-.05-1.03-.08l-1.62-.15s-.02,0-.03,0c-.15,0-.28.1-.3.23,0,.06.01.12.05.18Z" fill="#f29178"/><path d="m95.26,217.13c.16.03.32-.07.34-.22.01-.06,0-.12-.04-.18-.05-.06-.12-.11-.2-.12-1.88-.28-3.59-.65-5.24-1.02h-.05c-.17-.03-.32.05-.35.19-.02.06,0,.12.03.18.04.06.1.1.17.12h.06c1.66.38,3.38.76,5.29,1.04Z" fill="#f29178"/><path d="m125.24,218.74c.19-.55.32-1.07.46-1.71.09-.42.12-.57.16-.72.23-1.06.48-2.25.84-3.34.19-.6.42-1.2.69-1.8.27-.6.55-1.17.82-1.63.45-.76.78-1.1,1.34-1.66l.06-.06c.21-.22.59-.61,1.06-1.08l1.24-1.28s.07-.11.07-.18c0-.07-.04-.13-.09-.17-.12-.1-.31-.09-.42.02l-1.24,1.28c-.32.33-.67.68-1.06,1.08l-.06.06c-.58.59-.94.95-1.42,1.76-.28.47-.58,1.05-.85,1.68-.27.61-.5,1.23-.7,1.84-.37,1.14-.62,2.32-.85,3.37l-.16.73c-.13.6-.26,1.11-.45,1.66-.2.58-.46,1.19-.83,1.92-.31.61-.68,1.27-1.07,1.91v.99h.05c.73-1.12,1.25-2.08,1.56-2.7.38-.73.65-1.36.86-1.98Z" fill="#f29178"/><path d="m125.56,220c.32-.33.65-.64.98-.92.31-.26.65-.52,1.03-.78.31-.21.65-.43,1.04-.67.7-.42,1.35-.77,1.97-1.1.09-.05.14-.1.15-.17.02-.06,0-.12-.03-.18-.08-.13-.26-.17-.4-.1h-.02c-.65.36-1.31.71-2,1.13-.4.24-.75.47-1.08.69-.39.27-.75.54-1.07.82-.34.29-.68.61-1.02.95-.31.32-.64.68-.96,1.08-.49.59-.97,1.23-1.38,1.78v.88h.04c.58-.8,1.19-1.62,1.81-2.37.31-.37.63-.73.94-1.05Z" fill="#f29178"/><path d="m134.46,211.42s-.1,0-.15,0c-.18.02-.51.07-.89.16-.31.08-.62.17-.89.27-.34.13-.71.29-1.09.5-.34.18-.7.41-1.07.66-.38.26-.74.53-1.07.8-.33.27-.63.55-.89.82-.26.28-.5.56-.7.85-.21.3-.38.59-.5.86-.09.21-.17.42-.22.64-.07.28-.08.5-.09.63,0,.2.02.32.1.42.09.12.22.2.44.25.18.04.43.07.69.07.26,0,.54,0,.83-.03.4-.04.76-.1,1.1-.2.43-.12.83-.31,1.2-.55.38-.25.76-.59,1.11-.98.35-.39.66-.83.9-1.28.36-.67.57-1.35.74-1.89.05-.17.1-.31.15-.45.09-.26.17-.45.27-.62.07-.12.13-.22.21-.31l.05-.06c.12-.13.16-.19.15-.31-.02-.15-.06-.27-.37-.27Zm-.64.82c-.08.16-.16.36-.24.57-.05.14-.1.3-.15.47-.17.54-.37,1.2-.71,1.83-.22.41-.51.82-.83,1.18-.32.36-.66.66-.99.88-.31.21-.65.36-1.03.47-.29.08-.61.14-.97.17h0c-.26.02-.51.03-.75.03-.17,0-.32-.02-.44-.04l-.03.12-.09-.08h-.02s-.07-.08-.07-.08h-.05s.01-.04.01-.04l-.02-.02.06-.09c0-.11.02-.29.07-.52.04-.18.11-.37.19-.56.11-.25.26-.51.45-.78.19-.27.41-.53.65-.79.24-.25.52-.51.84-.77.32-.27.67-.53,1.02-.77.35-.24.69-.45,1.02-.62.34-.18.68-.34,1.01-.46.26-.1.54-.18.82-.25l.36-.09-.12.24Z" fill="#f29178"/><path d="m130.32,214.94c.28-.24.59-.48.99-.76.76-.54,1.83-1.23,2.87-1.9l.06-.04c.07-.05.11-.11.12-.18.01-.06,0-.13-.05-.18-.06-.08-.15-.12-.25-.12-.06,0-.12.02-.18.05h-.02c-1.04.68-2.13,1.38-2.94,1.95-.42.3-.75.55-1.03.79-.29.25-.56.5-.84.8-.54.58-1.11,1.28-1.65,1.97-.04.06-.06.12-.05.19.01.07.05.13.12.17.13.09.33.06.43-.06.54-.68,1.1-1.38,1.62-1.94.27-.29.52-.53.79-.76Z" fill="#f29178"/><path d="m134.07,201.33c-.46.14-.93.32-1.37.53-.51.24-1.04.54-1.52.86-.49.33-.91.66-1.26,1-.36.35-.65.71-.91,1.12-.21.34-.4.71-.56,1.14-.16.4-.28.8-.35,1.15-.07.36-.1.67-.07.91.04.31.17.52.41.67.21.13.5.18.88.17.36-.01.81-.09,1.25-.2.44-.11.89-.27,1.29-.45.43-.19.85-.43,1.24-.71.39-.28.74-.59,1.05-.92.29-.32.55-.67.77-1.04.21-.36.38-.74.52-1.17.11-.33.19-.65.27-.96.13-.49.24-.94.41-1.24.16-.3.37-.48.5-.59l.04-.03c.21-.18.25-.24.17-.42-.06-.13-.26-.2-.56-.2-.04,0-.08,0-.12,0-.24.01-.56.06-.91.12-.42.08-.8.17-1.17.28Zm1.54.18l.29-.04-.17.24c-.05.07-.1.15-.15.23-.19.36-.32.83-.45,1.33v.03c-.08.29-.17.62-.27.91-.13.38-.29.75-.49,1.08-.2.34-.43.66-.71.95-.28.3-.6.59-.96.84-.36.26-.74.47-1.13.65-.37.17-.78.31-1.19.41-.41.11-.8.17-1.11.18-.04,0-.08,0-.11,0-.19,0-.32-.02-.41-.08-.11-.07-.14-.2-.15-.3-.02-.19,0-.45.06-.76.07-.32.18-.7.33-1.07.16-.4.33-.74.52-1.06.23-.37.5-.7.83-1.02.32-.31.72-.63,1.18-.93.46-.31.96-.59,1.44-.82.42-.2.85-.36,1.28-.49.35-.11.71-.19,1.1-.27.08-.02.16-.03.24-.04Z" fill="#f29178"/><path d="m136.13,200.92c-.1,0-.2.05-.26.13l-.04.06c-.54.83-1.1,1.7-1.64,2.58l-.09.14c-.55.89-1.12,1.82-1.98,2.54-.91.76-2.21,1.32-3.46,1.86-.07.03-.13.09-.15.16-.02.06-.02.13.01.18.07.13.25.19.4.13,1.29-.56,2.62-1.13,3.61-1.95.93-.78,1.52-1.74,2.09-2.67l.09-.15c.59-.96,1.13-1.8,1.65-2.6.05-.08.06-.15.05-.21-.02-.07-.07-.13-.14-.16-.05-.03-.1-.04-.16-.04Z" fill="#f29178"/><polygon points="135.76 200.99 135.76 200.99 135.76 200.99 135.76 200.99" fill="#f29178"/><path d="m366.57,210.19h-173.88c-5.54,0-10.04-4.5-10.04-10.04v-108.86c0-5.54,4.5-10.04,10.04-10.04h173.88c5.53,0,10.04,4.5,10.04,10.04v108.86c0,5.54-4.5,10.04-10.04,10.04ZM192.68,81.5c-5.4,0-9.79,4.39-9.79,9.79v108.86c0,5.4,4.39,9.79,9.79,9.79h173.88c5.4,0,9.79-4.39,9.79-9.79v-108.86c0-5.4-4.39-9.79-9.79-9.79h-173.88Z" fill="#081533"/><rect x="182.77" y="81.38" width="193.71" height="128.69" rx="9.91" ry="9.91" fill="#010116"/><rect x="189.67" y="87.93" width="179.91" height="112.9" rx="6.66" ry="6.66" fill="#010116"/><path d="m362.92,200.95h-166.58c-3.74,0-6.79-3.04-6.79-6.79v-99.57c0-3.74,3.04-6.79,6.79-6.79h166.58c3.74,0,6.79,3.04,6.79,6.79v99.57c0,3.74-3.04,6.79-6.79,6.79Zm-166.58-112.9c-3.6,0-6.54,2.93-6.54,6.54v99.57c0,3.6,2.93,6.54,6.54,6.54h166.58c3.6,0,6.54-2.93,6.54-6.54v-99.57c0-3.6-2.93-6.54-6.54-6.54h-166.58Z" fill="#081533"/><path d="m196.97,95.81c-1.1,0-2-.85-2-1.9s.9-1.9,2-1.9,2,.85,2,1.9-.9,1.9-2,1.9Zm0-3.55c-.96,0-1.75.74-1.75,1.65s.78,1.65,1.75,1.65,1.75-.74,1.75-1.65-.78-1.65-1.75-1.65Z" fill="#081533"/><path d="m203.21,95.81c-1.1,0-2-.85-2-1.9s.9-1.9,2-1.9,2,.85,2,1.9-.9,1.9-2,1.9Zm0-3.55c-.96,0-1.75.74-1.75,1.65s.78,1.65,1.75,1.65,1.75-.74,1.75-1.65-.78-1.65-1.75-1.65Z" fill="#081533"/><path d="m209.45,95.81c-1.1,0-2-.85-2-1.9s.9-1.9,2-1.9,2,.85,2,1.9-.9,1.9-2,1.9Zm0-3.55c-.96,0-1.75.74-1.75,1.65s.78,1.65,1.75,1.65,1.75-.74,1.75-1.65-.78-1.65-1.75-1.65Z" fill="#081533"/><path d="m330.05,154.27h-3.62l-.04-.05-3.39-4.46.06-.08,3.37-4.45h3.62l-3.33,4.53,3.33,4.5Zm-3.5-.25h3l-3.15-4.25,3.15-4.28h-3l-3.24,4.28,3.24,4.25Z" fill="#fff"/><path d="m331.8,159.81h-3.56l.06-.17,7.84-21.23h3.56l-.06.17-7.84,21.23Zm-3.2-.25h3.02l7.72-20.9h-3.02l-7.72,20.9Z" fill="#fff"/><path d="m341.17,154.27h-3.62l3.33-4.5-3.33-4.53h3.62l.04.05,3.39,4.48-.06.08-3.38,4.43Zm-3.13-.25h3l3.24-4.25-3.24-4.28h-3l3.15,4.28-3.15,4.25Z" fill="#fff"/><path d="m353.77,190h-39.95c-.96,0-1.74-.78-1.74-1.74v-78.72c0-.96.78-1.74,1.74-1.74h39.95c.96,0,1.74.78,1.74,1.74v78.72c0,.96-.78,1.74-1.74,1.74Zm-39.95-81.95c-.82,0-1.49.67-1.49,1.49v78.72c0,.82.67,1.49,1.49,1.49h39.95c.82,0,1.49-.67,1.49-1.49v-78.72c0-.82-.67-1.49-1.49-1.49h-39.95Z" fill="#fff"/><path d="m315.39,188.8c-.56,0-1.12-.2-1.54-.61-.42-.39-.64-.92-.64-1.47s.23-1.08.64-1.48c.45-.43,1.08-.64,1.71-.6l.5.04-.46.2c-.14.06-.26.14-.37.25-.24.23-.38.54-.38.87s.13.64.38.87c.51.48,1.34.48,1.85,0,.11-.11.2-.23.26-.35l.2-.43.04.47c.05.61-.18,1.21-.63,1.64-.43.4-.99.61-1.54.61Zm-.29-3.89c-.41.06-.79.24-1.08.52-.36.35-.57.81-.57,1.29s.2.95.57,1.29c.76.72,1.99.72,2.75,0,.3-.28.49-.64.54-1.03-.02.02-.04.04-.06.06-.6.57-1.59.57-2.19,0-.29-.28-.46-.65-.46-1.05s.16-.77.46-1.05c.01-.01.03-.03.04-.04Z" fill="#fff"/><path d="m315.39,113.18c-.58,0-1.13-.22-1.54-.61-.42-.39-.64-.92-.64-1.47s.23-1.08.64-1.48c.85-.81,2.24-.81,3.09,0,.46.43.69,1.03.63,1.64l-.04.47-.2-.43c-.06-.13-.15-.25-.26-.35-.51-.48-1.34-.48-1.85,0-.24.23-.38.54-.38.87s.13.64.38.87c.11.1.23.19.37.25l.47.2-.51.04c-.06,0-.12,0-.17,0Zm0-3.91c-.5,0-.99.18-1.37.54-.36.35-.57.81-.57,1.29s.2.95.57,1.29c.3.28.68.46,1.08.52-.02-.01-.03-.03-.04-.04-.29-.28-.46-.65-.46-1.05s.16-.77.46-1.05c.6-.57,1.59-.57,2.19,0,.02.02.04.04.06.06-.06-.39-.25-.75-.54-1.03-.38-.36-.88-.54-1.37-.54Z" fill="#fff"/><path d="m352.21,113.18c-.06,0-.12,0-.17,0l-.51-.04.47-.2c.14-.06.26-.14.37-.25.24-.23.38-.54.38-.87s-.13-.63-.38-.87c-.51-.48-1.34-.48-1.85,0-.11.1-.2.22-.26.35l-.2.42-.04-.46c-.05-.61.18-1.21.63-1.64.85-.81,2.24-.81,3.09,0,.42.39.64.92.64,1.48s-.23,1.08-.64,1.47c-.41.39-.96.61-1.54.61Zm-.76-2.84c.4,0,.79.14,1.09.43.29.28.46.65.46,1.05s-.16.77-.46,1.05c-.01.01-.03.03-.04.04.41-.06.79-.24,1.08-.52.36-.35.57-.81.57-1.29s-.2-.95-.57-1.29c-.76-.72-1.99-.72-2.75,0-.3.28-.49.64-.54,1.03.02-.02.04-.04.06-.06.3-.29.7-.43,1.1-.43Z" fill="#fff"/><path d="m352.2,188.8c-.56,0-1.12-.2-1.55-.61-.46-.43-.69-1.03-.63-1.64l.04-.46.2.42c.06.13.15.25.26.35.51.48,1.33.48,1.85,0,.24-.23.38-.54.38-.87s-.13-.64-.38-.87c-.11-.1-.24-.19-.37-.25l-.46-.2.5-.04c.63-.04,1.26.17,1.71.6.42.39.64.92.64,1.48s-.23,1.08-.64,1.47c-.42.4-.98.61-1.54.61Zm-1.92-1.82c.06.38.25.75.54,1.03.76.72,1.99.72,2.75,0,.36-.35.57-.81.57-1.29s-.2-.95-.57-1.29c-.3-.28-.68-.46-1.08-.52.02.01.03.03.04.04.29.28.46.65.46,1.05s-.16.77-.46,1.05c-.61.57-1.59.57-2.19,0-.02-.02-.04-.04-.06-.06Z" fill="#fff"/><path d="m314.73,150.57l-.62-1.07-1.14-.59,1.14-.59.62-1.07.62,1.07,1.15.59-1.15.59-.62,1.07Zm-1.22-1.66l.78.41.44.76.44-.76.03-.02.75-.39-.78-.41-.44-.76-.44.76-.03.02-.75.39Z" fill="#fff"/><rect x="313.2" y="113.48" width=".25" height="33.75" fill="#fff"/><rect x="313.2" y="150.58" width=".25" height="33.75" fill="#fff"/><path d="m333.72,188.98l-.62-1.07-1.14-.59,1.14-.59.62-1.07.62,1.07,1.14.59-1.14.59-.62,1.07Zm-1.22-1.66l.78.41.44.76.44-.76.03-.02.75-.39-.78-.41-.44-.76-.44.76-.03.02-.75.39Z" fill="#fff"/><rect x="318.1" y="188.52" width="13.86" height=".25" fill="#fff"/><rect x="335.48" y="188.52" width="14.01" height=".25" fill="#fff"/><path d="m333.72,112.16l-.62-1.07-1.14-.59,1.14-.59.62-1.07.62,1.07,1.14.59-1.14.59-.62,1.07Zm-1.22-1.66l.78.41.44.76.44-.76.03-.02.75-.39-.78-.41-.44-.76-.44.76-.03.02-.75.39Z" fill="#fff"/><rect x="318.1" y="109.04" width="13.86" height=".25" fill="#fff"/><rect x="335.48" y="109.04" width="14.01" height=".25" fill="#fff"/><path d="m352.86,150.57l-.62-1.07-1.14-.59,1.14-.59.62-1.07.62,1.07,1.14.59-1.14.59-.62,1.07Zm-1.22-1.66l.78.41.44.76.44-.76.03-.02.75-.39-.78-.41-.44-.76-.44.76-.03.02-.75.39Z" fill="#fff"/><rect x="354.14" y="113.48" width=".25" height="33.75" fill="#fff"/><rect x="354.14" y="150.58" width=".25" height="33.75" fill="#fff"/><path d="m226.55,156.14h-2.19c-1.89,0-3.64-1.04-4.47-2.66l-1.18-2.3c-.74-1.44-.66-3.12.2-4.49l5.21-8.27c.15-.24.42-.36.72-.3l.1.02v8.69l-.09.03c-.78.25-1.3.93-1.3,1.7,0,.99.85,1.8,1.9,1.8s1.9-.81,1.9-1.8c0-.77-.52-1.46-1.3-1.7l-.09-.03v-8.69l.1-.02c.29-.06.56.06.71.3l5.21,8.27c.86,1.37.94,3.05.2,4.49l-1.18,2.3c-.83,1.61-2.58,2.66-4.47,2.66Zm-1.86-17.78c-.13,0-.27.05-.36.2l-5.21,8.27c-.82,1.3-.89,2.88-.19,4.24l1.18,2.3c.78,1.53,2.45,2.52,4.25,2.52h2.19c1.79,0,3.46-.99,4.25-2.52l1.18-2.3c.7-1.36.62-2.95-.19-4.24l-5.21-8.27c-.09-.14-.23-.19-.35-.2v8.29c.83.3,1.39,1.06,1.39,1.91,0,1.13-.96,2.05-2.15,2.05s-2.15-.92-2.15-2.05c0-.85.55-1.61,1.39-1.91v-8.29Z" fill="#fff"/><path d="m228.14,159.7h-5.37c-.86,0-1.56-.67-1.56-1.49v-.23c0-.82.7-1.49,1.56-1.49h5.37c.86,0,1.56.67,1.56,1.49v.23c0,.82-.7,1.49-1.56,1.49Zm-5.37-2.96c-.72,0-1.31.56-1.31,1.24v.23c0,.68.59,1.24,1.31,1.24h5.37c.72,0,1.31-.56,1.31-1.24v-.23c0-.68-.59-1.24-1.31-1.24h-5.37Z" fill="#fff"/><path d="m245.43,190h-39.94c-.96,0-1.74-.78-1.74-1.74v-78.72c0-.96.78-1.74,1.74-1.74h39.94c.96,0,1.74.78,1.74,1.74v78.72c0,.96-.78,1.74-1.74,1.74Zm-39.94-81.95c-.82,0-1.49.67-1.49,1.49v78.72c0,.82.67,1.49,1.49,1.49h39.94c.82,0,1.49-.67,1.49-1.49v-78.72c0-.82-.67-1.49-1.49-1.49h-39.94Z" fill="#fff"/><path d="m207.05,188.8c-.56,0-1.12-.2-1.54-.61-.42-.39-.64-.92-.64-1.47s.23-1.08.64-1.48c.45-.43,1.08-.64,1.72-.6l.51.04-.47.2c-.14.06-.26.14-.37.25-.24.23-.38.54-.38.87s.13.63.38.87c.51.48,1.34.48,1.85,0,.11-.11.2-.22.26-.35l.2-.42.04.46c.05.61-.18,1.21-.63,1.64-.43.4-.99.61-1.55.61Zm-.29-3.89c-.41.06-.79.24-1.08.52-.36.35-.57.81-.57,1.29s.2.95.57,1.29c.76.72,1.99.72,2.75,0,.3-.28.49-.64.54-1.03-.02.02-.04.04-.06.06-.6.57-1.59.57-2.19,0-.29-.28-.46-.65-.46-1.05s.16-.77.46-1.05c.01-.01.03-.03.04-.04Z" fill="#fff"/><path d="m207.04,113.18c-.58,0-1.13-.22-1.54-.61-.42-.39-.64-.92-.64-1.47s.23-1.08.64-1.48c.85-.81,2.24-.81,3.09,0,.46.43.69,1.03.63,1.64l-.04.46-.2-.42c-.06-.13-.15-.25-.26-.35-.51-.48-1.34-.48-1.85,0-.24.23-.38.54-.38.87s.13.63.38.87c.11.1.24.19.37.25l.47.2-.51.04c-.06,0-.12,0-.17,0Zm0-3.91c-.5,0-.99.18-1.37.54-.36.35-.57.81-.57,1.29s.2.95.57,1.29c.3.28.68.46,1.08.52l-.05-.04c-.29-.28-.46-.65-.46-1.05s.16-.77.46-1.05c.6-.57,1.58-.57,2.19,0,.02.02.04.04.06.06-.06-.39-.25-.75-.54-1.03-.38-.36-.88-.54-1.37-.54Z" fill="#fff"/><path d="m243.86,113.18c-.06,0-.12,0-.17,0l-.51-.04.47-.2c.14-.06.26-.14.37-.25.25-.23.38-.54.38-.87,0-.33-.13-.63-.38-.87-.51-.48-1.34-.48-1.85,0-.11.1-.2.22-.26.35l-.2.42-.04-.47c-.05-.61.18-1.21.63-1.64.85-.81,2.24-.81,3.09,0,.42.39.64.92.64,1.48s-.23,1.08-.64,1.47c-.41.39-.96.61-1.54.61Zm-.76-2.84c.4,0,.79.14,1.09.43.29.28.46.65.46,1.05,0,.4-.16.77-.46,1.05-.01.01-.03.03-.04.04.41-.06.79-.24,1.08-.52.36-.35.57-.81.57-1.29s-.2-.95-.57-1.29c-.76-.72-1.99-.72-2.75,0-.3.28-.49.64-.54,1.03.02-.02.04-.04.06-.06.3-.29.7-.43,1.1-.43Z" fill="#fff"/><path d="m243.86,188.8c-.56,0-1.12-.2-1.55-.61-.46-.43-.69-1.03-.63-1.64l.04-.47.2.42c.06.13.15.25.26.35.51.48,1.34.48,1.85,0,.24-.23.38-.54.38-.87,0-.33-.13-.64-.38-.87-.11-.1-.24-.19-.37-.25l-.47-.2.5-.04c.64-.04,1.26.17,1.72.6.42.39.64.92.64,1.48s-.23,1.08-.64,1.47c-.43.4-.98.61-1.54.61Zm-1.92-1.82c.06.39.25.75.54,1.03.76.72,1.99.72,2.75,0,.36-.35.57-.81.57-1.29s-.2-.95-.57-1.29c-.3-.28-.68-.46-1.08-.52.02.01.03.03.04.04.29.28.46.65.46,1.05,0,.4-.16.77-.46,1.05-.6.57-1.59.57-2.19,0-.02-.02-.04-.04-.06-.06Z" fill="#fff"/><path d="m206.39,150.57l-.62-1.07-1.14-.59,1.14-.59.62-1.07.62,1.07,1.14.59-1.14.59-.62,1.07Zm-1.22-1.66l.78.41.44.76.44-.76.03-.02.75-.39-.78-.41-.44-.76-.44.76-.03.02-.75.39Z" fill="#fff"/><rect x="204.86" y="113.48" width=".25" height="33.75" fill="#fff"/><rect x="204.86" y="150.58" width=".25" height="33.75" fill="#fff"/><path d="m225.38,188.98l-.62-1.07-1.14-.59,1.14-.59.62-1.07.62,1.07,1.15.59-1.15.59-.62,1.07Zm-1.22-1.66l.78.41.44.76.44-.76.03-.02.75-.39-.78-.41-.44-.76-.44.76-.03.02-.75.39Z" fill="#fff"/><rect x="209.76" y="188.52" width="13.86" height=".25" fill="#fff"/><rect x="227.14" y="188.52" width="14.01" height=".25" fill="#fff"/><path d="m225.38,112.16l-.62-1.07-1.14-.59,1.14-.59.62-1.07.62,1.07,1.15.59-1.15.59-.62,1.07Zm-1.22-1.66l.78.41.44.76.44-.76.03-.02.75-.39-.78-.41-.44-.76-.44.76-.03.02-.75.39Z" fill="#fff"/><rect x="209.76" y="109.04" width="13.86" height=".25" fill="#fff"/><rect x="227.14" y="109.04" width="14.01" height=".25" fill="#fff"/><path d="m244.52,150.57l-.62-1.07-1.15-.59,1.15-.59.62-1.07.62,1.07,1.14.59-1.14.59-.62,1.07Zm-1.22-1.66l.78.41.44.76.44-.76.03-.02.75-.39-.78-.41-.44-.76-.44.76-.03.02-.75.39Z" fill="#fff"/><rect x="245.8" y="113.48" width=".25" height="33.75" fill="#fff"/><rect x="245.8" y="150.58" width=".25" height="33.75" fill="#fff"/><path d="m399.5,207.1h-239.76l3.55,9.1h0l.28.71c1.05,2.7,3.14,4.83,5.75,6.05.52.24,1.06.45,1.62.62.28.08.56.16.85.22.86.19,1.75.29,2.66.29h210.33c4.85,0,9.2-2.87,10.88-7.19l.28-.71h0l3.55-9.1Z" fill="#010116"/><path d="m384.79,224.23h-210.33c-.9,0-1.81-.1-2.69-.3-.29-.07-.58-.14-.86-.22-.56-.17-1.11-.38-1.64-.63-2.7-1.27-4.77-3.44-5.81-6.12l-3.9-9.98h240.12l-3.9,9.98c-1.7,4.34-6.12,7.26-11,7.26Zm-224.86-17l3.76,9.64c1.02,2.62,3.04,4.75,5.69,5.98.52.24,1.06.45,1.6.61.27.08.56.16.84.22.86.19,1.75.29,2.63.29h210.33c4.78,0,9.11-2.86,10.76-7.11l3.76-9.64h-239.39Z" fill="#081533"/><path d="m88.02,223.7c-.27-.15-.4-.29-.53-1.01-.15-.86-.27-2.41-.5-5.52-.23-3.11-.6-8.43-.97-14.02-.3-4.54-.53-8.1-.67-10.57-.18-3.08-.24-4.81-.22-5.76.02-.8.08-1.01.21-1.15.13-.14.3-.25.53-.36.24-.11.55-.22,1.02-.34.52-.14,1.11-.28,1.75-.41.65-.13,1.36-.25,2.13-.37.96-.14,2-.27,3.09-.38,1.08-.11,2.18-.2,3.28-.27,1.18-.07,2.42-.12,3.79-.15,1.22-.03,2.6-.04,4.21-.05,1.79,0,3.27.01,4.67.05,1.77.04,3.35.12,4.84.24,1.51.12,3.06.29,4.47.49,1.43.21,2.68.43,3.6.66.76.19,1.37.4,1.81.61.33.17.51.31.64.43.09.09.11.17.1.8-.02.78-.12,2.38-.31,5.28l-.55,8.47c-.36,5.52-.76,11.65-1.01,15.45l-.05.84c-.34,5.22-.34,5.32-.54,5.72-.11.23-.27.5-.6.8-.26.23-.6.46-1.01.67h1.05c.14-.1.27-.2.39-.31.4-.36.58-.68.72-.96.23-.48.24-.68.58-5.89l.05-.83c.25-3.89.66-10.22,1.03-15.83l.53-8.08c.19-2.89.29-4.48.31-5.3.02-.91-.07-.99-.26-1.17-.17-.16-.38-.33-.78-.53-.48-.24-1.13-.46-1.94-.66-.94-.23-2.21-.46-3.67-.67-1.44-.21-3.01-.38-4.52-.5-1.48-.12-3.08-.19-4.88-.24-1.38-.03-2.86-.05-4.69-.05-1.58,0-2.96.02-4.22.05-1.41.03-2.65.08-3.81.15-1.09.07-2.21.16-3.31.27-1.1.11-2.15.24-3.12.39-.78.11-1.5.24-2.16.37-.67.13-1.27.27-1.8.42-.48.13-.84.25-1.12.38-.32.14-.55.3-.73.5-.19.2-.32.43-.34,1.47-.02.98.04,2.71.22,5.8.14,2.47.37,6.03.67,10.57.37,5.54.74,10.87.97,14.02.23,3.23.35,4.72.5,5.57.11.61.23.9.4,1.09h1.02c-.12-.06-.22-.11-.3-.16Z" fill="#f29178"/><path d="m116.37,225.36c-1.58.33-3.29.59-4.95.75-1.61.15-3.36.23-5.2.23h-.25c-1.65,0-3.44-.08-5.32-.21-1.66-.12-3.25-.27-4.73-.46-1.48-.19-2.79-.4-3.88-.64-.26-.06-.5-.12-.74-.18h-1.92s.09.03.13.05c.71.24,1.51.45,2.39.64,1.1.24,2.43.45,3.93.65,1.5.19,3.1.35,4.77.46,1.86.13,3.66.2,5.36.21h.25c1.87,0,3.64-.08,5.27-.23,1.68-.16,3.42-.42,5.02-.76,1.45-.3,2.71-.65,3.71-1.01h-1.74c-.64.18-1.34.35-2.1.51Z" fill="#f29178"/><path d="m87.3,223.85H0v1h89.39c-.83-.28-1.37-.54-1.69-.71-.16-.09-.29-.17-.4-.29Z" fill="#081533"/><path d="m514.29,223.85H122.25c-.44.31-.99.6-1.66.86-.12.05-.26.09-.38.14h394.07v-1Z" fill="#081533"/><path d="m89.73,224.41c-.62-.21-1.08-.4-1.41-.56h-1.02c.11.12.24.2.4.29.31.17.86.43,1.69.71h1.92c-.56-.14-1.1-.28-1.57-.44Z" fill="#f29178"/><path d="m122.25,223.85h-1.05c-.26.13-.54.26-.85.39-.53.21-1.16.41-1.87.61h1.74c.13-.05.26-.09.38-.14.67-.26,1.22-.55,1.66-.86Z" fill="#f29178"/><path d="m327.95,255.1c1.11-1.58,3.05-1.06,3.73.68.29.75.35,1.57.49,2.35.2,1.22.4,2.45.59,3.67-1.09-.63-2.2-1.22-3.14-2.08-1.08-.98-2.76-3.07-1.67-4.63Z" fill="#6db3bf"/><path d="m331.68,255.78c-.68-1.74-2.62-2.26-3.73-.68-1.09,1.56.59,3.65,1.67,4.63.94.85,2.05,1.45,3.14,2.08-.19-1.22-.39-2.45-.59-3.67-.13-.78-.2-1.6-.49-2.35Zm.2-1.34c1.38,1.88,1.35,5.26,1.71,7.46.06.34-.29.48-.54.38-.03,0-.05.01-.09,0-2.39-.58-6.74-3.86-6.03-6.76-.77-.6-1.79-1.62-2.05-2.55-.23-.82.57-1.44,1.15-1.88.59-.43,1.74-1.21,2.5-.78.34.18.49.56.65.89.32.65.59,1.31.8,2.01,0,.02,0,.03,0,.05.73.11,1.42.53,1.91,1.2Z" fill="#081533"/><path d="m352.26,230.13c1.11-1.58,3.05-1.06,3.73.68.29.75.35,1.57.49,2.35.2,1.22.4,2.45.59,3.67-1.09-.63-2.2-1.22-3.14-2.08-1.08-.98-2.76-3.07-1.67-4.63Z" fill="#6db3bf"/><path d="m355.99,230.82c-.68-1.74-2.62-2.26-3.73-.68-1.09,1.56.59,3.65,1.67,4.63.94.85,2.05,1.45,3.14,2.08-.19-1.22-.39-2.45-.59-3.67-.13-.78-.2-1.6-.49-2.35Zm.2-1.34c1.38,1.88,1.35,5.26,1.71,7.46.06.34-.29.48-.54.38-.03,0-.05.01-.09,0-2.39-.58-6.74-3.86-6.03-6.76-.77-.6-1.79-1.62-2.05-2.55-.23-.82.57-1.44,1.15-1.88.59-.43,1.74-1.21,2.5-.78.34.18.49.56.65.89.32.65.59,1.31.8,2.01,0,.02,0,.03,0,.05.73.11,1.42.53,1.91,1.2Z" fill="#081533"/><path d="m378.54,225.38c1.89-.38,2.94,1.33,2.23,3.06-.3.74-.82,1.38-1.26,2.04-.69,1.03-1.4,2.05-2.1,3.07-.36-1.21-.75-2.4-.85-3.67-.11-1.45.11-4.13,1.98-4.5Z" fill="#6db3bf"/><path d="m380.77,228.44c.7-1.73-.34-3.45-2.23-3.06-1.86.38-2.09,3.06-1.98,4.5.1,1.27.49,2.46.85,3.67.7-1.02,1.41-2.04,2.1-3.07.44-.66.96-1.3,1.26-2.04Zm1.06-.83c-.29,2.31-2.64,4.74-3.89,6.58-.19.29-.54.15-.66-.1-.02-.01-.05-.03-.06-.06-1.33-2.07-2.24-7.44.28-9.06-.15-.97-.18-2.41.27-3.27.4-.75,1.41-.65,2.13-.57.72.09,2.09.32,2.35,1.15.12.36-.03.74-.14,1.09-.21.69-.48,1.36-.8,2,0,.02-.02.03-.03.04.46.58.66,1.36.56,2.18Z" fill="#081533"/><path d="m296.74,255.61c1.93,0,2.61,1.9,1.57,3.45-.45.66-1.08,1.19-1.65,1.74-.89.87-1.78,1.72-2.68,2.58-.11-1.25-.25-2.5-.09-3.76.19-1.44.94-4.02,2.85-4.01Z" fill="#6db3bf"/><path d="m298.31,259.06c1.04-1.56.36-3.45-1.57-3.45-1.9,0-2.66,2.57-2.85,4.01-.16,1.26-.01,2.51.09,3.76.89-.86,1.79-1.72,2.68-2.58.56-.55,1.2-1.08,1.65-1.74Zm1.21-.6c-.75,2.2-3.54,4.11-5.14,5.66-.25.24-.56.04-.62-.23-.02-.02-.04-.04-.05-.07-.89-2.29-.69-7.74,2.1-8.82.05-.98.31-2.4.92-3.15.54-.66,1.51-.36,2.2-.13.69.23,1.98.74,2.07,1.6.04.38-.18.72-.36,1.04-.35.63-.74,1.23-1.19,1.8-.01.02-.02.02-.04.03.33.66.37,1.47.11,2.25Z" fill="#081533"/><path d="m215.26,255.91c1.75-.82,3.17.6,2.89,2.45-.12.79-.48,1.53-.75,2.28-.43,1.16-.88,2.32-1.32,3.48-.63-1.09-1.29-2.16-1.69-3.36-.45-1.38-.86-4.04.86-4.84Z" fill="#f29178"/><path d="m218.15,258.37c.28-1.85-1.14-3.27-2.89-2.45-1.72.8-1.31,3.46-.86,4.84.39,1.21,1.06,2.27,1.69,3.36.44-1.16.89-2.32,1.32-3.48.27-.74.63-1.49.75-2.28Zm.84-1.06c.26,2.31-1.45,5.23-2.24,7.31-.12.32-.49.27-.66.06-.03,0-.05-.02-.08-.04-1.78-1.69-3.92-6.7-1.86-8.87-.37-.91-.75-2.3-.51-3.24.21-.83,1.22-.97,1.94-1.05.72-.08,2.11-.18,2.55.57.2.33.14.73.12,1.1-.04.72-.15,1.43-.31,2.14,0,.02-.01.03-.02.04.58.45.96,1.17,1.06,1.99Z" fill="#081533"/><path d="m268.56,226.78c-1.92.21-2.81-1.59-1.95-3.25.37-.71.94-1.3,1.44-1.91.78-.96,1.57-1.91,2.37-2.87.25,1.23.53,2.46.52,3.73-.02,1.45-.48,4.1-2.37,4.31Z" fill="#f29178"/><path d="m266.61,223.52c-.86,1.66.03,3.46,1.95,3.25,1.89-.21,2.35-2.86,2.37-4.31.02-1.27-.27-2.49-.52-3.73-.79.95-1.58,1.91-2.37,2.87-.5.61-1.07,1.21-1.44,1.91Zm-1.13.73c.5-2.27,3.06-4.48,4.47-6.21.22-.27.55-.1.64.16.02.01.04.03.06.06,1.14,2.18,1.56,7.61-1.09,9,.06.98-.03,2.42-.56,3.23-.46.71-1.46.52-2.17.38-.71-.15-2.05-.51-2.24-1.36-.08-.37.1-.74.24-1.08.27-.67.6-1.31.98-1.92,0-.02.02-.02.03-.03-.4-.62-.54-1.42-.36-2.23Z" fill="#081533"/><path d="m249.97,239.68c1.39-1.34,3.19-.45,3.53,1.39.14.79.04,1.61.02,2.4-.04,1.24-.08,2.48-.13,3.72-.95-.83-1.92-1.62-2.68-2.64-.87-1.16-2.12-3.55-.74-4.86Z" fill="#f29178"/><path d="m253.5,241.07c-.33-1.84-2.14-2.73-3.53-1.39-1.37,1.32-.12,3.7.74,4.86.76,1.02,1.73,1.81,2.68,2.64.05-1.24.09-2.48.13-3.72.02-.79.12-1.61-.02-2.4Zm.45-1.27c.99,2.11.31,5.42.24,7.65,0,.35-.37.42-.61.27-.03,0-.06,0-.09-.02-2.23-1.03-5.87-5.08-4.62-7.8-.64-.74-1.45-1.94-1.52-2.9-.07-.85.84-1.31,1.49-1.62.66-.31,1.94-.85,2.6-.28.29.25.37.65.46,1,.19.7.32,1.4.4,2.12,0,.02,0,.03,0,.05.69.24,1.29.8,1.64,1.55Z" fill="#081533"/><path d="m198.76,241.21c-1.86-.5-2.04-2.5-.63-3.74.6-.53,1.35-.87,2.04-1.26,1.08-.61,2.16-1.21,3.25-1.81-.22,1.24-.4,2.48-.88,3.66-.55,1.34-1.94,3.64-3.78,3.15Z" fill="#f29178"/><path d="m198.12,237.48c-1.4,1.24-1.23,3.24.63,3.74,1.84.49,3.23-1.81,3.78-3.15.48-1.18.66-2.42.88-3.66-1.08.6-2.17,1.2-3.25,1.81-.69.39-1.44.73-2.04,1.26Zm-1.32.27c1.29-1.94,4.48-3.07,6.42-4.16.3-.17.55.11.54.38.02.02.03.05.03.08.27,2.44-1.32,7.66-4.29,7.98-.3.93-.91,2.24-1.7,2.8-.69.5-1.55-.04-2.16-.44-.61-.4-1.73-1.22-1.59-2.08.06-.38.36-.65.62-.91.5-.52,1.03-1,1.61-1.44.01-.01.03-.02.04-.02-.15-.72.02-1.51.47-2.21Z" fill="#081533"/><path d="m162.37,224.45c1.89-.39,2.94,1.33,2.24,3.06-.3.74-.82,1.38-1.26,2.04-.69,1.03-1.39,2.05-2.1,3.07-.36-1.21-.75-2.4-.85-3.67-.11-1.45.11-4.13,1.97-4.51Z" fill="#f29178"/><path d="m164.61,227.51c.7-1.73-.35-3.45-2.24-3.06-1.86.38-2.08,3.06-1.97,4.51.1,1.27.49,2.46.85,3.67.7-1.02,1.4-2.04,2.1-3.07.44-.66.96-1.3,1.26-2.04Zm1.06-.83c-.29,2.31-2.64,4.74-3.89,6.59-.19.29-.54.15-.66-.1-.02-.01-.05-.03-.06-.06-1.34-2.06-2.24-7.44.27-9.06-.15-.97-.19-2.41.26-3.27.4-.75,1.41-.66,2.13-.57.72.09,2.09.32,2.35,1.15.12.36-.03.74-.14,1.09-.21.69-.48,1.36-.8,2,0,.02-.02.03-.03.04.46.58.66,1.36.56,2.18Z" fill="#081533"/><path d="m337.13,234.97c-.47,1.87-2.47,2.08-3.73.7-.54-.59-.89-1.34-1.29-2.02-.63-1.07-1.25-2.14-1.86-3.22,1.24.2,2.49.36,3.67.81,1.35.53,3.68,1.88,3.21,3.73Z" fill="#6db3bf"/><path d="m333.4,235.67c1.26,1.38,3.26,1.18,3.73-.7.46-1.84-1.86-3.2-3.21-3.73-1.19-.46-2.43-.62-3.67-.81.62,1.07,1.24,2.15,1.86,3.22.4.68.76,1.43,1.29,2.02Zm.29,1.32c-1.96-1.26-3.14-4.43-4.26-6.35-.18-.3.1-.55.37-.55.02-.02.05-.03.08-.03,2.44-.31,7.68,1.19,8.06,4.16.94.28,2.25.87,2.83,1.65.51.68-.02,1.55-.4,2.17-.39.62-1.19,1.75-2.05,1.62-.38-.05-.66-.35-.92-.6-.53-.49-1.02-1.02-1.46-1.59-.01-.01-.02-.03-.02-.04-.72.16-1.51,0-2.21-.44Z" fill="#081533"/><path d="m389.06,224.13c-9-4.58-18.5-5.62-27.5-3.02-9.29,2.69-17.35,9.12-23.31,18.59-5.68,9.02-15.04,14.4-25.68,14.75-.37.01-.73.02-1.1.02-10.14,0-19.58-4.7-25.4-12.72-4.74-6.52-11.18-10.37-18.63-11.11-8.84-.88-19.15,2.8-26.29,9.37-9.39,8.63-18.95,12.5-28.4,11.5-9.92-1.04-19.44-7.63-27.55-19.05-8.12-11.43-19.96-13.08-28.47-12.46-9.18.67-16.58,4.08-16.65,4.11l-.11.05.21.45.11-.05c.07-.03,7.39-3.41,16.48-4.07,8.38-.62,20.04,1.02,28.02,12.25,8.19,11.54,17.84,18.19,27.91,19.25,9.61,1.02,19.29-2.9,28.79-11.63,7.05-6.48,17.22-10.11,25.91-9.24,7.3.73,13.62,4.5,18.27,10.91,5.88,8.1,15.53,12.93,25.81,12.93.37,0,.74,0,1.11-.02,10.81-.36,20.31-5.82,26.08-14.99,11.86-18.83,31.54-24.88,50.16-15.4l.11.06.23-.45-.11-.06Z" fill="#fff"/></svg>