<?xml version="1.0" encoding="utf-8"?>
<!-- Generator: Adobe Illustrator 27.4.0, SVG Export Plug-In . SVG Version: 6.00 Build 0)  -->
<svg version="1.1" id="Calque_1" xmlns="http://www.w3.org/2000/svg" xmlns:xlink="http://www.w3.org/1999/xlink" x="0px" y="0px"
	 viewBox="0 0 189 120.9" style="enable-background:new 0 0 189 120.9;" xml:space="preserve">
<style type="text/css">
	.st0{fill:#FFFFFF;}
	.st1{fill:url(#SVGID_1_);}
	.st2{fill:url(#SVGID_00000116208118413795123610000015808960214334691490_);}
	.st3{fill:url(#SVGID_00000008133903827852436330000009459129337649457584_);}
	.st4{fill:url(#SVGID_00000093147856574571553180000010308897340103679637_);}
</style>
<g>
	<g>
		<g>
			<g>
				<path class="st0" d="M28.1,16c-1,0-2.1,0-3.2,0s-2.2,0-3.2,0s-1.9-0.1-2.5-0.1v0.2v0.7V17c1,0,1.8,0.1,2.3,0.3
					c0.5,0.2,0.9,0.6,1.1,1.1s0.3,1.3,0.3,2.5v24.6C23,58.8,1.4,57.5,2,43.8c0.2-3.4,3.3-6.2,7.3-5.5c2.6,0.4,4.1,2.4,3.7,4.4
					c-0.3,1.7-1.5,2.6-3.5,2.6c0,0,0.3,2.1,2.8,2.5c2.6,0.4,5.2-0.9,5.7-3.7c0.7-3.9-2.5-7.1-7-7.8C6,35.4,1.4,37.8,0.2,44
					c-0.6,3.1-0.2,6,1.3,8.8c1.4,2.8,3.8,4.5,7.3,5.1c2.4,0.5,16.1,1.1,17.5-8.6c0.1-1,0.4-2.2,0.5-3.6c0.1-1.4,0.2-2.8,0.2-4.2
					s0-2.8,0-4v-0.2V20.9c0-1.1,0.1-1.9,0.3-2.5c0.2-0.5,0.5-0.9,1.1-1.1s1.3-0.3,2.3-0.3v-0.2v-0.7v-0.2C30,15.9,29.2,16,28.1,16z"
					/>
				<path class="st0" d="M51.8,33.7v18.9c0,1.4,0.2,2.4,0.7,3s1.4,1,2.7,1v0.9c-0.9-0.1-1.9-0.1-2.8-0.1c-0.9,0-1.7,0-2.5,0.1
					s-1.5,0.3-2.2,0.5v-5.3c-0.8,2-1.8,3.4-3.2,4.2s-2.8,1.2-4.2,1.2c-1.1,0-2-0.2-2.8-0.5s-1.4-0.7-1.9-1.3c-0.6-0.6-1-1.4-1.2-2.3
					c-0.2-1-0.3-2.2-0.3-3.6V39.1c0-1.4-0.2-2.4-0.7-3s-1.4-1-2.7-1v-0.9c1,0.1,1.9,0.1,2.8,0.1c0.9,0,1.7-0.1,2.5-0.2
					c0.8-0.1,1.5-0.3,2.2-0.5v17.8c0,0.9,0.1,1.8,0.2,2.6c0.1,0.8,0.4,1.4,0.9,1.9s1.3,0.7,2.3,0.7c1.8,0,3.2-0.8,4.4-2.4
					c1.1-1.6,1.7-3.5,1.7-5.8V39c0-1.4-0.2-2.4-0.7-3s-1.4-1-2.7-1v-0.9c1,0.1,1.9,0.1,2.8,0.1c0.9,0,1.7-0.1,2.5-0.2
					C50.4,34.1,51.2,33.9,51.8,33.7z"/>
				<path class="st0" d="M108.6,70.6v18.9c0,1.4,0.2,2.4,0.7,3s1.4,1,2.7,1v0.9c-0.9-0.1-1.9-0.1-2.8-0.1s-1.7,0-2.5,0.1
					s-1.5,0.3-2.2,0.5v-5.3c-0.8,2-1.8,3.4-3.2,4.2c-1.4,0.8-2.8,1.2-4.2,1.2c-1.1,0-2-0.2-2.8-0.5s-1.4-0.7-1.9-1.3
					c-0.6-0.6-1-1.4-1.2-2.3c-0.2-1-0.3-2.2-0.3-3.6V76.1c0-1.4-0.2-2.4-0.7-3s-1.4-1-2.7-1v-0.9c1,0.1,1.9,0.1,2.8,0.1
					s1.7-0.1,2.5-0.2s1.5-0.3,2.2-0.5v17.8c0,0.9,0.1,1.8,0.2,2.6c0.1,0.8,0.4,1.4,0.9,1.9s1.3,0.7,2.3,0.7c1.8,0,3.2-0.8,4.4-2.4
					c1.1-1.6,1.7-3.5,1.7-5.8V76c0-1.4-0.2-2.4-0.7-3s-1.4-1-2.7-1v-0.9c1,0.1,1.9,0.1,2.8,0.1s1.7-0.1,2.5-0.2
					C107.2,71,108,70.8,108.6,70.6z"/>
				<path class="st0" d="M64.5,33.6c1.2,0,2.2,0.2,3.1,0.6c0.8,0.4,1.5,0.8,1.9,1.1c1,0.8,1.6,0.3,1.8-1.6h1c-0.1,0.8-0.1,1.8-0.1,3
					s0,2.7,0,4.7h-1c-0.2-1.1-0.5-2.2-0.9-3.3s-1.1-1.9-1.9-2.6c-0.8-0.7-1.9-1-3.3-1c-1.1,0-1.9,0.3-2.6,0.9
					c-0.7,0.6-1.1,1.5-1.1,2.6c0,0.9,0.3,1.7,0.8,2.3s1.2,1.3,2.1,1.8c0.9,0.6,1.8,1.2,2.8,1.8c1.7,1.1,3.2,2.2,4.4,3.4
					c1.2,1.1,1.8,2.7,1.8,4.5c0,1.4-0.4,2.5-1.1,3.5c-0.7,0.9-1.7,1.6-2.8,2.1c-1.2,0.5-2.4,0.7-3.8,0.7c-0.7,0-1.3-0.1-1.9-0.2
					c-0.6-0.1-1.2-0.3-1.7-0.5c-0.3-0.2-0.6-0.3-0.9-0.5c-0.3-0.2-0.6-0.4-0.9-0.7c-0.3-0.2-0.6-0.2-0.8,0c-0.2,0.3-0.4,0.8-0.5,1.5
					h-1c0.1-1,0.1-2.1,0.1-3.5s0-3.2,0-5.5h1c0.2,1.7,0.5,3.2,0.9,4.4c0.4,1.3,1,2.3,1.9,3c0.8,0.7,2,1.1,3.5,1.1
					c0.9,0,1.8-0.3,2.7-0.9c0.9-0.6,1.3-1.7,1.3-3.3c0-1.3-0.5-2.4-1.4-3.3c-1-0.8-2.2-1.7-3.7-2.7c-1.1-0.7-2.1-1.4-3-2.1
					c-0.9-0.7-1.7-1.5-2.3-2.3c-0.6-0.9-0.9-1.9-0.9-3.2c0-1.4,0.3-2.5,0.9-3.3c0.6-0.9,1.4-1.5,2.5-1.9
					C62.3,33.8,63.4,33.6,64.5,33.6z"/>
				<path class="st0" d="M82.7,26.7v7.5h6.7v0.9h-6.7v17.5c0,1.4,0.3,2.4,0.8,3s1.2,0.9,2.1,0.9s1.7-0.4,2.3-1.1
					c0.7-0.7,1.2-2,1.7-3.7l0.9,0.2c-0.3,1.7-0.9,3.2-1.8,4.4s-2.3,1.8-4.1,1.8c-1,0-1.9-0.1-2.5-0.4c-0.7-0.3-1.3-0.6-1.8-1.1
					c-0.7-0.7-1.1-1.5-1.4-2.5s-0.4-2.2-0.4-3.8V35.2h-4.3v-0.9h4.3v-6.9c0.8,0,1.5-0.1,2.2-0.2C81.4,27.1,82.1,26.9,82.7,26.7z"/>
				<path class="st0" d="M99.5,34.3v19.6c0,1.3,0.3,2.1,0.8,2.6s1.4,0.7,2.6,0.7v0.9c-0.5,0-1.3-0.1-2.3-0.1s-2.1-0.1-3.1-0.1
					s-2.1,0-3.1,0.1c-1.1,0-1.8,0.1-2.3,0.1v-0.9c1.2,0,2.1-0.2,2.6-0.7s0.8-1.3,0.8-2.6V39.8c0-1.4-0.2-2.4-0.7-3s-1.4-1-2.7-1
					v-0.9c1,0.1,1.9,0.1,2.8,0.1s1.7-0.1,2.5-0.2C98.1,34.7,98.9,34.5,99.5,34.3z M97.2,23.5c0.8,0,1.5,0.3,2,0.9
					c0.6,0.6,0.9,1.3,0.9,2c0,0.8-0.3,1.5-0.9,2c-0.6,0.6-1.2,0.9-2,0.9s-1.5-0.3-2-0.9c-0.6-0.6-0.9-1.2-0.9-2s0.3-1.5,0.9-2
					C95.7,23.8,96.4,23.5,97.2,23.5z"/>
				<path class="st0" d="M147.4,71.3v19.6c0,1.3,0.3,2.1,0.8,2.6s1.4,0.7,2.6,0.7V95c-0.5,0-1.3-0.1-2.3-0.1s-2.1-0.1-3.1-0.1
					s-2.1,0-3.1,0.1c-1.1,0-1.8,0.1-2.3,0.1v-0.9c1.2,0,2.1-0.2,2.6-0.7s0.8-1.3,0.8-2.6V76.7c0-1.4-0.2-2.4-0.7-3s-1.4-1-2.7-1
					v-0.9c1,0.1,1.9,0.1,2.8,0.1c0.9,0,1.7-0.1,2.5-0.2C146,71.6,146.7,71.5,147.4,71.3z M145,60.5c0.8,0,1.5,0.3,2,0.9
					c0.6,0.6,0.9,1.3,0.9,2c0,0.8-0.3,1.5-0.9,2c-0.6,0.6-1.2,0.9-2,0.9s-1.5-0.3-2-0.9c-0.6-0.6-0.9-1.2-0.9-2c0-0.8,0.3-1.5,0.9-2
					C143.6,60.8,144.2,60.5,145,60.5z"/>
				<path class="st0" d="M121,34.2c1.1,0,2.1,0.2,2.9,0.5s1.4,0.7,1.9,1.3c0.6,0.6,1,1.4,1.2,2.3c0.2,0.9,0.4,2.1,0.4,3.7v12.1
					c0,1.3,0.3,2.1,0.8,2.6c0.5,0.5,1.4,0.7,2.6,0.7v0.9c-0.5,0-1.3-0.1-2.3-0.1c-1.1,0-2.1-0.1-3.1-0.1s-2,0-2.9,0.1
					c-0.9,0-1.7,0.1-2.1,0.1v-0.9c1.1,0,1.9-0.2,2.3-0.7c0.5-0.5,0.7-1.3,0.7-2.6V40.8c0-0.9-0.1-1.8-0.2-2.6
					c-0.2-0.8-0.5-1.4-1-1.9s-1.3-0.7-2.4-0.7c-1.9,0-3.4,0.8-4.6,2.4c-1.2,1.6-1.7,3.5-1.7,5.9v10c0,1.3,0.2,2.1,0.7,2.6
					s1.2,0.7,2.3,0.7v0.9c-0.5,0-1.2-0.1-2.1-0.1s-1.9-0.1-2.9-0.1s-2,0-3.1,0.1c-1.1,0-1.8,0.1-2.3,0.1v-0.9c1.2,0,2.1-0.2,2.6-0.7
					s0.8-1.3,0.8-2.6V39.8c0-1.4-0.2-2.4-0.7-3s-1.4-1-2.7-1v-0.9c1,0.1,1.9,0.1,2.8,0.1s1.7-0.1,2.5-0.2c0.8-0.1,1.5-0.3,2.2-0.5
					v5.3c0.8-2,1.9-3.5,3.3-4.3C118,34.6,119.4,34.2,121,34.2z"/>
				<path class="st0" d="M128.5,71.1c1.1,0,2.1,0.2,2.9,0.5c0.8,0.3,1.4,0.7,1.9,1.3c0.6,0.6,1,1.4,1.2,2.3s0.4,2.1,0.4,3.7V91
					c0,1.3,0.3,2.1,0.8,2.6s1.4,0.7,2.6,0.7V95c-0.5,0-1.3-0.1-2.3-0.1c-1.1,0-2.1-0.1-3.1-0.1s-2,0-2.9,0.1c-0.9,0-1.7,0.1-2.1,0.1
					v-0.9c1.1,0,1.9-0.2,2.3-0.7c0.5-0.5,0.7-1.3,0.7-2.6v-13c0-0.9-0.1-1.8-0.2-2.6c-0.2-0.8-0.5-1.4-1-1.9s-1.3-0.7-2.4-0.7
					c-1.9,0-3.4,0.8-4.6,2.4s-1.7,3.5-1.7,5.9v10c0,1.3,0.2,2.1,0.7,2.6s1.2,0.7,2.3,0.7V95c-0.5,0-1.2-0.1-2.1-0.1
					s-1.9-0.1-2.9-0.1s-2,0-3.1,0.1c-1.1,0-1.8,0.1-2.3,0.1v-0.9c1.2,0,2.1-0.2,2.6-0.7s0.8-1.3,0.8-2.6V76.7c0-1.4-0.2-2.4-0.7-3
					s-1.4-1-2.7-1v-0.9c1,0.1,1.9,0.1,2.8,0.1s1.7-0.1,2.5-0.2s1.5-0.3,2.2-0.5v5.3c0.8-2,1.9-3.5,3.3-4.3
					C125.5,71.5,126.9,71.1,128.5,71.1z"/>
				<path class="st0" d="M141,33.6c2.6,0,4.7,0.8,6.2,2.4c1.5,1.6,2.2,4.1,2.2,7.5h-15.9v-0.9h11.7c0.1-1.5-0.1-2.8-0.4-4.1
					c-0.3-1.2-0.8-2.3-1.4-3c-0.6-0.8-1.5-1.1-2.5-1.1c-1.4,0-2.6,0.7-3.7,2.1c-1.1,1.4-1.7,3.6-1.9,6.6l0.1,0.2
					c-0.1,0.5-0.1,0.9-0.1,1.5c0,0.5,0,1.1,0,1.6c0,2,0.3,3.8,1,5.3s1.5,2.6,2.6,3.4c1.1,0.8,2.2,1.2,3.3,1.2c1.4,0,2.6-0.3,3.8-1
					c1.1-0.7,2.1-1.8,2.9-3.5l0.9,0.4c-0.3,1-0.9,2-1.6,2.9c-0.8,0.9-1.7,1.7-2.8,2.3s-2.5,0.9-4,0.9c-2.2,0-4-0.5-5.6-1.5
					s-2.7-2.4-3.6-4.1c-0.8-1.8-1.2-3.8-1.2-6.1c0-2.7,0.4-4.9,1.3-6.8c0.8-1.9,2-3.4,3.6-4.4C137.1,34.1,138.9,33.6,141,33.6z"/>
				<path class="st0" d="M161.3,70.5c2.6,0,4.7,0.8,6.2,2.4s2.2,4.1,2.2,7.5h-15.9v-0.9h11.7c0.1-1.5-0.1-2.8-0.4-4.1
					c-0.3-1.2-0.8-2.3-1.4-3c-0.6-0.8-1.5-1.1-2.5-1.1c-1.4,0-2.6,0.7-3.7,2.1c-1.1,1.4-1.7,3.6-1.9,6.6l0.1,0.2
					c-0.1,0.5-0.1,0.9-0.1,1.5c0,0.5,0,1.1,0,1.6c0,2,0.3,3.8,1,5.3s1.5,2.6,2.6,3.4s2.2,1.2,3.3,1.2c1.4,0,2.6-0.3,3.8-1
					c1.1-0.7,2.1-1.8,2.9-3.5l0.9,0.4c-0.3,1-0.9,2-1.6,2.9c-0.8,0.9-1.7,1.7-2.8,2.3c-1.1,0.6-2.5,0.9-4,0.9c-2.2,0-4-0.5-5.6-1.5
					s-2.7-2.4-3.6-4.1c-0.8-1.8-1.2-3.8-1.2-6.1c0-2.7,0.4-4.9,1.3-6.8c0.8-1.9,2-3.4,3.6-4.4C157.4,71,159.2,70.5,161.3,70.5z"/>
				<path class="st0" d="M77.7,70.5c2.6,0,4.7,0.8,6.2,2.4s2.2,4.1,2.2,7.5H70.2v-0.9h11.7c0.1-1.5-0.1-2.8-0.4-4.1
					c-0.3-1.2-0.8-2.3-1.4-3c-0.6-0.8-1.5-1.1-2.5-1.1c-1.4,0-2.6,0.7-3.7,2.1S72.2,77,72,80l0.1,0.2C72,80.7,72,81.1,72,81.7
					c0,0.5,0,1.1,0,1.6c0,2,0.3,3.8,1,5.3s1.5,2.6,2.6,3.4s2.2,1.2,3.3,1.2c1.4,0,2.6-0.3,3.8-1c1.1-0.7,2.1-1.8,2.9-3.5l0.9,0.4
					c-0.3,1-0.9,2-1.6,2.9c-0.8,0.9-1.7,1.7-2.8,2.3c-1.1,0.6-2.5,0.9-4,0.9c-2.2,0-4-0.5-5.6-1.5s-2.7-2.4-3.6-4.1
					c-0.8-1.8-1.2-3.8-1.2-6.1c0-2.7,0.4-4.9,1.3-6.8c0.8-1.9,2-3.4,3.6-4.4C73.9,71,75.7,70.5,77.7,70.5z"/>
				<path class="st0" d="M184.1,71.1c0.8,0,1.5,0.2,2.1,0.5s1.1,0.8,1.4,1.3c0.3,0.5,0.5,1.1,0.5,1.8c0,0.8-0.2,1.4-0.7,2
					s-1.1,0.9-1.9,0.9c-0.6,0-1.2-0.2-1.7-0.6s-0.7-1-0.7-1.7c0-0.6,0.2-1.1,0.5-1.5s0.7-0.7,1.1-1c-0.2-0.3-0.5-0.5-0.9-0.5
					c-1.3,0-2.4,0.5-3.3,1.4c-0.9,0.9-1.7,2.1-2.2,3.4s-0.8,2.5-0.8,3.7v9.6c0,1.5,0.4,2.5,1.3,3c0.9,0.5,2,0.7,3.5,0.7V95
					c-0.7,0-1.7-0.1-2.9-0.1c-1.3,0-2.6-0.1-4-0.1c-1,0-2,0-3,0.1c-1,0-1.8,0.1-2.3,0.1v-0.9c1.2,0,2.1-0.2,2.6-0.7s0.8-1.3,0.8-2.6
					V76.7c0-1.4-0.2-2.4-0.7-3s-1.4-1-2.7-1v-0.9c1,0.1,1.9,0.1,2.8,0.1c0.9,0,1.7-0.1,2.5-0.2s1.5-0.3,2.2-0.5v5.6
					c0.3-0.9,0.8-1.8,1.4-2.6c0.6-0.9,1.4-1.6,2.2-2.2C182,71.4,183,71.1,184.1,71.1z"/>
				<g>
					<path class="st0" d="M86.1,72.7c0.7-2.9,0-5.7-1.3-8.5c-1.4-2.8-3.7-4.5-7.1-5.1c-5.4-1.3-16.3,5.1-24.1,3.4l-4.5-0.8L48.9,63
						l0.9,0.2c0.2,0,0.4,0.1,0.6,0.2l0,0c0,0,2.6,0.5,5.9,0.7L47,89L37,62.8c-0.5,0-1.1,0.1-1.8,0.1s-1.4,0-2.1,0
						c-0.8,0-1.5,0-2.3,0s-1.4-0.1-1.9-0.1v0.9c1,0,1.8,0.1,2.3,0.3c0.5,0.2,0.9,0.6,1.1,1.1s0.3,1.3,0.3,2.5v22
						c0,1.1-0.1,1.9-0.3,2.6c-0.2,0.6-0.5,1.1-1.1,1.3c-0.5,0.3-1.3,0.4-2.3,0.5v0.9c0.5-0.1,1.2-0.1,1.9-0.1c0.8,0,1.5,0,2.3,0
						s1.6,0,2.5,0s1.6,0.1,2.1,0.1V94c-1.2-0.1-2.1-0.2-2.6-0.5c-0.6-0.3-1-0.7-1.2-1.3c-0.2-0.6-0.3-1.5-0.3-2.6V65.7L45.1,95h0.7
						l10.9-29.2V90c0,1.1-0.1,1.9-0.3,2.4s-0.5,0.9-1.1,1.1c-0.5,0.2-1.3,0.3-2.3,0.4v0.9c0.6-0.1,1.5-0.1,2.5-0.1s2.1,0,3.3,0
						c1.1,0,2.1,0,3.1,0s1.9,0.1,2.6,0.1v-0.9c-1-0.1-1.8-0.2-2.3-0.4c-0.5-0.2-0.9-0.5-1.1-1.1c-0.2-0.5-0.3-1.4-0.3-2.4V67.6
						c0-1.1,0.1-1.9,0.3-2.5c0.2-0.5,0.5-0.9,1.1-1.1c0.1,0,0.2,0,0.3-0.1c0.1,0,0.2,0,0.2,0l0.5-0.1c0,0,0,0,0.1,0l0,0l1.3-0.1
						c1.7-0.3,3.1-0.5,4.1-0.6c2-0.2,5.7-0.6,8.3,0.2C81.5,64.8,85.7,69,86.1,72.7L86.1,72.7z"/>
				</g>
			</g>
		</g>
		<g>
			<g>
				
					<linearGradient id="SVGID_1_" gradientUnits="userSpaceOnUse" x1="-39.0017" y1="66.3583" x2="195.1962" y2="-40.7186" gradientTransform="matrix(1 0 0 -1 0 121.8898)">
					<stop  offset="0" style="stop-color:#CEE9F4"/>
					<stop  offset="1" style="stop-color:#72B5C1"/>
					<stop  offset="1" style="stop-color:#6DB3BF"/>
				</linearGradient>
				<path class="st1" d="M13.8,89.6c-0.4,0-0.7-0.2-0.8-0.5c-0.3-0.7-0.5-1.5-0.7-2.6c-0.5-2.7-2.5-4.9-5.1-5.5
					c-0.7-0.2-1.3-0.4-1.8-0.6C5,80.3,4.8,80,4.8,79.6s0.3-0.7,0.7-0.8c0,0,0.5-0.1,1.3-0.3c2.8-0.6,4.9-2.8,5.4-5.6
					c0.2-1.1,0.4-2,0.7-2.7c0.1-0.3,0.4-0.5,0.8-0.5c0.4,0,0.7,0.2,0.8,0.5c0.3,0.7,0.5,1.6,0.7,2.7c0.5,2.8,2.6,5,5.4,5.6
					c0.8,0.2,1.3,0.3,1.3,0.3c0.4,0.1,0.6,0.4,0.7,0.8c0,0.4-0.2,0.7-0.5,0.9c-0.5,0.2-1.1,0.4-1.8,0.6c-2.6,0.7-4.6,2.8-5.1,5.5
					c-0.2,1-0.4,1.9-0.7,2.6C14.4,89.4,14.1,89.6,13.8,89.6z M8.7,79.7c2.4,1,4.3,3.1,5,5.6c0.8-2.6,2.6-4.6,5-5.6
					c-2.5-1-4.3-3.1-5-5.7C13.1,76.6,11.2,78.7,8.7,79.7z"/>
				
					<linearGradient id="SVGID_00000063593524339215430540000015705222314328144292_" gradientUnits="userSpaceOnUse" x1="3.2062" y1="158.675" x2="237.4041" y2="51.5981" gradientTransform="matrix(1 0 0 -1 0 121.8898)">
					<stop  offset="0" style="stop-color:#CEE9F4"/>
					<stop  offset="1" style="stop-color:#72B5C1"/>
					<stop  offset="1" style="stop-color:#6DB3BF"/>
				</linearGradient>
				<path style="fill:url(#SVGID_00000063593524339215430540000015705222314328144292_);" d="M172.9,58.9c-0.4,0-0.7-0.2-0.8-0.5
					c-0.5-1.2-0.9-2.8-1.3-4.7c-1-5.4-5-9.7-10.2-11c-1.2-0.3-2.3-0.7-3.3-1c-0.4-0.1-0.6-0.5-0.5-0.9c0-0.4,0.3-0.7,0.7-0.8
					c0,0,1-0.2,2.5-0.6c5.6-1.2,9.8-5.6,10.8-11.2c0.4-2.1,0.8-3.7,1.3-5c0.1-0.3,0.4-0.5,0.8-0.5c0.4,0,0.7,0.2,0.8,0.5
					c0.5,1.3,1,3,1.3,5c1,5.6,5.3,10,10.8,11.2c1.5,0.3,2.5,0.5,2.5,0.5c0.4,0.1,0.6,0.4,0.7,0.8c0,0.4-0.2,0.7-0.5,0.9
					c-1,0.4-2.1,0.7-3.3,1c-5.2,1.3-9.2,5.6-10.2,11c-0.4,1.9-0.8,3.5-1.3,4.7C173.6,58.7,173.3,58.9,172.9,58.9z M161,40.9
					C161,41,161,41,161,40.9c5.9,1.5,10.4,6.4,11.6,12.4c0.1,0.6,0.2,1.2,0.4,1.7c0.1-0.5,0.2-1.1,0.4-1.7
					c1.1-6.1,5.6-10.9,11.5-12.4h0.1c-5.9-1.5-10.4-6.3-11.5-12.4c-0.1-0.7-0.3-1.4-0.4-2.1c-0.1,0.6-0.3,1.3-0.4,2
					C171.4,34.6,166.9,39.4,161,40.9z"/>
				<g>
					<g>
						
							<linearGradient id="SVGID_00000061444863514067480890000004530404389309870739_" gradientUnits="userSpaceOnUse" x1="-33.9278" y1="77.4558" x2="200.2701" y2="-29.6211" gradientTransform="matrix(1 0 0 -1 0 121.8898)">
							<stop  offset="0" style="stop-color:#CEE9F4"/>
							<stop  offset="1" style="stop-color:#72B5C1"/>
							<stop  offset="1" style="stop-color:#6DB3BF"/>
						</linearGradient>
						<path style="fill:url(#SVGID_00000061444863514067480890000004530404389309870739_);" d="M98,120.9
							c-17.2,0-33.5-7.5-44.8-20.6c-0.2-0.3-0.3-0.6-0.1-0.9c0.1-0.3,0.4-0.5,0.8-0.5H78c0.2,0,0.4,0.1,0.6,0.2
							c8.9,7.7,20.3,11.9,32,11.9c10.2,0,20-3.1,28.4-9c0.4-0.3,0.9-0.2,1.2,0.1c0.3,0.3,0.3,0.8,0,1.2
							C128.9,114.7,114,120.9,98,120.9z M55.8,100.7C66.7,112.4,82,119.2,98,119.2c12.4,0,24.2-3.9,34-11.2
							c-6.7,3.1-13.9,4.7-21.4,4.7c-12,0-23.7-4.3-32.9-12.1L55.8,100.7L55.8,100.7z"/>
						
							<linearGradient id="SVGID_00000010285983791395760910000004893176602531351204_" gradientUnits="userSpaceOnUse" x1="-1.1497" y1="149.1477" x2="233.0481" y2="42.0708" gradientTransform="matrix(1 0 0 -1 0 121.8898)">
							<stop  offset="0" style="stop-color:#CEE9F4"/>
							<stop  offset="1" style="stop-color:#72B5C1"/>
							<stop  offset="1" style="stop-color:#6DB3BF"/>
						</linearGradient>
						<path style="fill:url(#SVGID_00000010285983791395760910000004893176602531351204_);" d="M78.1,21.9H54
							c-0.3,0-0.6-0.2-0.8-0.5c-0.1-0.3-0.1-0.7,0.1-0.9C64.6,7.5,80.9,0,98,0c15.9,0,30.9,6.2,42.1,17.6c0.3,0.3,0.3,0.8,0,1.2
							c-0.3,0.3-0.8,0.4-1.2,0.1c-8.3-5.9-18.1-9-28.4-9c-11.7,0-23,4.2-31.9,11.8C78.5,21.8,78.3,21.9,78.1,21.9z M55.9,20.2h21.9
							c9.2-7.7,20.8-12,32.8-12c7.5,0,14.8,1.6,21.4,4.7c-9.8-7.3-21.6-11.2-34-11.2C82,1.7,66.8,8.4,55.9,20.2z"/>
					</g>
				</g>
			</g>
		</g>
	</g>
</g>
</svg>
